<svg version="1" xmlns="http://www.w3.org/2000/svg" width="666.667" height="666.667" viewBox="0 0 500.000000 500.000000"><path d="M355.3 16.9c-1.2 2-3.6 5.5-5.5 7.7-1.8 2.3-4.4 5.5-5.8 7.4-2.4 3.1-3.4 4.4-8.3 10-1.2 1.4-4.2 5-6.7 8s-4.7 5.7-5 6c-1.2 1.1-18.4 22.5-27.4 34.1-5.3 6.8-9.9 12.8-10.4 13.4-.8 1-17.4 24.3-20.4 28.5l-1.7 2.5.9-3.5c.8-3.2.7-11.5-.3-15-1.6-6-7.9-18.2-10.7-21-.3-.3-2.3-2.7-4.5-5.5-6.3-7.9-17.2-18.3-22.9-22-5.8-3.7-15.9-8.2-20.2-8.9-1.6-.3-5-.9-7.5-1.4-5.1-1-22-.8-28.4.2-2.2.3-7.6 1.5-12 2.7-4.4 1.1-9 2-10.2 2-1.3-.1-2.3.3-2.3.8 0 .4-2.8 1.8-6.2 3.1-9.2 3.4-9.7 4.3-4 7.6 18.7 10.9 38 30.4 51.2 51.9 2.4 3.8 5.2 8.5 6.4 10.3 1.2 1.8 5.9 6.3 10.6 10 17.6 14.1 29.9 16.7 43.8 9.2 2.9-1.6 5.2-2.5 5-2.1-1.4 3.5-11.5 22.8-12.3 23.3-.5.4-.6.8-.1.8.4 0 .1 1.1-.8 2.5s-1.4 2.5-1 2.5c.4 0 .2.6-.3 1.2-.9 1.1-2.8 6.2-4 10.3-2.1 7.5-4.4 18-4.9 22-.4 2.7-.8 5.2-1 5.5-1.7 3.1-2.5 54.2-1.1 77 .5 6.9 1 15 1.1 18 .2 3.1.6 7.8 1 10.5.6 5.3 1.3 11.2 2.1 18.5.3 2.5.7 5.4.9 6.5.5 3-.1 3.4-3.7 2.4-5.2-1.6-20.6-1.7-27.7-.3-32.8 6.8-56.1 36.3-54.3 68.9.4 7.4.5 8.3 1.8 12.8.9 3.5.4 4-3 2.7-4.4-1.7-17.1-1.9-23.6-.4-14.5 3.4-27.2 13.5-33.4 26.6-3.5 7.5-4.2 9.9-5.1 18l-.5 4.8H417v-4.3c-.1-14.4-10.9-31.9-24.6-39.8-10.7-6.1-25.7-8-37.5-4.9-5 1.4-15.4 6.4-16.4 8-1.5 2.5-2 .4-1.8-8.5.2-10.5-1.1-16.5-5.7-25.5-7.2-14.1-22.2-25-37.7-27.6-4.6-.8-15.4-.8-18.5-.1-1.9.5-2.8-.1-4.8-3-1.4-2.1-5.6-6.7-9.3-10.4-6.2-6.1-6.8-7.1-7.8-12.5-1.2-7.2-1.4-8.5-2.3-15.4-.4-3-1-7.3-1.3-9.5-.3-2.2-.7-5.1-.8-6.5-.1-1.4-.5-4.3-.9-6.5-.3-2.2-.8-7.4-1.1-11.5-.3-4.1-.8-9.5-1-12-.2-2.5-.7-10.1-1-16.9-.3-6.8-.8-12.7-1.1-13.2-.3-.5 0-.9.6-.9s.9-.4.6-.9c-1.6-2.5.1-40.2 1.9-41.9.5-.5 7.3 3.6 9.9 6 1 .9 5 3.3 8.8 5.3 5.6 3 8.4 3.8 14.3 4.2 7.6.6 20-1.1 22.2-2.9.7-.6 1.3-.8 1.3-.5 0 .7 11-3.7 18.4-7.5 3.3-1.6 9.3-6.1 13.5-10 13.7-12.7 30.6-24.5 45.8-32.2 7.1-3.5 24.6-10.3 28.5-11 1.3-.3 2.4-.5 2.6-.7.1-.1.6-.2 1.2-.3.5 0 1.4-.6 2-1.2 1.3-1.3-1-2.8-14-9.2-15.4-7.5-31-13.1-42.5-15.1-3.3-.6-7.6-1.3-9.5-1.7-6.2-1.2-27.3-1-33 .3-3 .7-5.7 1.3-6 1.3-.3 0-2.1.5-4 1s-3.9 1-4.5 1.1c-2 .2-20.1 9.9-26.9 14.4-3.8 2.5-7.1 4.5-7.3 4.5-.2 0 .4-1.2 1.5-2.8 1-1.5 2.1-3.2 2.3-3.7.9-2.3 9.4-16 10.1-16.3.5-.2.8-.8.8-1.3 0-.7 5.2-9.8 19-32.9.5-.8 3.2-5.3 5.9-10s5.4-9 5.8-9.6c.8-1.1 2.2-3.4 5.5-9.3 1.1-2 2.6-4.3 3.4-5.2.8-.8 1.4-1.9 1.4-2.3 0-.4 3.2-5.9 7-12.2 3.9-6.3 7-11.6 7-11.8 0-.2 2.8-5 6.3-10.7 3.5-5.8 6.6-11.1 7-11.9.4-.8 2.5-4.4 4.7-7.9 2.3-3.5 3.7-6.8 3.3-7.2-.5-.5-1.8.9-3 3z"/></svg>