<svg version="1" xmlns="http://www.w3.org/2000/svg" width="346.667" height="346.667" viewBox="0 0 260.000000 260.000000"><path d="M125.7 11.5c-1 1-1.7 3.2-1.7 5.5 0 2.1-.3 4.1-.7 4.3-.5.3-6.6.8-13.8 1.2-7.1.3-15.5.8-18.5 1-3 .2-11.1.7-18 1-6.9.4-13.6.9-15 1-1.4.2-4 .4-5.9.4l-3.4.1.6 17.3c.4 9.6.9 18.1 1.2 18.9.5 1.4 2.5 1.5 13.3 1.2 7-.2 15.2-.6 18.2-.9 3-.2 13.7-.7 23.8-1.1l18.3-.7-.3 6.4-.3 6.4-8.5-.1c-4.7 0-14.6-.3-22-.7-7.4-.4-18.2-1-24-1.3-5.8-.2-12.7-.6-15.5-.9-5.5-.4-4-1.4-18.9 12l-5.9 5.3 3.4 3.7c1.9 2 6.1 6.6 9.4 10.2l6 6.4 10 .9c5.5.5 14.5 1.1 20 1.4 10.2.5 32.2 1.8 38.5 2.2 1.9.1 4.5.2 5.8.3 2 .1 2.2.6 2.2 6.5 0 3.6-.3 6.7-.7 6.9-.5.3-7.1.8-14.8 1.2-7.7.3-15.3.8-17 1-1.6.2-9.3.7-17.1 1-7.7.3-14.9.8-16 1-1 .2-3.7.4-5.8.4l-3.9.1.6 17.4c.4 9.6 1 18.1 1.3 19 .5 1.3 2.4 1.4 12.7 1.1 6.7-.3 14.7-.7 17.7-.9 3-.3 13.9-.8 24.3-1.2l18.7-.6V252h12v-87l2.3-.1c1.2 0 3-.2 4-.4s7.5-.6 14.5-1 15-.8 17.7-1c2.8-.2 11.7-.7 20-1.1l15-.7 5.6-6.1c3.1-3.3 7.1-7.8 9-10l3.3-3.9-6.9-6.4c-3.9-3.6-8.5-7.7-10.3-9.1l-3.3-2.5-21.2.7c-11.7.4-22.8.9-24.7 1-1.9.2-8.3.7-14.2 1.1l-10.8.7v-12.5l17.8.7c9.7.4 19.3.9 21.2 1.1 10.3.9 28.7 1.4 29.7.8 1.4-1 2-6.7 2.8-24.4l.6-13.5-8.8-.3c-4.8-.2-10.6-.4-12.8-.6-2.2-.2-11.4-.7-20.5-1.1-9.1-.4-17.6-.8-19-.9-1.4-.1-4.4-.3-6.7-.4L136 75V60.2l6.3-.6c14.7-1.3 19-1.6 33.2-2.2 8.3-.3 16.8-.7 19-.9 2.2-.2 6.7-.4 10-.4l6-.1 9.2-9.7 9.1-9.7-7.1-6.8c-4-3.7-8.9-8-10.9-9.4-5.1-3.6-7.8-3.6-65 .2l-9.8.6v-3.8c0-5.1-.8-6.1-5.1-6.9-2.7-.5-4-.2-5.2 1z"/></svg>