<svg height="90" viewBox="0 0 728 90" width="728" xmlns="http://www.w3.org/2000/svg" xmlns:xlink="http://www.w3.org/1999/xlink"><mask id="a" fill="#fff"><path d="m25.00005 50h24.99995v-50h-24.99995-24.99995v50z" fill="none"/></mask><mask id="b" fill="#fff"><path d="m0 50h50v-50h-50z" fill="none"/></mask><mask id="c" fill="#fff"><path d="m.27765 7.5h35.4445v-7.3689h-35.4445z" fill="none"/></mask><mask id="d" fill="#fff"><path d="m49.9998 50h-49.9998v-49.9998h49.9998z" fill="none"/></mask><mask id="e" fill="#fff"><path d="m0 50h50v-50h-50z" fill="none"/></mask><mask id="f" fill="#fff"><path d="m.00015 0h49.99985v49.99975h-49.99985z" fill="none"/></mask><mask id="g" fill="#fff"><path d="m.13106791.06425h11.01311319v10.7690833h-11.01311319z" fill="none"/></mask><mask id="h" fill="#fff"><path d="m.11792703.06425h11.01311317v10.7690833h-11.01311317z" fill="none"/></mask><mask id="i" fill="#fff"><path d="m.09878668.06425h11.01311322v10.7690833h-11.01311322z" fill="none"/></mask><mask id="j" fill="#fff"><path d="m.02012889.04708333h15.41829031v10.61958337h-15.41829031z" fill="none"/></mask><mask id="k" fill="#fff"><path d="m0 0h5.50647137v13.8504833h-5.50647137z" fill="none"/></mask><mask id="l" fill="#fff"><path d="m.04284847.06423333h10.94060823v10.76909997h-10.94060823z" fill="none"/></mask><mask id="m" fill="#fff"><path d="m0 18h314.384v-17.298h-314.384z" fill="none"/></mask><g fill="none" fill-rule="evenodd"><g transform="translate(569 20)"><g fill="#4cbef6"><path d="m42.5071 40.7075h-7.7405v-4.5385c0-1.179.9555-2.1345 2.1345-2.1345h.043v-1.283h-.238c-.3025 0-.5475-.245-.5475-.5475s.245-.548.5475-.548h3.8615c.3025 0 .5475.2455.5475.548s-.245.5475-.5475.5475h-.238v1.283h.043c1.179 0 2.1345.9555 2.1345 2.1345zm-9.5215-1.8915-.3905 1.9145-.3905-1.9145v-.85-5.1195c-1.5395-1.706-2.5675-3.6375-2.797-5.664-.289-2.245.391-4.603 1.5635-7.0225.798-1.661 1.72-3.2385 2.5245-4.7285.674.613 1.326 1.223 1.9625 1.8305-.242-1.1875-.5615-2.387-1.032-3.6095 1.0785-2.126 1.7265-4.043 2.169-5.577 1.8395 1.833 3.071 3.9605 3.3225 6.1995.287 2.2445-.4065 4.6-1.594 7.017-.4765.9815-1 1.932-1.5125 2.8535-1.556.9065-3.0445 1.823-4.3925 2.7615 1.01-.112 2.028-.223 3.0535-.333-1.195 2.173-1.977 4.1585-2.4865 5.818v5.574zm-4.5365 1.8865h-18.9995-.0005-.0005c-1.4 0-2.273-1.4325-2.2825-3.652h-.0005v-24.778h.001c.014-1.5485.628-2.5465 1.6095-2.5465h.0005 18.994c.9405 0 1.703.765 1.703 2.0295 0 1.01-.609 1.829-1.3605 1.8305v.0005h-1.953v21.6425h2.766c1.067 0 1.932 1.1625 1.932 2.596 0 1.7895-1.078 2.874-2.409 2.8775zm-3.449-40.7025c-13.807 0-25 11.193-25 25s11.193 25 25 25 25-11.193 25-25-11.193-25-25-25z" mask="url(#a)"/><path d="m9.82055 36.57495c.0015 0 .0035.0005.005.0005-.0015 0-.003-.0005-.005-.0005z"/><path d="m9.69835 36.59155c.0395-.0105.0805-.0165.122-.0165-.0475 0-.087.0055-.121.016 0 0-.0005.0005-.001.0005"/><path d="m9.693 38.1062h.001z"/><path d="m9.69385 38.1062h-.001z"/></g><path d="m36.944 34.0345h3.3855v-1.283h-3.3855z" fill="#e3f6fd" mask="url(#b)"/><path d="m40.5674 31.65625h-3.861c-.3025 0-.548.245-.548.5475 0 .303.2455.548.548.548h3.861c.3025 0 .548-.245.548-.548 0-.3025-.2455-.5475-.548-.5475" fill="#fff" mask="url(#b)"/><path d="m38.24085 37.45045c.7735 0 1.321-.1975 1.7935-.4375-1.8365-.2805-2.039-.9195-3.812-.9195-.37 0-.686.0475-.967.1225.2405.259 1.262 1.2345 2.9855 1.2345" fill="#4cbef6" mask="url(#b)"/><path d="m42.02565 36.16335c-1.348.122-1.9025 1.287-3.785 1.287-1.736 0-2.762-.9915-2.9925-1.2415v3.1475h6.7775z" fill="#0074b8" mask="url(#b)"/><path d="m42.02565 39.35595h-6.7775v-3.147l.007.007c.281-.075.5975-.1225.9675-.1225 1.772 0 1.975.6385 3.81.919.678-.344 1.1985-.7775 1.993-.849zm-1.653-5.3215h-3.4715c-1.179 0-2.1345.956-2.1345 2.1345v4.5385h7.7405v-4.5385c0-1.1785-.9555-2.1345-2.1345-2.1345z" fill="#fff" mask="url(#b)"/><path d="m32.20445 37.9658h.781v-5.5845c-.057.1855-.108.3635-.1585.541.0015-.006.003-.011.0045-.017-.0175.063-.0385.13-.0555.192l-.1245.019s-.0015-.009-.0035-.022c-.014-.091-.073-.474-.161-1.0475-.133-.866-.3325-2.1645-.5455-3.5505-.625-4.0705 5.7705-10.237 5.839-14.5625.0315-1.964-.7895-4.6505-1.1905-5.8405.0015-.0055.0035-.012.005-.018-.4425 1.534-1.0905 3.4515-2.1685 5.5775.47 1.2225.7895 2.422 1.0315 3.6095-.636-.608-1.2885-1.2175-1.9625-1.831-.8045 1.4905-1.7265 3.068-2.524 4.729-1.173 2.4195-1.853 4.7775-1.564 7.022.2295 2.027 1.258 3.9585 2.797 5.664z" fill="#fff" mask="url(#b)"/><path d="m32.77575 33.09715-.1245.019s-.334-2.1755-.7095-4.62c-.625-4.07 5.77-10.2365 5.839-14.5625.031-1.964-.79-4.6505-1.191-5.84.002-.006.0035-.012.0055-.018 1.839 1.833 3.071 3.9605 3.322 6.199.287 2.2445-.4065 4.6005-1.594 7.0175-.476.9815-.9995 1.9315-1.512 2.8535-1.556.9065-3.0445 1.823-4.393 2.7615 1.01-.112 2.0285-.2235 3.054-.333-1.3675 2.4865-2.2015 4.737-2.6965 6.523" fill="#a6e3fa" mask="url(#b)"/><path d="m32.20445 37.9658v.8505l.3905 1.914.3905-1.914v-.8505z" fill="#0074b8" mask="url(#b)"/><path d="m9.68935 38.9641c.029-.0025.0575-.0075.086-.013.0085-.002.0175-.0045.026-.0065.02-.005.04-.011.06-.017.0085-.0035.0175-.006.0265-.0095.022-.008.044-.0175.0655-.0275.005-.0025.01-.0045.015-.007.026-.013.051-.0275.0755-.0435.008-.0045.0155-.01.023-.015.0175-.012.034-.024.051-.037.0085-.007.0175-.0135.026-.021.016-.0135.0315-.0275.047-.0425.0075-.0065.0145-.013.022-.02.021-.021.041-.043.0605-.066.0075-.0085.014-.0175.021-.026.013-.016.0255-.033.038-.05.008-.011.016-.0225.0235-.034.011-.016.0215-.0325.0315-.0495.0075-.012.015-.0235.022-.036.0135-.0235.026-.048.0385-.073.007-.0145.014-.03.0205-.0445.009-.02.018-.0395.026-.0595.006-.015.0115-.0305.017-.0455.0065-.018.013-.037.019-.0555.005-.0155.01-.031.0145-.047.043-.149.067-.3105.067-.4795 0-.026-.0015-.0515-.003-.077h-.51-.901c-.007-.044-.0105-.0895-.0105-.136 0-.414.2205-.759.5125-.835.0335-.01.073-.0155.1205-.0155h1.805c-.329-.802-.964-1.346-1.6935-1.346-.8535 0-1.5455.93-1.5455 2.077 0 .9175.5535 1.6615 1.2365 1.6615.022 0 .0445-.0015.0665-.0035z" fill="#4cbef6" mask="url(#b)"/><path d="m9.82055 36.57495c-.3495 0-.633.381-.633.8505 0 .0465.0035.0925.01.1365h.9015.5105c-.029-.5515-.371-.987-.789-.987" fill="#0074b8" mask="url(#b)"/><path d="m9.6892 38.9641h2.001c.109-.3385.1735-.7175.1735-1.139 0-.4555-.095-.878-.2485-1.25h-1.7945c.437 0 .791.476.791 1.063 0 .704-.407 1.28-.9225 1.326" fill="#a6e3fa" mask="url(#b)"/><path d="m11.86375 37.8252c0-1.4335-.865-2.596-1.932-2.596h18.9945c1.067 0 1.932 1.1625 1.932 2.596 0 1.7895-1.078 2.874-2.409 2.877h-19.0005c1.3335 0 2.415-1.085 2.415-2.877" fill="#0074b8" mask="url(#b)"/><path d="m10.47925 11.75535c0-.163-.0135-.3165-.0375-.4625h-2.16c-.1575.212-.255.505-.255.8285 0 .809.488 1.465 1.09 1.465.7525 0 1.3625-.82 1.3625-1.831" fill="#4cbef6" mask="url(#b)"/><path d="m10.47925 11.75535c0-1.264-.7625-2.0295-1.703-2.0295h18.994c.941 0 1.7035.7655 1.7035 2.0295 0 1.0105-.609 1.8295-1.3605 1.831h-18.9965c.7525 0 1.3625-.82 1.3625-1.831" fill="#0074b8" mask="url(#b)"/><path d="m23.51075 17.28345c0-.3545-.0655-.532-.196-.532-.1075 0-.2285.1935-.364.581s-.2545.868-.357 1.442c-.103.574-.1585 1.1245-.168 1.652.3315-.546.595-1.093.791-1.6415s.294-1.049.294-1.5015" fill="#fff" mask="url(#b)"/><path d="m20.94825 17.28345c0-.3545-.0655-.532-.196-.532-.1075 0-.2285.1935-.364.581s-.2545.868-.357 1.442c-.103.574-.1585 1.1245-.168 1.652.3315-.546.595-1.093.791-1.6415s.294-1.049.294-1.5015" fill="#fff" mask="url(#b)"/><path d="m9.28005 17.32545c.0325-.2335.092-.3955.1785-.4865.086-.091.2225-.1365.4095-.1365.14 0 .2485.0305.3255.091.077.061.1155.1725.1155.336 0 .0325-.005.0955-.014.189-.14.9565-.21 1.771-.21 2.443 0 .6255.0535 1.1085.161 1.449.107.3405.252.511.434.511.163 0 .3605-.1715.5915-.5145s.4605-.8515.6895-1.526c.2285-.6745.4225-1.478.581-2.4115.0375-.2145.106-.3625.2065-.4445.1005-.0815.237-.1225.4095-.1225.1445 0 .2505.0315.3185.0945.0675.063.1015.1575.1015.2835 0 .0745-.005.133-.014.175-.1305.7605-.196 1.5215-.196 2.282 0 .518.0175.931.0525 1.239s.1025.5425.203.7035.246.2415.4375.2415c.224 0 .4735-.169.749-.5075.275-.338.527-.7595.756-1.2635-.285-.177-.4995-.407-.644-.6895s-.217-.608-.217-.9765.057-.68.1715-.9345c.114-.254.2705-.4445.469-.5705.198-.126.4185-.189.6615-.189.2985 0 .5355.1075.7105.322.175.215.2625.5085.2625.882 0 .5275-.1145 1.113-.343 1.757.238.042.518.063.84.063.067 0 .119.013.1635.031.0345-.0805.073-.147.12-.185.07-.056.182-.084.336-.084.238 0 .357.0795.357.238 0 .117-.0445.3875-.133.812-.112.5135-.168.861-.168 1.043 0 .14.0185.2475.056.322.0375.075.1005.112.189.112.084 0 .189-.058.315-.175.0925-.0855.2155-.2205.3535-.379-.0355-.2105-.057-.436-.057-.685 0-.569.0735-1.218.2205-1.946s.364-1.353.6515-1.876c.2865-.5225.6285-.784 1.025-.784.2245 0 .4005.104.529.3115.128.2075.192.5055.192.8925 0 .5555-.1535 1.1995-.4615 1.932-.3085.733-.726 1.4585-1.253 2.177.0325.1915.086.328.1605.4095.075.0815.173.1225.294.1225.1915 0 .3595-.055.5045-.1645.1445-.1095.3285-.2975.553-.5635.0495-.058.1055-.086.166-.0925-.0125-.1325-.019-.272-.019-.4185 0-.569.0735-1.218.2205-1.946s.364-1.353.6515-1.876c.2865-.5225.6285-.784 1.025-.784.2245 0 .4005.104.529.3115.128.2075.192.5055.192.8925 0 .5555-.1525 1.1995-.4585 1.932-.3055.733-.722 1.456-1.2495 2.17.033.1915.091.329.175.413s.1985.126.343.126c.0795 0 .1695-.0235.27-.07.1-.0465.192-.1075.276-.182.0515-.0465.103-.07.154-.07.0565 0 .1015.0315.1365.0945.0355.063.0525.139.0525.2275 0 .196-.0695.3525-.21.469-.2425.201-.5175.301-.8255.301-.4435 0-.768-.1855-.973-.5565-.0635-.114-.1135-.242-.157-.3775-.016.0285-.026.063-.047.087-.2005.2475-.4185.4505-.6545.609-.2355.159-.5025.238-.8015.238-.4105 0-.715-.1865-.913-.56-.0125-.0235-.0215-.051-.033-.0755-.3885.415-.7565.6355-1.1005.6355-.3035 0-.524-.1075-.6615-.322-.138-.2145-.2065-.4995-.2065-.854 0-.21.0265-.4795.0805-.8085.021-.1305.0465-.2545.0725-.378-.039.0095-.0745.0235-.1215.0245-.369.0045-.7-.0235-.994-.084-.3265.6955-.72 1.273-1.1795 1.7325s-.9135.6895-1.3615.6895c-.4105 0-.719-.218-.924-.6545-.2055-.4365-.322-1.021-.35-1.7535-.28.812-.596 1.4165-.9485 1.813s-.727.595-1.1235.595c-.448 0-.7865-.279-1.015-.8365-.229-.5575-.343-1.308-.343-2.2505 0-.686.0605-1.4395.182-2.261zm8.554.6615c.1285-.1095.288-.1645.4795-.1645.1725 0 .3125.042.42.126s.161.203.161.357c0 .1865-.061.335-.182.4445-.1215.1095-.2825.1645-.483.1645-.196 0-.343-.0455-.441-.1365s-.147-.218-.147-.3815.064-.3.1925-.4095zm-8.6255 7.007h14.909v-.5h-14.909zm0 1.7995h14.909v-.5h-14.909zm0 1.7995h14.909v-.5h-14.909zm0 1.7995h14.909v-.5h-14.909zm0 1.799h14.909v-.5h-14.909zm.723 3.038h16.2285v-21.643h-14.224-2.818-.0015c-.602 0-1.09-.656-1.09-1.465 0-.3235.0975-.6165.2555-.8285h2.1595c-.1625-.9855-.846-1.567-1.6655-1.567-.9815 0-1.5955.998-1.6095 2.5465h-.001v24.778h.0005c.0095 2.2195.8825 3.652 2.2825 3.652h.0005c1.02-.0005 1.8885-.6375 2.242-1.7385h-2.002c-.022.002-.044.0035-.0665.0035-.6825 0-1.2365-.744-1.2365-1.6615 0-1.147.692-2.0765 1.5455-2.0765z" fill="#fff" mask="url(#b)"/><path d="m15.85305 19.2505c.182-.5225.273-.9545.273-1.295 0-.196-.0255-.3395-.077-.4305s-.1215-.1365-.21-.1365c-.126 0-.2285.0735-.308.2205s-.119.356-.119.6265c0 .4575.147.796.441 1.015" fill="#fff" mask="url(#b)"/><path d="m9.2085 24.994h14.909v-.5h-14.909z" fill="#a6e3fa" mask="url(#b)"/><path d="m9.2085 26.7935h14.909v-.5h-14.909z" fill="#a6e3fa" mask="url(#b)"/><path d="m9.2085 28.593h14.909v-.5h-14.909z" fill="#a6e3fa" mask="url(#b)"/><path d="m9.2085 30.3925h14.909v-.5h-14.909z" fill="#a6e3fa" mask="url(#b)"/><path d="m9.2085 32.1915h14.909v-.5h-14.909z" fill="#a6e3fa" mask="url(#b)"/><path d="m18.2295 18.9143c.2005 0 .3615-.0545.483-.1645.121-.1095.182-.2575.182-.4445 0-.154-.0535-.273-.161-.357s-.2475-.126-.42-.126c-.1915 0-.351.055-.4795.1645-.1285.11-.1925.2465-.1925.4095 0 .1635.049.2905.147.3815s.245.1365.441.1365" fill="#0074b8" mask="url(#b)"/><path d="m22.59375 18.7744c.1025-.574.2215-1.0545.357-1.442s.2565-.581.364-.581c.1305 0 .196.1775.196.532 0 .4525-.098.953-.294 1.5015s-.4595 1.0955-.791 1.6415c.0095-.527.065-1.078.168-1.652m-2.5625 0c.1025-.574.2215-1.0545.357-1.442s.2565-.581.364-.581c.1305 0 .196.1775.196.532 0 .4525-.098.953-.294 1.5015s-.4595 1.0955-.791 1.6415c.0095-.527.065-1.078.168-1.652m-4.178.476c-.294-.219-.4415-.5575-.4415-1.015 0-.2705.04-.4795.1195-.6265.079-.147.1815-.2205.3075-.2205.0885 0 .159.0455.2105.1365.051.091.0765.2345.0765.4305 0 .3405-.091.7725-.2725 1.295m7.8465 2.331c-.0515 0-.1025.0235-.154.07-.084.0745-.176.1355-.2765.182s-.19.07-.2695.07c-.145 0-.259-.042-.343-.126s-.1425-.2215-.175-.413c.5275-.714.944-1.437 1.2495-2.17.3055-.7325.4585-1.3765.4585-1.932 0-.387-.0645-.685-.1925-.8925-.1285-.2075-.3045-.3115-.5285-.3115-.3965 0-.7385.2615-1.0255.784-.287.523-.504 1.148-.651 1.876s-.2205 1.377-.2205 1.946c0 .1465.0065.286.019.4185-.061.0065-.117.035-.1665.0925-.224.266-.4085.454-.553.5635s-.3125.1645-.504.1645c-.1215 0-.2195-.041-.294-.1225s-.1285-.218-.161-.4095c.527-.7185.945-1.444 1.253-2.177.308-.7325.462-1.3765.462-1.932 0-.387-.0645-.685-.1925-.8925-.1285-.2075-.3045-.3115-.5285-.3115-.3965 0-.7385.2615-1.0255.784-.287.523-.504 1.148-.651 1.876s-.2205 1.377-.2205 1.946c0 .249.0215.4745.0565.685-.1375.1585-.2605.2935-.353.379-.126.117-.2315.175-.3155.175-.0885 0-.1515-.037-.189-.112-.037-.0745-.0555-.182-.0555-.322 0-.182.0555-.5295.168-1.043.0885-.4245.133-.695.133-.812 0-.1585-.1195-.238-.357-.238-.154 0-.266.028-.3365.084-.047.038-.0855.105-.12.185-.0445-.018-.096-.031-.163-.031-.322 0-.6025-.021-.8405-.063.2285-.644.343-1.2295.343-1.757 0-.3735-.087-.667-.262-.882-.1755-.2145-.412-.322-.7105-.322-.243 0-.4635.063-.662.189s-.3545.3165-.469.5705c-.1145.2545-.171.566-.171.9345s.072.694.2165.9765c.145.2825.3595.5125.644.6895-.2285.504-.4805.9255-.7555 1.2635-.2755.3385-.5255.5075-.749.5075-.1915 0-.3375-.0805-.4375-.2415-.101-.161-.168-.3955-.2035-.7035-.035-.308-.0525-.721-.0525-1.239 0-.7605.0655-1.5215.196-2.282.0095-.042.014-.1005.014-.175 0-.126-.0335-.2205-.101-.2835-.068-.063-.1745-.0945-.319-.0945-.1725 0-.309.041-.409.1225-.101.082-.1695.23-.207.4445-.1585.9335-.3525 1.737-.581 2.4115s-.4585 1.183-.6895 1.526c-.2305.343-.428.5145-.5915.5145-.1815 0-.3265-.1705-.4335-.511-.1075-.3405-.1615-.8235-.1615-1.449 0-.672.0705-1.4865.21-2.443.0095-.0935.0145-.1565.0145-.189 0-.1635-.0385-.275-.116-.336-.077-.0605-.185-.091-.3255-.091-.1865 0-.323.0455-.4095.1365-.086.091-.1455.253-.178.4865-.1215.8215-.1825 1.575-.1825 2.261 0 .9425.1145 1.693.343 2.2505.229.5575.5675.8365 1.0155.8365.3965 0 .771-.1985 1.1235-.595.352-.3965.6685-1.001.9485-1.813.0275.7325.1445 1.317.3495 1.7535.2055.4365.5135.6545.9245.6545.448 0 .9015-.23 1.3615-.6895.4595-.4595.8525-1.037 1.1795-1.7325.2935.0605.625.0885.9935.084.047-.001.0825-.015.122-.0245-.026.1235-.0515.2475-.073.378-.0535.329-.08.5985-.08.8085 0 .3545.0685.6395.206.854.138.2145.3585.322.662.322.344 0 .7115-.2205 1.1005-.6355.0115.0245.02.052.0325.0755.1985.3735.503.56.9135.56.2985 0 .566-.079.8015-.238.2355-.1585.454-.3615.6545-.609.021-.024.031-.0585.047-.087.0435.1355.0935.264.1565.3775.205.371.5295.5565.973.5565.308 0 .5835-.1.826-.301.14-.1165.21-.273.21-.469 0-.0885-.0175-.1645-.0525-.2275s-.0805-.0945-.1365-.0945" fill="#0074b8" mask="url(#b)"/></g><circle cx="594" cy="45" r="25" stroke="#fff" stroke-width="2"/><g transform="translate(613 20)"><g fill="#4cbef6"><path d="m23.6924 42.6311h4.474c-.094-.0975-.1565-.2255-.1565-.372 0-.157.067-.2975.1735-.397v-.0005l.37-.3365 1.1295-.6325c.001-.001.002-.002.0035-.003.2415-.249.384-.577.384-.924v-8.075h-.8215l-.4725-3.901c-.089-.7355-.064-1.4805.074-2.2085l.0235-.1225-.493.3265c.0075.055-.0085.103-.073.128-.037.0145-.2645.1795-.595.4265-.1825.1365-.2515 2.106-.275 4.021l.694 1.012c.1075.157.1335.3565.0695.536l-.766 2.1375v.008h-.003l-.0015.005-.0015-.005-.094.001.483.4395-.001.001c.045.042.074.1005.074.1665 0 .041-.014.0775-.033.111.0005.0005.0025.001.0025.0015-.004.008-.012.013-.0175.0205-.0095.013-.019.026-.0315.0365-.0095.009-.021.015-.032.022-.014.008-.027.016-.0425.0215-.0045.0015-.008.005-.0125.006v.0005c-.142.0385-.3755.063-.64.063-.434 0-.7855-.0665-.7855-.149v-.5165c0-.076.0185-.147.0485-.2125l-.126.0015.001-.0175.3395-1.19c.0585-.2065.001-.429-.1505-.5815l-.224-.2245c-.034-.0485-.075-.0915-.121-.128h-1.2205l-.4915.695c-.102.1445-.1345.3265-.088.4975l.4205 1.5575h-.0085c.016.0505.0315.1015.0315.157v.5165c0 .082-.3515.149-.785.149-.2645 0-.4985-.025-.6405-.063v-.0005c-.0045-.001-.008-.0045-.0125-.006-.015-.0055-.0285-.013-.042-.0215-.0115-.007-.0225-.013-.0325-.022-.012-.0105-.0215-.0235-.0315-.0365-.005-.0075-.013-.0125-.0175-.0205.0005-.0005.0025-.001.0025-.0015-.019-.0335-.0325-.07-.0325-.1115 0-.066.0285-.124.0735-.166l-.001-.001.394-.358h-.0325l-.917-1.912c-.0755-.157-.078-.3395-.007-.4985l.8565-1.92c-.0535-1.9795-.15-3.9175-.32-4.0445-.3135-.234-.5275-.389-.5635-.403-.0575-.0225-.075-.0635-.075-.11l-.3495-.2265v11.76h-.629v2.2765c.158.0745.3015.174.4215.2985l1.1675 1.0625.576.524-.0005.0005c.007.0065.012.015.019.0215.001.0005.002.001.003.001.0025.003.0035.007.006.0095.051.0545.0935.116.123.1855.002.004.0025.008.004.012.029.072.047.15.047.2325 0 .19-.0895.355-.2225.4705"/><path d="m17.1167 42.6311h2.474c-.045-.0325-.078-.0655-.078-.101v-.8275-.6005c0-.432.196-.815.4995-1.077v.0005-2.489h-.629v-10.5595c-.0415-.421-.3925-.751-.8245-.751-.4315 0-.7825.33-.8245.751v10.5595h-.6285v1.436 1.22c.0035-.001.0075-.0015.011-.0025v1.5865z"/><path d="m17.214 11.77-.0305.013c-.0015.0085-.001.018-.002.0265h.007.0255z"/><path d="m32.98195 41.4248v-.8935-.891-7.75h-1.3565v8.8335c0 .298.1705.7155.1705.9435v.91c0 .0185-.014.036-.0285.054h1.2145v-1.081z"/><path d="m35.4171 12.0796v.0025c0-.0005 0-.0015 0-.0025v-.0005z"/><path d="m35.329 10.99805h.0005c.0005.0025.001.0055.0015.008-.0005-.0025-.0015-.0055-.002-.008m-10.329-10.998c-13.807 0-25 11.193-25 25 0 6.8805 2.7805 13.1105 7.278 17.631h3.48c-.52 0-.942-.422-.942-.942 0-.373.2185-.6925.533-.845l-.0005-.0035.025-.01c.0165-.0075.0335-.0135.051-.02l4.6945-1.838c.2695-.095.45-.3495.45-.6355v-.8005h-.6285v-12.9515-.5985-1.503h-.0015v.036c-1.5105-.644-2.571-2.138-2.571-3.884v-2.0205c0-.0425.005-.0835.006-.1255.003.092.0045.184.013.274-.0125-.1335-.019-.269-.019-.4055 0-1.769 1.088-3.282 2.6305-3.912.038-.0155.0775-.0275.116-.042.079-.03.1575-.061.2395-.086.0035-.001.0075-.003.0115-.004v-.001l1.8485-.544v-1.057c-.329-.6365-.505-1.4555-.5835-2.131v.0005h-.054c-.2375-.051-.416-.2615-.416-.5145 0-.2185.137-.399.3265-.4785-.0125-.0135-.021-.0305-.0355-.0425l-.0455-1.0445c-.0085-.0765-.013-.1545-.013-.233 0-.0135.0005-.027.001-.04l-.0005-.0015h.0005c0-.0175.0005-.035.0015-.052 0-.006.0005-.0115.001-.0175.0005-.011.001-.0225.0015-.034l.0015-.0205c.001-.0105.002-.0205.0025-.031.001-.007.0015-.014.0025-.0215.001-.0095.002-.0195.003-.0295l.0025-.022c.001-.0095.0025-.019.0035-.0285.0015-.0075.0025-.0145.0035-.022.001-.01.003-.0195.0045-.0295.001-.0065.002-.014.0035-.0205.0025-.0155.0055-.0315.0085-.047.0015-.008.003-.016.005-.0245.0015-.008.003-.016.005-.024.002-.009.004-.0175.006-.026.0015-.0075.003-.015.005-.022.002-.009.0045-.018.0065-.027.002-.007.0035-.0135.0055-.0205.0025-.0095.005-.0185.0075-.0275l.0055-.019c.003-.0095.0055-.019.0085-.0285.002-.006.0035-.011.0055-.017.003-.01.006-.02.0095-.03.001-.003.002-.0055.0025-.008.009-.0265.018-.0525.028-.0785.061-.16.14-.3105.2345-.4495-.039-.078-.0965-.1455-.172-.1935-.07-.0455-.1485-.0695-.229-.0755.2435-.1745.5095-.2935.778-.3525-.0135-.034-.0295-.0675-.0505-.099-.047-.069-.1095-.122-.1815-.159.3-.067.599-.071.8745-.016-.0045-.033-.0115-.067-.024-.0995-.0285-.0785-.076-.145-.137-.198.3435.0085.93.106 1.4155.2925.0005 0 .0005 0 .001.0005l.0075.003c.019.007.0375.0145.056.0225.0095.0035.0185.0075.028.011.0175.008.0355.0155.053.0235.0095.004.0185.008.0275.0125.0175.0075.034.0155.0505.024.0095.004.0185.009.028.013.016.0085.032.0165.0475.025.009.005.018.0095.027.0145.0155.0085.0305.017.045.0255.009.0055.0175.0105.026.016.0145.0085.0285.017.042.026.0085.0055.0165.011.025.0165.013.0095.0265.0185.039.0275.008.0055.0155.0115.023.017.0125.0095.0245.019.0365.029.007.006.0135.0115.0205.0175.0115.01.0225.02.0335.03.006.006.012.012.018.018.0105.0105.021.021.0305.0315.005.006.01.012.015.018.0095.011.019.022.0275.0335.004.0055.007.0105.011.016.0085.0125.0175.0245.025.0375.002.0025.003.0055.0045.0085.0275.0465.0465.0955.057.146.001.0045.0025.009.0035.0135.002.0125.003.026.004.0385.0005.007.002.013.0025.0195.0085.001.017.003.0255.004.0285.004.056.008.083.013.012.002.024.0035.036.006.575.1095.881.44 1.004.9315-.074-.0315-.155-.0455-.238-.038-.0265.003-.0525.008-.078.015.001.004.002.008.0025.012.0015.008.0035.016.005.024.003.0155.006.0315.0085.047.0015.0065.0025.014.0035.0205.0015.01.003.0195.0045.0295.001.0075.002.0145.003.022.0015.0095.003.019.004.0285l.0025.022c.001.01.002.02.003.0295.001.0075.0015.0145.002.0215.001.0105.002.0205.0025.031l.0015.0205c.001.0115.0015.023.002.034.0005.006.001.0115.001.0175.0005.017.0015.0345.0015.052v.0015c.0005.013.0005.0265.0005.04 0 .074-.0035.1475-.011.2195l-.0425 1.055c-.0125.01-.022.023-.033.034.2045.072.355.2605.355.49 0 .253-.178.4635-.416.5145h-.06c-.0835.6555-.2635 1.4455-.577 2.0735v1.1215.033h.0295l.003.001c.0005.0025.001.0055.002.0085 0-.001-.0005-.002-.0005-.0025-.001-.0075-.001-.0155-.002-.023l1.8365.5405v.002c.001.0005.0025.001.0035.001.022.007.0425.016.0645.0235.1.0325.1985.0675.295.1075.057.024.112.051.1675.077.056.0265.113.052.168.081.068.0355.1345.074.2005.1135.038.0225.076.045.1135.0685.071.0455.1405.093.209.142.013.0095.0275.018.041.028-.0005.0005-.0005.0015-.0005.0025 1.039.7695 1.7155 2.001 1.7155 3.3935 0 1.06-.3535 2.0495-.9985 2.7905-.556.9095-1.3295 2.176-1.742 2.851.0355-.0585.077-.1265.1175-.193v.661h.002v1.503.364l1.556 1.006.083-.0155c.0115.023.0265.0445.039.0675-.399-.729-.264-1.6605.3825-2.238.011-.0095.024-.016.035-.0255.0005-.0005.001-.001.002-.001.282-.24.6155-.381.959-.422.573-.0705 1.169.1305 1.583.594.036.0405.0615.086.0935.1285.4205.562.4765 1.3.179 1.9025.001-.002.0025-.004.0035-.006.095.0135.085.016.085.016l1.997-1.286.1785-.941c-.9225-.717-1.691-1.691-1.9435-3.0765h.0095c-.051-.2775-.086-.5605-.086-.853 0-1.334.552-2.5385 1.4405-3.399-.0085-.0185-.022-.031-.03-.0505.0195.01.041.014.0605.023.1745-.1655.3605-.3185.558-.456-.001.008.0005.016-.001.0245.0145-.08.005-.1595-.022-.2335l-.001.001c-.051.0955-.137.181-.249.252-.4315.2715-.993.169-1.3375-.207-.1065-.116-.204-.2615-.2695-.4405.1665.087.351.131.5455.131.801 0 1.0055-.8455 1.0575-1.508-.118-.074-.257-.1005-.391-.062-.0755.022-.1415.0625-.1955.116.051-.53.2895-.995.6625-1.275.0085-.0625.017-.1245.027-.185.0435-2.4025 1.421-4.331 3.114-4.331 1.72 0 3.115 1.9915 3.115 4.449v.023.0075c.082 1.1205-.5155 2.84.411 3.8765h-.001c.9025.7825 1.485 1.926 1.485 3.204 0 .1385.0205.275.0075.4105.001.872-.0015 1.1665-.328 2.0525-.009.024-.0205.046-.0295.07-.0175.0435-.036.086-.055.129-.336.7905-.8825 1.428-1.546 1.8755l.395 2.083c.1385.728.163 1.473.074 2.2085l-.4725 3.901h-.821v7.8985c0 .2025.0895.389.2365.516l3.4715.567.444.174c.0355.011.07.025.103.0405l.0115.0045v.001c.2705.131.458.4075.458.729 0 .4475-.363.81-.8105.81h4.271c4.4975-4.5205 7.278-10.7505 7.278-17.631 0-13.807-11.193-25-25-25"/></g><path d="m31.45115.1311h-5.469-1.2145c-.016.02-.042.039-.075.058-.0035.002-.006.004-.0095.0055-.032.0175-.0705.0335-.115.0495-.01.003-.0195.0065-.03.01-.043.014-.09.0275-.1425.0405-.0195.0045-.0395.009-.06.0135-.05.011-.1015.0215-.1575.031-.032.0055-.0655.0105-.0995.0155-.052.008-.1035.0155-.16.0225-.0475.0055-.098.0105-.1485.015-.0495.005-.0975.01-.15.014-.0665.005-.137.0085-.207.0125-.0425.002-.0825.0045-.1255.0065-.1165.0045-.236.007-.359.007-.6295 0-1.185-.0595-1.5235-.15v-.001c-.0485-.0135-.0925-.0355-.1335-.062-.0395-.0245-.073-.0545-.105-.088h-.0005-4.474c-.03.026-.061.05-.0955.0705-.044.0275-.09.051-.1415.0655v.001c-.3935.1055-1.0395.1745-1.771.1745-.136 0-.2675-.003-.3965-.008-.04-.001-.078-.003-.1175-.005-.0895-.004-.177-.009-.262-.0155-.0395-.0025-.078-.0055-.116-.009-.0935-.008-.183-.017-.2685-.0275-.021-.0025-.044-.0045-.065-.007-.102-.0135-.197-.029-.286-.045-.027-.005-.0505-.0105-.0765-.016-.06-.012-.117-.025-.169-.039-.026-.0065-.051-.014-.075-.021-.048-.0145-.0895-.029-.128-.0445-.0165-.0065-.035-.013-.0495-.02-.004-.002-.01-.0035-.014-.005.0005-.001.001-.0015.0015-.0025-.0305-.015-.0495-.031-.0715-.0465h-2.474-6.3585-3.4805c4.528 4.551 10.7955 7.369 17.7225 7.369 6.9265 0 13.1945-2.818 17.722-7.369z" fill="#a6e3fa" mask="url(#c)" transform="translate(7 42.5)"/><path d="m16.57665 7.7522v-.057c-.026-.039-.058-.073-.0895-.1065-.1895.0795-.3265.26-.3265.4785 0 .2525.178.4635.416.5145h.054c-.0375-.3215-.054-.611-.054-.8295" fill="#a6e3fa"/><path d="m20.65025 7.57715c-.021.0205-.0425.04-.0605.0625v.1125c0 .219-.019.508-.06.8295h.06c.2375-.051.416-.262.416-.5145 0-.2295-.1505-.418-.3555-.49" fill="#a6e3fa"/><path d="m14.9396 16.76345h-2.5525c-.0085-.09-.01-.182-.013-.2735-.001.042-.0065.083-.0065.125v2.0205c0 1.746 1.061 3.24 2.5715 3.884z" fill="#a6e3fa"/><path d="m19.98475 11.8103-.003-.001h-.0295v-.033l-2.5585 1.4375c.213.3285.5765.686 1.1895 1.15 1.252-.9445 1.469-1.449 1.469-2.1655 0-.135-.024-.2655-.0675-.388" fill="#a6e3fa"/><path d="m23.083 12.98045c0-.0005 0-.0015 0-.0025-.013-.0095-.0275-.0185-.0405-.028-.0685-.049-.138-.0965-.209-.142-.0375-.0235-.0755-.046-.1135-.0685-.066-.0395-.1325-.078-.2005-.1135-.055-.029-.112-.0545-.168-.081-.0555-.0255-.1105-.053-.1675-.0765-.0965-.04-.195-.0755-.295-.108-.022-.0075-.0425-.0165-.0645-.0235-.0015 0-.0025-.0005-.0035-.001v-.0015l-1.8365-.541c.001.0075.0005.0155.002.023.042.121.0655.249.0655.382 0 .7165-.217 1.221-1.469 2.1655-1.248-.9445-1.469-1.449-1.469-2.1655 0-.1345.0235-.2665.0665-.389h.001c.001-.0085.0005-.0175.002-.0265l.0305-.013v-.001l-1.849.544v.001c-.0035.001-.0075.003-.011.004-.082.025-.1605.0565-.24.086-.038.0145-.078.0265-.1155.0425-1.5425.6295-2.6305 2.1425-2.6305 3.9115 0 .1365.0065.272.019.4055h2.5525l-.001 5.72h3.2405l.5715-.949c.1445-.2405.4535-.318.696-.18l2.1645-3.5415 2.189 1.3515c.645-.741.9985-1.7305.9985-2.7905 0-1.3925-.6765-2.6235-1.7155-3.3935" fill="#0074b8"/><path d="m22.05785 22.0154c-.073.1195-.182.282-.3135.468h.431v-.6605c-.0405.0665-.082.134-.1175.1925" fill="#0074b8"/><path d="m21.6111 17.81275-2.1645 3.5415c-.2425-.1375-.5515-.06-.696.18l-1.045 1.735.0945.057c.1915.1155.4405.0535.556-.138l-.1575.262c-.299.496.138.696.6455.9835.288.1625.5275.318.7365.3235.059.012.1225.0075.1965-.0355.5845-.3405 1.903-2.0885 2.281-2.7065.4125-.675 1.186-1.941 1.742-2.8505z" fill="#a6e3fa"/><path d="m19.18775 22.708-.872 1.4385.0915.065.876-1.4455z" fill="#4cbef6"/><path d="m19.6294 22.97435-.8775 1.447.044.028.023-.0305-.012.0365.0405.024.878-1.4475z" fill="#4cbef6"/><path d="m20.0713 23.24025-.8555 1.411-.0215.035.1005.0495.872-1.4375z" fill="#4cbef6"/><path d="m18.7932 22.5354-.0955-.058-.581.964.1445-.1c.053-.037.096-.082.127-.134z" fill="#4cbef6"/><path d="m33.65565 14.51415.042.043c-.0015-.0085-.001-.0175-.0025-.026z" fill="#fff"/><path d="m33.65565 14.51415.042.043c-.0015-.0085-.001-.0175-.0025-.026z" fill="#fff"/><path d="m35.81875 19.5708-.717 2.7585.2595 1.3685c.664-.4475 1.21-1.085 1.546-1.875.019-.043.0375-.0855.055-.129.009-.024.021-.046.0295-.07.3265-.886.329-1.1805.3285-2.053z" fill="#a6e3fa"/><path d="m31.3523 12.69875c.018.019.018.019 0 0" fill="#a6e3fa"/><path d="m35.329 10.99805c.0005.0025.0015.0055.002.008-.0005-.0025-.001-.0055-.0015-.008z" fill="#035c8a"/><path d="m35.41675 12.073c0 .002 0 .0045.0005.007v-.007z" fill="#035c8a"/><path d="m35.41725 12.07985c-.004.8355-.169 1.6155-.4535 2.281 0 .001 0 .0015-.0005.002-.0035.0085-.007.016-.0105.024-.0025.0065-.0055.013-.008.019h-.0005c-.0985.225-.21.4365-.3345.632-.1965.24-.4385.401-.6795.457-.0125.003-.025.0055-.037.008-.0105.002-.021.0035-.0315.005-.012.0015-.0235.0035-.035.0045-.0155.002-.031.0025-.046.0035-.014.0005-.027.0005-.0405.0005-.0145 0-.0285-.0005-.043-.0015-.009-.0005-.018-.0015-.027-.0025-.0135-.0015-.027-.0035-.0405-.0055-.0085-.0015-.017-.003-.0255-.0045-.015-.0035-.0295-.0065-.044-.011-.007-.002-.014-.0035-.021-.0055-.0215-.007-.0425-.014-.0635-.023-.0035-.0015-.0065-.0035-.01-.005-.019-.0085-.038-.0175-.0565-.0275-.0185-.0105-.0365-.0225-.0545-.0345-.002-.0015-.0045-.003-.007-.0045-.0395-.028-.076-.0605-.1095-.0965-.07-.0745-.1265-.1655-.1685-.268-.0045-.0085-.009-.017-.0135-.0255-.0015-.003-.003-.0055-.0045-.0085-.0765.3185-.1975.81-.0545 1.2905-.184.0935-.387.147-.6015.1505-.022.0005-.0445 0-.0665-.001-.0245-.0005-.049-.0025-.073-.0045-.003 0-.0065-.0005-.0095-.0005-.022-.0025-.0445-.005-.0665-.008-.005-.001-.0105-.0015-.0155-.0025-.0205-.003-.0405-.0065-.0605-.0105-.0075-.0015-.0145-.003-.0215-.0045-.0185-.004-.037-.0085-.055-.013-.009-.0025-.018-.0055-.027-.0075-.0165-.005-.0325-.0095-.0485-.0145-.0115-.004-.023-.008-.0345-.012-.0135-.0045-.027-.0095-.041-.015-.0145-.0055-.029-.012-.0435-.018-.01-.0045-.0205-.0085-.0305-.013-.025-.011-.0495-.023-.0735-.0355h.0005c.0185.0445.038.0875.059.129.0025.005.005.0105.0075.0155.02.039.0415.077.0635.114.0035.006.0075.013.0115.019.022.036.0445.0705.0685.104.004.0065.0085.012.0125.018.0245.0335.0495.0665.0755.0975.0035.004.007.008.0105.012.0275.0325.0555.064.0845.094 0 0 .0005 0 .0005.0005.0295.03.0595.0585.0905.086.0035.003.0075.0065.011.01.0295.0255.06.0505.0905.074.0055.0035.0105.008.016.0115.0305.023.0615.0445.093.065.005.004.0105.0075.016.0105.0325.0205.065.04.098.0585.004.002.008.004.012.006.0705.038.143.071.2165.0985.004.0015.0075.003.0115.0045.0355.013.071.025.107.0355.005.002.0105.0035.016.005.0355.01.0715.0195.107.0275.0055.0015.0105.002.0155.0035.037.008.074.015.111.0205.003.0005.006.0005.009.001.0785.0115.1565.018.235.0195h.0075c.038.0005.076 0 .1135-.002.004 0 .0075-.0005.0115-.0005.0375-.002.0745-.0055.112-.0095.003-.0005.0065-.001.01-.0015.038-.0045.0755-.0105.113-.0175l.0035-.001c.0775-.0145.154-.035.2285-.06l.002-.001c.036-.012.072-.026.1075-.0405.002-.001.004-.002.006-.003.0345-.0145.069-.0305.1025-.0475.0015-.001.003-.002.005-.0025.1385-.072.266-.1635.3755-.274.001-.0015.002-.002.003-.0035.027-.027.0525-.0555.077-.085.001-.001.002-.002.003-.0035.1-.1205.1815-.261.238-.419.0005-.001.001-.002.0015-.003.001-.004.0025-.008.004-.012.0005-.0015.001-.0035.0015-.005.0045-.012.008-.024.012-.036.0015-.005.003-.01.0045-.0155.001-.0015.001-.0035.0015-.0055.0175-.0585.0315-.119.042-.182.0015-.0065.0025-.013.0035-.02.0035-.024.007-.049.0095-.074.001-.0085.002-.017.003-.0255.003-.032.005-.064.0065-.0965.017.001.0335.003.05.0055.005.0005.0095.0015.0145.0025.012.002.0245.0045.0365.0075.0045.001.0095.0025.014.0035.014.004.028.008.042.013.002.0005.004.0015.006.002.016.006.032.013.048.0205.005.0025.01.0055.0155.008.0065.004.0135.0075.02.011.0065.004.013.0085.0195.0125.0055.0035.0105.0065.016.01.0105.0075.021.0155.031.024.001.0005.002.001.0025.002h.0005c.009.0075.0165.016.025.0235.01.0095.02.0185.029.029.006.006.011.013.0165.02.008.0095.0165.0195.024.03.0065.009.012.019.018.0285.005.0085.011.0165.016.0255.01.0195.0195.0385.0275.0585.007-.0225.059-.4465.3695-.348-.927-1.0365-.3295-2.7565-.4115-3.877" fill="#035c8a"/><path d="m31.4093 15.4741c-.005.2425-.123.533-.2275.7055 0 0 .97 1.7235 1.1475 1.7235.1545 0 .483-.59.483-.59-.011-.004-.023-.007-.034-.011-.004-.0015-.008-.0035-.0115-.005-.074-.0275-.146-.0605-.2165-.098-.004-.0025-.008-.0045-.012-.0065-.033-.018-.066-.0375-.098-.058-.0055-.0035-.011-.007-.016-.0105-.0315-.0205-.0625-.0425-.093-.065-.0055-.004-.0105-.008-.016-.012-.031-.0235-.061-.048-.0905-.0735-.0035-.0035-.0075-.007-.011-.0105-.031-.0275-.061-.056-.0905-.086 0 0-.0005 0-.0005-.0005-.029-.0295-.0575-.061-.0845-.0935-.0035-.0045-.007-.008-.0105-.012-.026-.0315-.051-.064-.0755-.098-.004-.0055-.0085-.0115-.0125-.0175-.024-.0335-.0465-.068-.0685-.104-.004-.0065-.008-.013-.012-.0195-.022-.037-.043-.0745-.063-.114-.0025-.005-.005-.0105-.0075-.0155-.021-.0415-.041-.0845-.0595-.1285v-.0005c.024.013.0485.0245.0735.0355.01.005.02.0085.03.013.015.006.0295.0125.044.0185.0135.005.0275.01.041.0145.0115.0045.023.008.0345.012.016.005.032.01.048.0145.0095.0025.0185.005.0275.0075.018.0045.0365.009.0545.013.0075.0015.0145.003.0215.0045.02.004.0405.0075.061.011.005.0005.01.0015.0155.002.022.003.044.006.0665.008.003.0005.006.0005.0095.001.024.002.0485.0035.073.004.022.001.044.0015.0665.001.2145-.003.4175-.057.6015-.1505-.1435-.4805-.022-.9715.0545-1.29.0015.0025.003.0055.0045.008.0045.0085.009.017.0135.0255.042.103.0985.1935.1685.2685.0335.036.07.068.1095.096.0025.002.005.003.007.0045.018.0125.036.024.0545.035.0185.01.037.019.0565.027.0035.002.0065.004.01.0055.021.0085.042.016.0635.0225l.021.006c.0145.004.029.0075.0435.0105.0085.002.0175.003.026.0045.013.0025.0265.004.04.0055v-1.4485l-2.243 1.2665c-.0045.05-.01.0985-.0175.144" fill="#a6e3fa"/><path d="m33.09655 13.85695c-.077.0875-.1735.156-.283.196-.1635.0595-.3345.0915-.5115.0915-.1765 0-.3475-.032-.511-.0915-.1095-.04-.206-.1085-.283-.196-.095-.108-.244-.277-.3955-.449.014.0395.028.0795.041.1195.227.6855.316 1.3355.2735 1.803l2.2425-1.2665v-.8575z" fill="#035c8a"/><path d="m33.43005 15.44045c.0115.006.0235.012.0355.0175-.012-.0055-.024-.0115-.0355-.0175" fill="#0074b8"/><path d="m30.05055 12.2019c-.041.071-.0555.15-.042.2235.013.0705.051.127.1065.1595.056.032.1235.0365.191.013.071-.0255.132-.078.173-.1485.0055-.01.014-.0165.024-.021l-.0225-.1155c-.099-.0395-.19-.1355-.2665-.2555-.0655.026-.1245.077-.1635.1445" fill="#0074b8"/><path d="m34.1338 12.30785c-.014.0655-.027.128-.039.185.004-.0185.008-.0375.012-.057.0105.0045.02.0115.026.022.0825.1425.246.2035.364.1355.118-.0685.147-.24.0645-.383-.0415-.0715-.1045-.124-.175-.1485-.073.1135-.159.2045-.2525.246" fill="#0074b8"/><path d="m33.2522 12.69875c-.018.019-.018.019 0 0" fill="#a6e3fa"/><path d="m31.3523 12.69875c.018.019.018.019 0 0" fill="#a6e3fa"/><path d="m33.6979 14.5576h-.0005z" fill="#fff"/><path d="m32.8385 22.63625.048-.086-1.5785-.8795c-.2215-.1235-.502-.044-.6255.178l-.0025-.0015-.0625.112c-.6475-.4935-1.224-1.11-1.605-1.904l-1.6025-.0015c.387 2.1265 1.989 3.2875 3.5 4.0285l.763.425c.438.2435.593-.12.8485-.551.266-.447.515-.796.064-1.0475l-.2385-.1325c.174.097.3945.0345.4915-.14" fill="#a6e3fa"/><path d="m30.9939 23.66625 1.3145.73.059-.0905-1.3215-.734z" fill="#4cbef6"/><path d="m31.27025 23.1699-.0525.094 1.291.7175.0405.0035.044-.08-1.2905-.7165z" fill="#4cbef6"/><path d="m31.52685 22.7864-.0325-.0185-.053.0945 1.322.734.045-.0985z" fill="#4cbef6"/><path d="m32.48855 22.85645.1735.0145-.896-.499-.0525.0945.615.3425c.0475.0265.1015.0425.16.0475" fill="#4cbef6"/><path d="m28.5532 41.52515-.37.3365.0005.0005c-.1065.0995-.1735.24-.1735.397 0 .2485.167.458.395.522v.001c.3385.0905.894.1495 1.5235.1495 1.0315 0 1.8675-.1585 1.8675-.3545v-.9095c-1.388.291-2.5785.3525-3.243-.1425" fill="#0074b8"/><path d="m15.5691 37.5366v.8005c0 .2855-.1805.5405-.45.6355 0 1.041.364 1.379.904 1.379.3895 0 .756-.0585 1.0825-.159v-1.22-1.436z" fill="#a6e3fa"/><path d="m15.119 41.65725v.0315h.2535c-.086-.0085-.1685-.0215-.2535-.0315" fill="#a6e3fa"/><path d="m13.94005 41.47365c-.088-.0175-.175-.0365-.2615-.0555-.453-.1-.888-.217-1.2945-.356-.4505-.1535-.8695-.33-1.2525-.5285l-.707.277c-.0175.0065-.0345.0125-.051.02l-.0255.01.001.0035c-.3145.1525-.533.472-.533.845 0 .52.4215.942.942.942h6.3585v-.8545c-.5845 0-1.155-.0285-1.706-.083-.509-.0505-.999-.126-1.4705-.22" fill="#fff"/><path d="m16.0232 40.3518c-.54 0-.904-.338-.904-1.379l-3.9875 1.561c1.531.792 3.647 1.243 5.985 1.243v-1.5865c-.329.1025-.7.1615-1.0935.1615" fill="#0074b8"/><path d="m20.94115 39.6736c.218 0 .4225.052.6075.1395v-2.2765h-1.5365v2.489c.25-.2165.5725-.352.929-.352" fill="#a6e3fa"/><path d="m28.5532 41.52515c.025.0185.0515.036.078.0535.6775.436 1.8295.369 3.165.089 0-.228-.171-.646-.171-.944v-8.873h-1.555v8.115c0 .347-.1425.675-.384.924-.001.001-.0025.002-.0035.0035z" fill="#a6e3fa"/><path d="m29.36255 15.31785c-.198.1375-.384.291-.558.4565.151.0685.313.111.485.108.354-.006.7455-.089.8975-.4525.03-.1125.0365-.2375.0265-.3705-.242.239-.5715.4095-.9445.487.0465-.0585.079-.1275.0925-.204.0015-.008 0-.016.001-.0245" fill="#fff"/><path d="m37.3125 19.1604c0-1.278-.5825-2.421-1.485-3.2035-.309-.0975-.361.3255-.3685.348-.008-.02-.017-.0395-.0275-.0585-.0045-.009-.0105-.017-.016-.0255-.006-.0095-.011-.0195-.0175-.0285-.0075-.0105-.016-.0205-.0245-.0305-.0055-.0065-.0105-.0135-.016-.02-.009-.01-.019-.019-.029-.0285-.0045-.004-.0085-.0075-.013-.0115-.004-.004-.008-.0085-.0125-.012v-.0005c-.001-.0005-.002-.001-.003-.002-.005-.004-.01-.0075-.0155-.0115-.005-.004-.01-.0085-.0155-.012-.0025-.0015-.005-.0035-.008-.005-.0025-.0015-.005-.003-.0075-.005-.0065-.004-.013-.0085-.0195-.0125-.0035-.002-.007-.0035-.0105-.0055-.0035-.0015-.0065-.0035-.01-.0055-.0025-.0015-.005-.0025-.008-.004-.0025-.0015-.005-.0025-.0075-.004-.0155-.008-.0315-.0145-.048-.0205-.002-.001-.004-.0015-.006-.002-.0135-.005-.0275-.0095-.0415-.013-.005-.0015-.0095-.0025-.014-.0035-.0125-.003-.0245-.0055-.037-.008-.0045-.0005-.0095-.0015-.014-.0025-.0085-.001-.0165-.0015-.025-.0025s-.017-.002-.025-.0025c-.0015.0325-.004.0645-.007.0965-.0005.004-.001.0085-.0015.0125 0 .0045-.0005.0085-.001.013-.003.025-.006.0495-.01.074-.001.007-.002.0135-.003.02-.0105.063-.0245.1235-.042.182-.0005.002-.001.0035-.0015.0055-.0015.0055-.0035.01-.005.0155-.0035.012-.0075.024-.0115.036-.0005.0015-.001.003-.0015.005-.0015.0035-.003.0075-.0045.012-.0005.001-.001.002-.0015.0025-.028.0795-.0625.154-.1025.224s-.0855.135-.1355.1955c-.001.001-.0015.0025-.0025.0035-.0245.0295-.0505.058-.0775.085l-.0025.003c-.055.0555-.1145.106-.177.152-.063.0455-.1295.0865-.199.122-.0015.001-.003.002-.0045.003-.034.017-.068.033-.103.0475-.002.001-.004.002-.006.003-.0355.0145-.071.028-.1075.0405-.0005.0005-.001.0005-.0015.001-.0375.0125-.0765.02-.1145.03-.0385.01-.0755.0225-.1145.03-.0005 0-.001.0005-.0015.0005s-.001 0-.002.0005c-.037.007-.075.0125-.1125.0175-.0035 0-.007.0005-.0105.001-.037.0045-.074.008-.1115.0095-.004.0005-.008.0005-.0115.001-.038.0015-.076.0025-.114.002-.0025 0-.005 0-.0075 0-.039-.001-.078-.0065-.1175-.01-.039-.003-.078-.004-.117-.0095-.003-.0005-.0065-.0005-.0095-.001-.037-.006-.074-.013-.1105-.0205-.005-.0015-.0105-.0025-.0155-.0035-.036-.008-.0715-.0175-.1075-.0275-.005-.002-.0105-.0035-.016-.005-.0245-.0075-.0485-.016-.0725-.024 0 0-.3285.5895-.483.5895-.1775 0-1.1475-1.7235-1.1475-1.7235.0055-.009.011-.0215.0165-.031-.0005-.0015-.001-.0025-.002-.0035-.531.7745-1.9225.7445-2.4225-.343-.8885.86-1.4405 2.065-1.4405 3.399 0 .2925.035.575.086.853l1.593.0015c.381.794.9575 1.4105 1.605 1.904l.0625-.112.0025.001c.1235-.2215.404-.3015.6255-.1775l1.148.6395h2.642l.0035.019.717-2.7585h1.5015c.013-.1355-.0075-.272-.0075-.4105" fill="#fff"/><path d="m32.30225 7.6006c-1.693 0-3.0705 1.9285-3.114 4.331-.0095.0605-.0185.1225-.0265.185-.373.28-.6115.745-.6625 1.275.054-.0535.12-.094.1955-.116.1335-.039.2725-.012.391.062-.052.6625-.257 1.508-1.058 1.508-.1945 0-.379-.044-.545-.131.0655.179.163.324.2695.4405.344.376.9055.478 1.337.2065.112-.0705.1985-.1565.249-.2515l.0015-.001c.0265.074.036.1535.022.2335-.0135.0765-.046.145-.093.204.3735-.0775.7025-.248.945-.487.0095.133.0035.2575-.0265.3705-.1525.363-.544.4465-.898.452-.194.0035-.379-.0435-.545-.131.487 1.168 1.982 1.189 2.4925.3465.0125-.0205.024-.0415.0355-.0635.0105-.0195.026-.0525.035-.0725v-.0005c.01-.023.0195-.047.028-.071l.0025-.0065c.007-.021.014-.042.02-.0635.0015-.005.003-.0105.0045-.015.006-.023.012-.046.017-.069l.001-.0045c.0055-.025.01-.05.0135-.076.001-.006.002-.0125.0025-.019.003-.0195.005-.0395.007-.06.001-.0075.0015-.015.002-.022.002-.0265.0035-.0535.004-.0805.004-.024.0075-.049.0105-.0735.0025-.023.005-.0465.0075-.0705.0205-.2285.01-.5005-.033-.799-.0015-.0085-.0025-.017-.0035-.026-.0045-.027-.0085-.054-.0135-.0815-.002-.014-.0045-.0285-.007-.043-.0045-.0245-.009-.0495-.0135-.074-.0035-.018-.007-.0355-.0105-.0535-.0045-.023-.009-.0465-.014-.0695-.0045-.02-.009-.0405-.0135-.0605-.005-.022-.01-.0435-.015-.066-.0055-.022-.011-.0445-.0165-.067-.005-.021-.01-.0415-.0155-.0625-.0065-.0245-.013-.0495-.02-.0745-.0055-.019-.0105-.038-.0155-.057-.0085-.029-.017-.058-.026-.087-.0045-.0155-.009-.031-.0135-.0465-.014-.0445-.028-.09-.043-.135-.0135-.0405-.027-.08-.041-.1195-.0255-.029-.32-.3635-.4355-.4945-.068-.0775-.1145-.172-.134-.273l-.019-.101.0055.029c-.0505.061-.115.107-.1865.1325-.041.0145-.082.0215-.122.0215-.057 0-.1115-.014-.161-.0425-.084-.0485-.141-.132-.16-.2345-.0185-.0995.0015-.2055.055-.2985.0485-.084.121-.1485.2025-.185-.1135-.2155-.1845-.477-.1845-.6485 0-.1885.0895-.31.2245-.3835.0265.127.0605.252.084.3735.2515-.35.5325-.6065.826-.7625.0325-.017.0645-.0335.0965-.048.32-.1495.6485-.4295.875-.702.0695-.0855.1335-.175.192-.269.0115-.02.023-.04.0325-.059h.001l.0025.0005c-.0005.0005-.001.001-.0015.0015.1105.1875.243.3595.3945.514.015.015.03.0305.046.0455.002.002.004.0035.0055.0055.0655.0625.135.123.2065.18.0125.0095.025.0195.0375.029.008.0065.016.012.024.018.114.0845.235.1595.362.225.007.0035.0145.0075.022.011.023.0105.046.022.0695.034.3005.1545.594.416.8525.7765.0235-.1205.0575-.245.084-.371.1325.0735.2205.1945.2205.381 0 .172-.072.4355-.187.6515.0865.0355.1625.103.213.19.113.1955.066.435-.1045.533-.05.029-.105.0425-.161.0425-.114 0-.2305-.0575-.3125-.1595-.0055.027-.0105.052-.0155.075-.0205.098-.066.1885-.132.2635l-.261.2965v.8575 1.4485c-.0135-.0015-.027-.003-.04-.005.0135.002.027.0035.0405.005.009.001.018.002.027.003.0145.001.0285.001.043.001.0135.0005.027 0 .0405-.0005.015-.0005.0305-.0015.046-.003.0115-.0015.0235-.003.035-.005.0105-.0015.021-.003.0315-.005.012-.0025.0245-.005.037-.0075.241-.056.483-.2175.6795-.4575.1245-.1955.236-.407.3345-.632h.0005c.003-.0065.0055-.0125.008-.0185l.0105-.0245c.0005-.0005.0005-.001.0005-.0015.1245-.291.226-.604.301-.934 0 0 .0005-.001.0005-.001.0315-.1395.0585-.282.0805-.427.001-.0035.0015-.007.002-.011.0145-.0955.0265-.192.0365-.2895.0005-.0035.0005-.007.001-.01.0045-.045.0085-.09.012-.1355.0005-.005.001-.0105.0015-.0155.0075-.097.0125-.195.0155-.294.0005-.0135.0005-.027.001-.04.0015-.041.0015-.0825.002-.124 0-.01 0-.0205 0-.0305 0-2.457-1.3945-4.4485-3.115-4.4485" fill="#0074b8"/><path d="m23.58535 34.89085-.394.3585.001.001c-.0445.0415-.0735.1-.0735.166 0 .041.0135.078.033.111-.0005.0005-.0025.001-.003.0015.0045.008.0125.0135.018.0205.0095.0135.019.026.031.037.01.0085.021.0145.0325.0215.0135.0085.027.0165.0425.022.004.001.0075.0045.012.006.142.038.376.0635.6405.0635.4335 0 .785-.067.785-.1495v-.516c0-.056-.0155-.107-.0315-.157z" fill="#fff"/><path d="m27.81765 34.6958.001-.001-.4835-.44-.9875.012c-.0295.065-.048.1365-.048.2125v.5165c0 .082.3515.149.785.149.2645 0 .4985-.025.6405-.063v-.0005c.0045-.001.008-.0045.012-.006.0155-.0055.029-.0135.0425-.022.0115-.0065.0225-.013.0325-.0215.012-.011.0215-.0235.0315-.0365.005-.0075.013-.0125.0175-.0205-.0005-.0005-.002-.001-.0025-.0015.019-.0335.0325-.07.0325-.111 0-.0665-.0285-.125-.0735-.1665" fill="#fff"/><path d="m28.13185 31.57275-.694-1.012h-3.952l-.857 1.9195c-.071.1595-.0685.342.007.499l.9175 1.912 1.134-.0145-.4205-1.5575c-.0465-.171-.014-.353.0885-.4975l.491-.695h1.2205c.046.0365.087.0795.121.1275l.224.225c.152.1525.2095.375.1505.582l-.3395 1.1895-.001.018 1.2075-.015.0015.0055.0015-.0055h.003s0-.0025 0-.0075l.7655-2.1375c.0645-.1795.039-.379-.069-.536" fill="#035c8a"/><path d="m25.5559 26.3994c.1345-.121.1625-.3105.0895-.4665-.081.0665-.184.106-.297.1-.148-.0085-.268-.095-.3395-.213-.0695.069-.114.159-.1195.258-.006.107.03.2095.101.2895.032.0355.0705.0625.1115.084.0685.022.1385.038.21.0425.09-.005.176-.0335.244-.0945" fill="#fff"/><path d="m26.04115 25.0039c-.3295-.369-.896-.401-1.2655-.0715-.355.318-.3945.8535-.1025 1.2225-.0025-.03-.014-.0585-.012-.0895.0095-.168.0835-.322.209-.434.022-.0195.049-.0265.0725-.0425.0005-.004-.0015-.008-.0015-.012.0135-.239.2175-.421.456-.4075.2385.013.421.2175.4075.456-.002.0335-.0155.0625-.0245.094.1425.184.17.423.0835.6275.0365-.024.073-.048.1065-.0775.369-.33.4005-.8965.071-1.2655" fill="#fff"/><path d="m20.33425 24.5852.8295-.89 1.0135.655v-.364-1.503h-.433c-.5475.7745-1.4955 1.964-1.9675 2.2385-.0735.043-.137.0475-.1965.0355-.2085-.0055-.4485-.161-.7365-.3235-.5075-.287-.944-.4875-.6455-.9835l.158-.262c-.1155.1915-.3645.2535-.556.138l-.095-.057.4735-.786h-3.2385v1.503.599 12.9515h2.794v-10.5595c.042-.421.3925-.751.8245-.751s.783.33.8245.751v10.5595h2.794v-11.76z" fill="#fff"/><path d="m22.7898 25.68235s.277-.177.7425-.288c.067-.0155.134-.0265.2015-.038l-2.57-1.661-.8295.89 2.1925 1.4175c-.0005-.089.087-.2075.263-.3205" fill="#a6e3fa"/><path d="m35.7566 25.78125-.6585-3.471h-2.642l.4305.24-.048.086c-.097.1745-.3175.237-.4915.14l.238.1325c.4515.2515.2025.6005-.0635 1.0475-.2555.431-.411.7945-.8485.551l-.763-.425c-.5265-.2585-1.063-.5695-1.5565-.9525l-.1785.9415.4945-.3185 1.0725.6685-1.8685 1.2375-.023.1225c-.138.728-.163 1.4725-.074 2.2085l.4725 3.9005h6.109l.4725-3.9005c.089-.736.064-1.4805-.074-2.2085" fill="#0074b8"/><path d="m27.37745 25.39455c.4655.111.7425.288.7425.288.1645.1055.2495.2155.261.3025l2.361-1.5635-1.0725-.6685-2.4915 1.604c.0665.011.133.0215.1995.0375" fill="#a6e3fa"/><path d="m28.11985 25.68235s-.277-.177-.7425-.288c-.0945-.0225-.1895-.04-.284-.0535-.101.2045-.2415.3935-.4215.5545-.215.192-.464.317-.724.39-.027.0215-.0555.042-.0845.0615-.035.082-.084.1595-.155.223-.1165.104-.2635.16-.4185.16-.012 0-.024-.0005-.036-.001-.168-.0095-.322-.0835-.434-.209-.0835-.094-.1235-.2105-.139-.3325-.2175-.1015-.4185-.247-.5885-.4375-.113-.126-.2045-.264-.276-.409-.0945.0135-.1895.031-.2845.0535-.465.111-.742.288-.742.288-.269.1725-.354.366-.188.4305.036.0145.25.1695.5635.403.17.127.2665 2.065.32 4.0445h3.9525c.0235-1.9145.0925-3.8845.275-4.021.3305-.247.558-.4115.595-.4265.1655-.0645.081-.258-.188-.4305" fill="#0074b8"/><path d="m38.80335 41.09205v-.001l-.0115-.0045c-.033-.0155-.067-.0295-.1025-.0405l-.4445-.1735c-.577.4385-1.458.633-2.515.678h-2.748v1.0805h5.469.0005c.4475 0 .81-.3625.81-.81 0-.3215-.187-.598-.458-.729" fill="#0074b8"/><path d="m34.77355 40.3052c-.147-.127-.2365-.3135-.2365-.516v-7.9385h-1.555v7.7895.8915.893.1255h2.7475c1.057-.0445 1.9385-.239 2.515-.678z" fill="#a6e3fa"/><path d="m23.86805 41.9282c-.0015-.004-.0025-.0085-.004-.012-.0295-.07-.072-.1315-.123-.1855-.0025-.0025-.0035-.0065-.0065-.0095-.001-.0005-.002-.001-.003-.001-.0065-.007-.012-.015-.0185-.0215v-.0005l-.576-.524c-.076.094-.1585.1815-.247.2625-.9105-.227-1.739-.1555-2.389.2745-.0985.0655-.19.139-.2765.218-.233-.058-.4695-.1305-.7115-.227v.828c0 .0525.056.1015.149.1475-.0005.0005-.001.001-.0015.002.004.002.01.0035.014.0055.0145.007.033.0135.0495.02.0385.015.0805.03.128.0445.024.007.049.014.075.021.052.0135.109.0265.1695.039.0255.005.049.011.076.0155.089.0165.184.0315.2865.045.0205.003.0435.005.0645.0075.086.01.175.0195.2685.0275.038.003.077.006.116.009.085.006.1725.0115.262.0155.0395.0015.0775.004.1175.005.129.0045.2605.0075.3965.0075.732 0 1.3775-.0685 1.771-.174v-.001c.265-.0745.46-.318.46-.6065 0-.0825-.018-.1605-.047-.2325" fill="#fff"/><path d="m20.5012 41.7112c.6495-.43 1.4785-.5015 2.389-.2745.0885-.081.1705-.1685.247-.2625l-1.1675-1.0625c-.26-.27-.6245-.438-1.0285-.438-.789 0-1.4285.6395-1.4285 1.4285v.6c.242.0965.479.169.712.227.0865-.079.178-.1525.2765-.218" fill="#0074b8"/><path d="m26.9103 23.44435c-.3035.1965-.755.153-1.197-.0845.099.247.2675.4185.476.44.147.0155.2905-.0445.414-.159-.0605.14-.156.247-.283.303-.3625.1585-.85-.154-1.12-.701-.361.1-.693.068-.927-.098.376-.32.846-.4625 1.3045-.4325-.473-.032-.9585.1175-1.34.4585-.7525.672-.8175 1.827-.145 2.579.1695.1905.3705.336.588.4375-.0015-.011-.0065-.021-.0075-.0325-.292-.3685-.253-.9045.1025-1.222.369-.33.9355-.298 1.2655.071.3295.369.2975.9355-.0715 1.2655-.0065.006-.0145.01-.0215.016.2595-.073.509-.198.7235-.39.712-.636.8-1.7005.2385-2.451" fill="#a6e3fa"/><path d="m18.58315 11.74c-.6225 0-1.062-.434-1.369-1.028v1.0975h-.0255-.008c-.043.1225-.0665.254-.0665.389 0 .3645.0575.6745.2785 1.0155l2.5595-1.4375v-1.1215c-.311.6225-.753 1.085-1.369 1.085" fill="#035c8a"/><path d="m20.44065 7.92845c-.03.5395-.115.917-.185 1.1335h-.5255c-.145-.24-.4015-.4045-.7025-.4045h-.889c-.301 0-.5575.1645-.7025.4045h-.5255c-.0855-.265-.199-.7585-.199-1.515 0-.0375.003-.0685.0035-.105l.2895-.3575v-.8405c.407-.3675.956-.593 1.5605-.593.605 0 1.1545.2255 1.562.594v.8395l.3135.3875zm-1.8575 2.016c-.406 0-.7405-.251-.8075-.5795h1.615c-.067.3285-.402.5795-.8075.5795zm2.4225-4.106c-.123-.4915-.429-.822-1.0045-.931-.0115-.0025-.0235-.0045-.0355-.0065-.0275-.0045-.055-.009-.083-.013-.009-.001-.017-.0025-.026-.0035 0-.007-.0015-.013-.002-.0195-.001-.013-.002-.0265-.0045-.039-.0005-.0045-.002-.009-.003-.013-.0105-.051-.03-.1-.057-.1465-.0015-.003-.003-.006-.0045-.0085-.0075-.0125-.0165-.025-.025-.0375-.004-.005-.0075-.0105-.011-.0155-.0085-.0115-.0185-.023-.0275-.034-.0055-.006-.01-.012-.0155-.0175-.0095-.011-.02-.0215-.0305-.0315-.006-.0065-.0115-.0125-.0175-.0185-.011-.01-.0225-.02-.034-.03-.0065-.0055-.013-.0115-.0205-.0175-.0115-.0095-.024-.019-.0365-.0285-.0075-.006-.0145-.0115-.0225-.0175-.013-.009-.026-.018-.0395-.0275-.008-.0055-.016-.011-.0245-.0165-.0135-.009-.028-.0175-.042-.026-.009-.0055-.0175-.0105-.026-.0155-.015-.009-.03-.0175-.045-.026-.009-.005-.018-.0095-.027-.0145-.0155-.0085-.0315-.0165-.048-.0245-.009-.0045-.0185-.009-.0275-.0135-.0165-.0085-.0335-.016-.0505-.024-.009-.004-.0185-.0085-.028-.0125-.0175-.008-.035-.0155-.053-.023-.009-.004-.0185-.008-.0275-.0115-.0185-.0075-.037-.0155-.056-.0225l-.0075-.003c-.0005-.0005-.001-.0005-.001-.0005-.4855-.1865-1.072-.284-1.4155-.2925.0605.053.108.1195.137.198.012.0325.019.0665.024.1-.2755-.0555-.5745-.0515-.8745.0155.0715.037.134.09.181.159.0215.0315.0375.065.0505.0995-.268.0585-.534.1775-.7775.352.0805.006.1585.0305.229.0755.0755.0485.1325.1155.1715.1935-.0945.139-.1735.2895-.234.4495v.0005c-.01.0255-.0195.052-.028.078-.001.0025-.002.0055-.0025.008-.0035.01-.0065.02-.01.0305-.0015.0055-.0035.0105-.005.0165-.003.0095-.006.019-.0085.0285l-.0055.019c-.0025.009-.005.0185-.0075.0275-.002.007-.0035.0135-.0055.0205-.002.009-.0045.018-.0065.027-.002.007-.0035.0145-.0055.022-.002.0085-.004.017-.006.026-.0015.008-.003.016-.005.024-.0015.0085-.0035.0165-.005.0245-.003.0155-.0055.0315-.0085.047-.001.007-.002.014-.0035.0205-.0015.01-.003.02-.0045.03-.001.007-.002.014-.003.0215-.0015.01-.0025.0195-.004.029l-.0025.022c-.001.01-.002.0195-.003.0295-.0005.007-.0015.014-.002.0215-.001.01-.002.0205-.0025.0305l-.0015.0205c-.0005.0115-.0015.023-.002.034 0 .006-.0005.0115-.001.0175-.0005.017-.001.0345-.0015.052v.002c0 .0125-.0005.026-.0005.0395 0 .0785.0045.1565.0125.233l.046 1.0445c.05.0415.0885.095.125.149v.057c0 1.1085.4 3.988 2.0065 3.988 1.5425 0 2.0065-2.8795 2.0065-3.988v-.1125c.028-.035.059-.0675.0935-.0965l.043-1.0545c.007-.0725.011-.146.011-.22 0-.0135-.0005-.027-.0005-.04v-.0015c-.0005-.0175-.001-.035-.0015-.052-.0005-.006-.001-.0115-.001-.0175-.0005-.011-.0015-.0225-.002-.034l-.0015-.0205c-.0005-.01-.0015-.0205-.0025-.0305-.0005-.0075-.0015-.0145-.002-.0215-.001-.01-.002-.0195-.003-.0295l-.0025-.022c-.0015-.0095-.0025-.019-.004-.029-.001-.0075-.002-.0145-.003-.0215-.0015-.01-.003-.02-.0045-.03-.0015-.0065-.0025-.0135-.0035-.0205-.003-.0155-.0055-.0315-.0085-.047-.0015-.008-.0035-.016-.005-.024-.001-.004-.0015-.008-.0025-.012.0255-.007.051-.012.078-.0145.083-.008.164.006.238.0375z" fill="#0074b8"/><path d="m33.26905 12.6997c-.112.3665-.502.637-.967.637-.4645 0-.8545-.2705-.9665-.637h-.0005c.2415-.1665.5855-.2425.967-.2425.382 0 .726.076.9675.2425zm1.0855-.759c.0305.0045.06.013.0885.0245.115-.216.187-.4795.187-.6515 0-.187-.0875-.308-.2205-.3815-.0265.126-.06.2505-.0835.3715-.259-.361-.552-.622-.853-.7765-.023-.012-.0465-.0235-.0695-.0345-.007-.003-.0145-.0075-.022-.011-.1265-.065-.248-.14-.362-.2245-.008-.006-.016-.012-.024-.018-.0125-.0095-.0245-.0195-.037-.029-.0715-.057-.141-.1175-.2065-.18-.002-.002-.004-.004-.006-.0055-.0155-.015-.0305-.0305-.046-.0455-.151-.1545-.2835-.327-.394-.514 0-.0005.0005-.001.001-.0015l-.0025-.0005-.0005-.0005c-.01.0195-.021.0395-.0325.0595-.0585.094-.1225.1835-.192.269-.227.2725-.555.5525-.8755.7015-.0315.015-.064.031-.0965.0485-.2935.156-.5745.4125-.8255.7625-.0235-.1215-.058-.247-.0845-.3735-.135.073-.2245.195-.2245.3835 0 .171.071.433.185.648.032-.014.065-.024.099-.0295.0305-.004.058.0165.0625.0465s-.0165.058-.0465.0625c-.02.003-.04.0085-.059.016.0765.12.1675.2155.2665.2555l.0225.1155.021.1115.0195.1005c.0195.1015.0655.196.134.2735.199.226.632.718.8305.943.077.0875.1735.1555.283.196.1635.06.3345.0915.511.0915s.348-.0315.5115-.0915c.1095-.0405.206-.1085.283-.196l.834-.947c.066-.075.1115-.1655.132-.2635.005-.023.01-.048.016-.075.005-.0245.0105-.051.0165-.0785.012-.057.025-.1195.0385-.185.094-.0415.1795-.1325.253-.246-.0155-.0055-.0315-.0095-.048-.012-.03-.0045-.0505-.0325-.0465-.0625.0045-.03.0325-.0505.0625-.0465z" fill="#a6e3fa"/><path d="m30.5028 12.42845c-.0095.0045-.018.011-.024.021-.0405.0705-.102.123-.1725.148-.0675.024-.1355.0195-.191-.013-.056-.032-.094-.0885-.107-.159-.0135-.0735.0015-.153.042-.2235.051-.0875.134-.148.223-.1605.03-.0045.0505-.0325.0465-.0625-.0045-.03-.0325-.051-.0625-.0465-.122.018-.2345.098-.302.2145-.054.0935-.0735.1995-.055.2985.019.103.076.186.16.2345.049.0285.104.043.161.043.04 0 .081-.0075.1215-.022.072-.025.1365-.0715.187-.1325z" fill="#fff"/><path d="m34.6565 12.1555c-.0675-.1165-.18-.197-.302-.2145-.03-.0045-.058.0165-.0625.0465-.004.03.0165.0575.0465.062.089.013.172.0735.223.161.0825.143.0535.3145-.065.3825-.118.0685-.281.0075-.3635-.1355-.0065-.0105-.0155-.0175-.026-.0215-.0105.0485-.02.094-.0285.1355.0815.1015.1985.159.3125.159.056 0 .1105-.013.1605-.042.171-.0985.218-.3375.105-.533" fill="#fff"/><path d="m32.30225 12.6621c.3365 0 .6615.013.967.038-.2415-.1665-.5855-.243-.967-.243s-.7255.0765-.967.243c.3055-.025.6305-.038.967-.038" fill="#0074b8"/><path d="m33.2523 12.6985c-.21.2195-.557.363-.95.363s-.74-.1435-.95-.363c-.0055.0005-.0115.001-.017.0015.112.366.502.6365.967.6365.4645 0 .855-.2705.9665-.6365-.0055-.0005-.011-.001-.0165-.0015" fill="#0074b8"/><path d="m32.30225 12.6621c-.224 0-.442.0065-.6535.0175v.2335c.186.0935.411.1485.6535.1485s.4675-.055.6535-.1485v-.2335c-.2115-.011-.4295-.0175-.6535-.0175" fill="#fff"/><path d="m32.9557 12.6797v.2335c.1155-.0575.216-.1305.2965-.2145-.097-.008-.196-.014-.2965-.019" fill="#035c8a"/><path d="m31.6488 12.6797c-.1005.005-.1995.011-.2965.019.0805.084.181.157.2965.2145z" fill="#035c8a"/><path d="m25.7583 25.68165c.01.011.013.0255.022.0375.009-.031.0225-.06.0245-.094.0135-.2385-.169-.4425-.4075-.456s-.4425.169-.456.4075c-.0005.0045.0015.008.0015.0125.2565-.1725.604-.1445.8155.0925" fill="#0074b8"/><path d="m25.6454 25.93285c-.016-.0345-.0315-.0695-.0575-.099-.079-.0885-.1885-.133-.299-.133-.095 0-.1905.0335-.2665.1015-.0055.005-.008.012-.013.0175.071.118.191.2045.339.213.113.006.216-.0335.297-.1" fill="#0074b8"/><path d="m25.2888 25.7007c-.0945 0-.19.0335-.2665.1015-.0795.071-.127.1695-.133.276-.006.107.03.2095.101.289.0715.08.1695.127.2765.1335.1065.0055.2095-.03.289-.1015.1645-.147.179-.4005.032-.565-.079-.0885-.1885-.1335-.299-.1335m.001 1.0295c-.0115 0-.024-.0005-.036-.001-.168-.0095-.322-.084-.4335-.2095-.1125-.125-.1685-.2865-.1595-.4545.0095-.1675.084-.322.2095-.4335.2585-.231.6575-.2085.888.05.231.2585.2085.657-.05.888-.1165.104-.2635.1605-.4185.1605" fill="#4cbef6"/><path d="m26.9103 23.44435c-.0315-.0425-.0575-.088-.093-.128-.6625-.7415-1.7915-.812-2.544-.1715.234.166.566.198.927.098.27.547.7575.8595 1.12.701.127-.056.2225-.163.283-.303-.1235.1145-.267.1745-.414.159-.2085-.0215-.377-.193-.476-.44.442.2375.8935.281 1.197.0845" fill="#0074b8"/><path d="m18.7417 7.48925c.1205-.198.3695-.335.6575-.335.2885 0 .537.137.6575.335zm-1.7525 0c.1205-.198.3695-.335.6575-.335.2885 0 .5375.137.6575.335zm3.138-.405v-.8395c-.4075-.368-.957-.594-1.562-.594-.6045 0-1.1535.2255-1.5605.593v.8405l-.2895.3575c-.0005.0365-.004.0675-.004.105 0 .7565.114 1.25.1995 1.5155h.5255c.145-.24.4015-.405.7025-.405h.889c.301 0 .5575.165.7025.405h.5255c.0695-.2165.155-.5945.185-1.134v-.456z" fill="#a6e3fa"/><path d="m18.30445 7.4895c-.1205-.1985-.3695-.335-.6575-.335-.2885 0-.537.1365-.6575.335z" fill="#0074b8"/><path d="m20.0569 7.4895c-.1205-.1985-.3695-.335-.6575-.335-.2885 0-.537.1365-.6575.335z" fill="#0074b8"/><path d="m17.77575 9.36475c.067.329.4015.5795.8075.5795.4055 0 .7405-.2505.807-.5795z" fill="#fff"/></g><circle cx="638" cy="45" r="25" stroke="#fff" stroke-width="2"/><g transform="translate(613 20)"><path d="m22.44875 42.1538c.47 0 .853.3825.853.853 0 .47-.383.8525-.853.8525s-.853-.3825-.853-.8525c0-.4705.383-.853.853-.853z" fill="#4cbef6"/><path d="m19.8424 40.60545c-.47 0-.853.3825-.853.853 0 .47.383.8525.853.8525s.8525-.3825.8525-.8525c0-.4705-.3825-.853-.8525-.853" fill="#4cbef6"/><path d="m21.6267 41.45825c-.0105-.0055-.021-.0115-.031-.017v.017.017c.01-.006.0205-.0115.031-.017" fill="#4cbef6"/><path d="m41.7903 21.8347-.5525 3.257-2.412.9305-1.4675 8.6545h-4.5565l-.2045 1.2105h-3.725l-1.6245-1.2105h-4.471l-1.621 1.2105h-3.725l-.208-1.2105h-4.669l-1.471-8.6545-2.319-.9305-.554-3.257h10.5665v-.5615h-10.565l.5525-3.2565h2.1275l1.5485-9.132h3.5065l.219-1.2895h3.725l1.531 1.2895h7.066l1.531-1.2895h3.725l.2185 1.2895 3.5065.001 1.549 9.131h2.2205l.5525 3.2565h-10.6585v.5615zm-9.84 20.085h-1.2585v.6025.6185h.723v.8555h-.723-.7175v-1.474-.6025h-.48v.6025 1.474h-1.436-.723v-.8555h.723v-.6185-.6025h-4.2355c.2375.299.3795.6765.3795 1.087 0 .967-.7865 1.7535-1.7535 1.7535s-1.7535-.7865-1.7535-1.7535c0-.006.0005-.0115.0005-.017-.253.141-.544.222-.8535.222-.967 0-1.7535-.7865-1.7535-1.7535s.7865-1.7535 1.7535-1.7535c.3095 0 .6005.081.8535.2225 0-.006-.0005-.0115-.0005-.0175 0-.967.7865-1.7535 1.7535-1.7535s1.7535.7865 1.7535 1.7535c0 .386-.126.743-.338 1.0325h8.086zm-6.9505-41.9195c-13.807 0-25 11.1925-25 25 0 13.807 11.193 25 25 25 13.8075 0 25-11.193 25-25 0-13.8075-11.1925-25-25-25z" fill="#4cbef6" mask="url(#d)"/><path d="m22.44875 39.05715c-.47 0-.853.3825-.853.853 0 .47.383.8525.853.8525s.853-.3825.853-.8525c0-.4705-.383-.853-.853-.853" fill="#4cbef6"/><path d="m18.77625 21.5459v-.2725h-10.565l-.0015.5615h10.5665z" fill="#fff"/><path d="m31.13195 21.27345v.2725.289h10.6585v-.5615z" fill="#fff"/><g fill="#0074b8"><path d="m21.6267 41.45825c-.0105-.0055-.021-.0115-.031-.017v.017.017c.01-.006.0205-.0115.031-.017"/><path d="m29.65785 31.22875h-9.2995l.48 2.7955h8.347z"/><path d="m30.6333 25.09155c-.9455 2.2025-3.1345 3.75-5.679 3.75-2.545 0-4.734-1.5475-5.6795-3.75h-8.35l.0015.0085.5655 3.3325h4.6585l-.318-1.8515h.0025l-.096-.559h3.7255l.8305 4.8345h9.426l.8165-4.8345h3.7255l-.0945.559h.001l-.3125 1.8515h4.56l.565-3.3295.0015-.0115z"/><path d="m37.1349 31.02635c-.001.0005-.002.001-.0025.0015.0005-.0005.0015-.001.0025-.0015"/><path d="m12.73365 31.0039c.004.0025.0085.0045.0125.007-.004-.0025-.0085-.0045-.0125-.007"/><path d="m19.18555 11.74925h11.537l-.4855-2.8645h-1.75-7.066-1.7495z"/><path d="m16.6305 31.22875h-3.6795c1.087.7315 2.3935 2.1435 2.396 2.7955h1.7635z"/><path d="m11.8883 30.76735c.0765 0 .1025.0055.1155.0155.0825.013.1715.0365.269.074h4.2935l-.352-2.052h-4.659z"/><path d="m38.0204 30.7676h.0005l.333-1.963h-4.56l-.347 2.052h4.1955c.1395-.055.2685-.089.378-.089"/><path d="m36.9835 31.22875h-3.5995l-.472 2.7955h1.7805c0-.0015.0005-.003.0005-.004.0075-.6535 1.243-2.0615 2.2905-2.7915"/><path d="m34.7191 9.0635c-.015-.055-.0215-.1075-.0235-.1585-.0005-.006-.003-.0135-.003-.0195l.003-.001h-.7335l.486 2.865h2.6315c-.982-.652-2.1725-1.957-2.3605-2.686"/><path d="m15.34715 8.8845c0 .056-.01.1155-.0275.1775-.198.7285-1.4555 2.036-2.472 2.6875.666 0 2.613-.0005 2.613-.0005l.486-2.8645z"/><path d="m38.46995 14.7898.063.372z"/><path d="m38.0204 12.14235c-.047 0-.1-.0105-.153-.021h-3.3565l.4525 2.6685h3.5065l-.4495-2.6495z"/><path d="m31.13195 16.4856v1.3025.2285h7.8855l-.4845-2.8545h-3.506l.421 2.482h-3.7255l-.9365-5.523h-11.6635l-.937 5.523h-3.725l.4215-2.482h-3.5065l.063-.3725h3.5065l.4525-2.6685h-3.2975-.0645c-.0515.0105-.1025.0205-.148.0205l-.9965 5.875h7.8855v-.2285-1.3025-.094-1.303h1.3025 9.7505 1.3025v1.303z"/></g><g mask="url(#e)"><g transform="translate(18 38)"><path d="m4.44875 2.7627c-.47 0-.853-.3825-.853-.853 0-.47.383-.8525.853-.8525s.853.3825.853.8525c0 .4705-.383.853-.853.853zm0 3.0965c-.47 0-.853-.3825-.853-.8525 0-.4705.383-.853.853-.853s.853.3825.853.853c0 .47-.383.8525-.853.8525zm-.8535-2.418c.0105.0055.021.0115.0315.017-.0105.0055-.021.0115-.0315.017.0005-.0055.0005-.0115.0005-.017 0-.006 0-.0115-.0005-.017zm-1.753.87c-.47 0-.8525-.3825-.8525-.853 0-.47.3825-.8525.8525-.8525.4705 0 .853.3825.853.8525 0 .4705-.3825.853-.853.853zm12.108-.3915v-.9775h-8.086c.212-.2895.338-.6465.338-1.0325 0-.967-.7865-1.7535-1.7535-1.7535s-1.7535.7865-1.7535 1.7535c0 .006.0005.0115.0005.0175-.253-.1415-.544-.2225-.8535-.2225-.9665 0-1.7535.7865-1.7535 1.7535s.787 1.7535 1.7535 1.7535c.3095 0 .6005-.081.8535-.222 0 .0055-.0005.011-.0005.017 0 .967.7865 1.7535 1.7535 1.7535s1.7535-.7865 1.7535-1.7535c0-.4105-.142-.788-.379-1.087z" fill="#fff"/><path d="m10.0585 4.522h1.436v-.602h-1.436z" fill="#a6e3fa"/><path d="m11.974 4.522h.7175v-.602h-.7175z" fill="#a6e3fa"/><g fill="#fff"><path d="m10.05845 4.52195v.6185h-.723v.8555h.723 1.436v-1.474z"/><path d="m12.692 4.52195h-.718v1.474h.718.7225v-.8555h-.7225z"/></g></g></g><path d="m32.12025 28.115c-.2275 0-.412-.185-.412-.412 0-.2275.1845-.412.412-.412s.412.1845.412.412c0 .227-.1845.412-.412.412zm-.4025 2.3975c-.2275 0-.4125-.1845-.4125-.412 0-.227.185-.412.4125-.412.227 0 .412.185.412.412 0 .2275-.185.412-.412.412zm-.411 2.398c-.227 0-.412-.185-.412-.412 0-.2275.185-.4125.412-.4125.2275 0 .4125.185.4125.4125 0 .227-.185.412-.4125.412zm-2.121 1.114h-2.8125-2.7235-2.811l-.4805-2.7955h9.2995zm-10.4845-1.114c-.2275 0-.4125-.185-.4125-.412 0-.2275.185-.4125.4125-.4125.227 0 .412.185.412.4125 0 .227-.185.412-.412.412zm-.8205-2.81c0-.227.185-.412.412-.412.2275 0 .412.185.412.412 0 .2275-.1845.412-.412.412-.227 0-.412-.1845-.412-.412zm-.4055-2.3975c0-.2275.185-.412.412-.412.2275 0 .4125.1845.4125.412 0 .227-.185.412-.4125.412-.227 0-.412-.185-.412-.412zm20.8785 1.1015.063-.372h-4.56l.3125-1.8515h-.001l.0945-.559h-3.7255l-.8165 4.8345h-9.426l-.8305-4.8345h-3.725l.0955.559h-.0025l.318 1.8515h-4.6585l.063.372h4.6595l.3525 2.052h-4.294c.204.079.435.2085.678.3725h3.68l.48 2.7955h-4.668l.111.652h4.669l.208 1.2105h3.725l1.621-1.2105h4.471l1.6245 1.2105h3.725l.2045-1.2105h4.557l.1105-.652h-4.5575l.4725-2.7955h3.5995c.2345-.164.459-.2935.6585-.3725h-4.195l.3465-2.052z" fill="#035c8a" mask="url(#e)"/><path d="m33.41675 17.06495c-.2275 0-.412-.185-.412-.412 0-.2275.1845-.412.412-.412.227 0 .412.1845.412.412 0 .227-.185.412-.412.412zm-.817-2.8095c0-.2275.185-.412.412-.412.2275 0 .4125.1845.4125.412 0 .227-.185.412-.4125.412-.227 0-.412-.185-.412-.412zm-.407-2.398c0-.227.185-.412.412-.412.2275 0 .4125.185.4125.412 0 .2275-.185.4125-.4125.4125-.227 0-.412-.185-.412-.4125zm-.4055-2.3975c0-.2275.185-.412.412-.412.2275 0 .4125.1845.4125.412s-.185.412-.4125.412c-.227 0-.412-.1845-.412-.412zm-14.0625.412c-.227 0-.412-.1845-.412-.412s.185-.412.412-.412c.2275 0 .412.1845.412.412s-.1845.412-.412.412zm-.397 2.398c-.2275 0-.412-.185-.412-.4125 0-.227.1845-.412.412-.412s.412.185.412.412c0 .2275-.1845.4125-.412.4125zm-.429 2.3975c-.2275 0-.4125-.185-.4125-.412 0-.2275.185-.412.4125-.412.227 0 .412.1845.412.412 0 .227-.185.412-.412.412zm-.407 2.3975c-.2275 0-.4125-.185-.4125-.412 0-.2275.185-.412.4125-.412.227 0 .412.1845.412.412 0 .227-.185.412-.412.412zm22.0415-1.903-.0635-.372h-3.506l-.453-2.6685h3.3565c-.223-.0455-.495-.178-.788-.372h-2.6315l-.7045-4.1545h-3.725l-1.531 1.2895h1.7495l.486 2.865h-11.537l.486-2.865h1.7495l-1.531-1.289v-.0005h-3.725l-.7045 4.1545h-2.6125c-.3055.196-.5865.328-.813.372h3.362l-.4525 2.6685h-3.5065l-.063.372h3.5065l-.421 2.482h3.725l.9365-5.5225h11.6635l.937 5.5225h3.725l-.421-2.482z" fill="#035c8a" mask="url(#e)"/><path d="m31.3069 32.0862c.2275 0 .412.185.412.412s-.1845.412-.412.412c-.227 0-.412-.185-.412-.412s.185-.412.412-.412" fill="#4cbef6" mask="url(#e)"/><path d="m31.71755 29.6885c.2275 0 .412.185.412.412 0 .2275-.1845.412-.412.412s-.412-.1845-.412-.412c0-.227.1845-.412.412-.412" fill="#4cbef6" mask="url(#e)"/><path d="m32.12025 27.29075c.2275 0 .412.185.412.412 0 .2275-.1845.412-.412.412s-.412-.1845-.412-.412c0-.227.1845-.412.412-.412" fill="#4cbef6" mask="url(#e)"/><path d="m18.70105 32.0862c.2275 0 .412.185.412.412s-.1845.412-.412.412-.412-.185-.412-.412.1845-.412.412-.412" fill="#4cbef6" mask="url(#e)"/><path d="m18.29285 29.6885c.227 0 .412.185.412.412 0 .2275-.185.412-.412.412-.2275 0-.412-.1845-.412-.412 0-.227.1845-.412.412-.412" fill="#4cbef6" mask="url(#e)"/><path d="m17.88745 27.29075c.2275 0 .412.185.412.412 0 .2275-.1845.412-.412.412s-.412-.1845-.412-.412c0-.227.1845-.412.412-.412" fill="#4cbef6" mask="url(#e)"/><path d="m17.32775 11.44555c.2275 0 .412.185.412.412 0 .2275-.1845.412-.412.412s-.412-.1845-.412-.412c0-.227.1845-.412.412-.412" fill="#4cbef6" mask="url(#e)"/><path d="m16.89855 13.84325c.2275 0 .412.185.412.412s-.1845.412-.412.412c-.227 0-.412-.185-.412-.412s.185-.412.412-.412" fill="#4cbef6" mask="url(#e)"/><path d="m17.72475 9.04785c.2275 0 .412.185.412.412 0 .2275-.1845.412-.412.412-.227 0-.412-.1845-.412-.412 0-.227.185-.412.412-.412" fill="#4cbef6" mask="url(#e)"/><path d="m16.4916 16.2407c.227 0 .412.185.412.412 0 .2275-.185.412-.412.412-.2275 0-.412-.1845-.412-.412 0-.227.1845-.412.412-.412" fill="#4cbef6" mask="url(#e)"/><path d="m32.605 11.44555c.2275 0 .412.185.412.412 0 .2275-.1845.412-.412.412-.227 0-.412-.1845-.412-.412 0-.227.185-.412.412-.412" fill="#4cbef6" mask="url(#e)"/><path d="m33.01195 13.84325c.227 0 .412.185.412.412s-.185.412-.412.412c-.2275 0-.412-.185-.412-.412s.1845-.412.412-.412" fill="#4cbef6" mask="url(#e)"/><path d="m32.19945 9.04785c.2275 0 .412.185.412.412 0 .2275-.1845.412-.412.412s-.412-.1845-.412-.412c0-.227.1845-.412.412-.412" fill="#4cbef6" mask="url(#e)"/><path d="m33.41675 16.2407c.227 0 .412.185.412.412 0 .2275-.185.412-.412.412-.2275 0-.412-.1845-.412-.412 0-.227.1845-.412.412-.412" fill="#4cbef6" mask="url(#e)"/><path d="m34.69265 8.8855c.004.9 2.3645 3.257 3.328 3.257l-.552-3.257z" fill="#fff" mask="url(#e)"/><path d="m15.34715 8.8845c-.004.9-2.496 3.257-3.4595 3.257l.5525-3.257z" fill="#fff" mask="url(#e)"/><path d="m15.34715 34.02415c-.004-.9-2.4955-3.257-3.459-3.257l.552 3.257z" fill="#fff" mask="url(#e)"/><path d="m34.6924 34.02415c.004-.9 2.366-3.257 3.3295-3.257l-.5535 3.257z" fill="#fff" mask="url(#e)"/><path d="m30.60045 21.5459c0 3.1185-2.528 5.6465-5.6465 5.6465s-5.646-2.528-5.646-5.6465v-2.9835c1.4705 0 2.6625-1.1925 2.6625-2.6625h5.9675c0 1.47 1.192 2.6625 2.6625 2.6625zm-10.257-5.2965c.227 0 .412.1845.412.412s-.185.412-.412.412c-.2275 0-.412-.1845-.412-.412s.1845-.412.412-.412zm9.221 0c.2275 0 .4125.1845.4125.412s-.185.412-.4125.412c-.227 0-.412-.1845-.412-.412s.185-.412.412-.412zm1.5675 5.2965v-.2725h10.6585l-.5525-3.257h-10.106v-.228-1.303-.094-1.303h-1.3025-9.7505-1.3025v1.303.094 1.303.228h-10.013l-.5525 3.257h10.5655v.2725.289h-10.5665l.5535 3.2565 2.319.9305-.1575-.9305h8.35c.9455 2.203 3.1345 3.75 5.679 3.75 2.545 0 4.734-1.547 5.6795-3.75h8.35l-.1575.9305 2.412-.9305.5525-3.2565h-10.6585z" fill="#035c8a" mask="url(#e)"/><path d="m23.4027 24.3657.719-2.872c-.412-.2715-.6845-.7365-.6845-1.2665 0-.838.679-1.517 1.517-1.517.8375 0 1.517.679 1.517 1.517 0 .53-.273.995-.6845 1.2665l.719 2.872zm4.535-8.466h-5.9675c0 1.4705-1.192 2.6625-2.6625 2.6625v2.9835c0 3.1185 2.528 5.6465 5.6465 5.6465s5.6465-2.528 5.6465-5.6465v-2.9835c-1.471 0-2.663-1.192-2.663-2.6625z" fill="#fff" mask="url(#e)"/><path d="m26.5055 24.3657-.719-2.872c.412-.2715.6845-.7365.6845-1.2665 0-.838-.679-1.517-1.517-1.517-.8375 0-1.517.679-1.517 1.517 0 .53.273.995.6845 1.2665l-.719 2.872z" fill="#0074b8" mask="url(#e)"/><path d="m20.3434 16.24925c.2275 0 .412.185.412.412 0 .2275-.1845.412-.412.412-.227 0-.412-.1845-.412-.412 0-.227.185-.412.412-.412" fill="#4cbef6" mask="url(#e)"/><path d="m29.5647 16.24925c.2275 0 .412.185.412.412 0 .2275-.1845.412-.412.412-.227 0-.412-.1845-.412-.412 0-.227.185-.412.412-.412" fill="#4cbef6" mask="url(#e)"/></g><circle cx="638" cy="45" r="25" stroke="#fff" stroke-width="2"/><circle cx="683" cy="45" r="25" stroke="#fff" stroke-width="2"/><g transform="translate(658 20)"><path d="m49.88415 22.62475-10.4235-1.851-.788-4.3675-.6395-3.545v3.545 5.4065h-5.7795c-.0045-.005-.009-.0095-.0135-.0145.9045 1.0175 1.8125 2.16 2.6545 3.4455.0095.0145.0165.0295.025.0445 1.1245 1.802 1.7745 3.931 1.7745 6.2115 0 6.4875-5.259 11.747-11.7465 11.747s-11.7465-5.2595-11.7465-11.747c0-2.2975.66-4.4405 1.8-6.251.01-.017.02-.0345.03-.0515 1.0485-1.7525 2.284-3.3515 3.698-4.809-.138-.1755-.224-.394-.224-.635 0-.5675.4585-1.0275 1.0255-1.031h-.717c-.45 0-.815-.365-.815-.815v-.432c0-.4505.365-.8155.815-.8155h-.393c-.481 0-.8715-.39-.8715-.8715v-.3195c0-.481.3905-.8715.8715-.8715h.5395c-.47 0-.851-.3805-.851-.8505v-.361c0-.3695.237-.681.5665-.7985-.299-.3555-.5895-.7185-.9035-1.06-.412-.4475-.4225-.93-.129-1.415.478-.7895 1.201-1.261 2.123-1.5415.4855.956.94 1.851 1.394 2.7455.0255-.0085.051-.017.076-.025-.2625-.894-.6755-2.248-.924-3.1455-.2085-.752-.113-1.2115.38-1.349.9275-.2585 1.875-.497 2.8295-.598 1.3405-.1415 2.6795.004 3.9655.447.3555.1225.6855.319 1.0525.4935l-1.329 3.19c.025.0165.0505.0335.0755.05.4215-.551.8435-1.1025 1.3625-1.781.418.4715.859.859 1.1575 1.3355.3245.5175.2685 1.1145-.1365 1.596-.362.4295-.7325.852-1.0985 1.278l.6645.665h2.9895v-1.0195h14.3845c-4.336-7.439-12.396-12.4535-21.6095-12.4535-13.7855 0-25 11.215-25 25s11.2145 25 25 25c13.785 0 25-11.215 25-25 0-.8015-.042-1.593-.116-2.375" fill="#4cbef6" mask="url(#f)"/><path d="m30.1372 19.6172c.67.642 1.3775 1.365 2.088 2.164v-2.9085h-1.3595c-.1565.32-.4135.5805-.7285.7445" fill="#4cbef6"/><path d="m18.6754 12.5874c.0895-.032.1845-.0525.285-.0525h.5535c.0075 0 .015-.0025.0225-.0025h2.8215c.008 0 .0155.0025.023.0025h.0315c.1815 0 .3485.058.487.1545.293.182.49.504.49.875 0 .167-.0435.323-.115.462l2.544-2.5435c.3915-.392 1.0265-.392 1.418 0l.0185.0185c.017.0145.035.0255.051.0415l1.265 1.265c.3665-.426.737-.8485 1.0985-1.2785.4055-.481.461-1.078.1365-1.5955-.2985-.477-.7395-.864-1.1575-1.336-.519.6785-.9405 1.23-1.3625 1.7815-.025-.0165-.05-.0335-.075-.0505l1.3285-3.1895c-.367-.175-.697-.3715-1.052-.494-1.286-.443-2.625-.588-3.9655-.4465-.955.1005-1.902.339-2.83.598-.4925.1375-.588.5965-.38 1.349.249.8975.662 2.2515.9245 3.145-.0255.0085-.0505.017-.076.0255-.4545-.895-.909-1.7895-1.3945-2.7455-.9215.28-1.645.752-2.1225 1.5415-.2935.485-.283.967.1285 1.4145.3145.342.605.705.9035 1.0605" fill="#0074b8"/><path d="m25.58425 34.7136v1.299h-1.1665v-1.299c-1.4445-.1725-2.2665-1.365-2.3065-2.5715h1.4315c.0665.9545.7425 1.4715 1.445 1.4715.782 0 1.365-.6365 1.365-1.379 0-1.126-1.0865-1.471-2.1205-1.8025-.742-.225-1.8955-.7685-1.8955-2.3455 0-1.432.981-2.267 2.081-2.492v-1.2195h1.1665v1.2195c1.2595.225 1.9485 1.1795 1.975 2.346h-1.312c-.0795-.809-.6895-1.2595-1.2595-1.2595-.6495 0-1.2325.5305-1.2325 1.2725 0 .968.795 1.233 1.948 1.617 1.2195.4375 2.081 1.3125 2.081 2.5185 0 1.1535-.795 2.3065-2.2 2.6245m9.335-9.4255c-.008-.0145-.015-.03-.0245-.044-1.5085-2.3035-3.231-4.163-4.7575-5.627v.0005c-1.0635-1.0195-2.03-1.846-2.7615-2.4925-.0095-.008-.0205-.0175-.0295-.0255v-.0005c-.225-.199-.4295-.3825-.605-.547-.0235-.145-.0365-.2935-.0365-.4455 0-.6315.214-1.2115.57-1.677l-.801-.801-1.218 1.2425c-.359.3665-.9485.3695-1.3115.0065l-.739-.739c-.079.1145-.1745.217-.2915.2925-.141.1035-.3135.1665-.5015.1665h-.0205c.1235 0 .241.0265.3475.073.3805.1515.6505.522.6505.9565 0 .43-.264.798-.638.953-.11.05-.231.08-.36.08h.056c.24 0 .4535.1055.603.2705.2065.1885.339.4575.339.7595 0 .3-.13.5675-.3345.7565-.1495.168-.365.276-.6075.276h-.01c.2355 0 .447.0995.5975.258.2155.189.3545.4635.3545.773 0 .3085-.1385.582-.353.7715-.1505.159-.3625.26-.599.26h-.0795-2.7485-.073c-.329 0-.619-.157-.8075-.397-1.414 1.4575-2.6495 3.0565-3.698 4.809-.01.017-.02.0345-.03.0515-1.1405 1.8105-1.8 3.954-1.8 6.2515 0 6.487 5.259 11.7465 11.7465 11.7465s11.7465-5.2595 11.7465-11.7465c0-2.281-.65-4.41-1.775-6.212" fill="#0074b8"/><path d="m48.4779 16.40625h-9.805l.788 4.3675 10.4235 1.851c-.205-2.164-.6835-4.2495-1.4065-6.2185" fill="#e3f6fd"/><path d="m46.60985 12.45335h-14.385v3.953h5.8085v-3.545l.6395 3.545h9.805c-.5065-1.38-1.137-2.699-1.868-3.953" fill="#fff"/><path d="m36.33155 21.04345c-.302 0-.5465-.2445-.5465-.5465s.2445-.5465.5465-.5465.5465.2445.5465.5465-.2445.5465-.5465.5465zm-2.502 0c-.302 0-.5465-.2445-.5465-.5465s.2445-.5465.5465-.5465.5465.2445.5465.5465-.2445.5465-.5465.5465zm-1.6045-4.637v5.3745c.0095.011.019.0215.0285.032h5.7795v-5.4065z" fill="#e3f6fd"/><path d="m25.70335 29.5708c-1.153-.3845-1.948-.6495-1.948-1.617 0-.7425.583-1.2725 1.2325-1.2725.5695 0 1.1795.4505 1.259 1.259h1.3125c-.0265-1.1665-.716-2.1205-1.975-2.346v-1.2195h-1.1665v1.2195c-1.1.2255-2.081 1.0605-2.081 2.492 0 1.5775 1.153 2.1205 1.8955 2.346 1.0335.3315 2.1205.676 2.1205 1.803 0 .742-.583 1.3785-1.365 1.3785-.7025 0-1.379-.517-1.445-1.4715h-1.4315c.04 1.2065.8615 2.399 2.3065 2.5715v1.299h1.1665v-1.299c1.405-.318 2.2-1.4715 2.2-2.6245 0-1.206-.8615-2.081-2.081-2.5185" fill="#fff"/><path d="m22.02135 14.042h-.5735v-1.019h.5735c.246 0 .4455.228.4455.5095 0 .281-.1995.5095-.4455.5095zm.4455 1.5925c0 .2815-.1995.5095-.4455.5095h-.5735v-1.019h.5735c.246 0 .4455.228.4455.5095zm0 2.1015c0 .2815-.1995.5095-.4455.5095h-.5735v-1.019h.5735c.246 0 .4455.2285.4455.5095zm0 2.0095c0 .2815-.1995.5095-.4455.5095h-.5735v-1.019h.5735c.246 0 .4455.228.4455.5095zm6.769-6.273-1.93-1.93c-.016-.0155-.034-.0265-.0505-.041l-.019-.019c-.3915-.3915-1.0265-.3915-1.418 0l-1.0745 1.0745.4535.4535-.436.436c-.3015.3015-.698.394-.999.0925l-.4875.4875c.071-.1395.115-.295.115-.4625 0-.3705-.1975-.6925-.4905-.8745-.1385-.0965-.3055-.1545-.487-.1545h-.0315c-.0075-.0005-.015-.0025-.023-.0025h-2.821c-.008 0-.0155.002-.023.0025h-.5535c-.47 0-.851.381-.851.851v.3605c0 .47.381.851.851.851h-.5395c-.4815 0-.8715.39-.8715.8715v.3195c0 .4815.39.8715.8715.8715h.393c-.4505 0-.8155.365-.8155.815v.432c0 .4505.365.8155.8155.8155h.717c-.567.003-1.0255.463-1.0255 1.031 0 .5695.4615 1.0315 1.0315 1.0315h.073 2.748.08c.2365 0 .448-.101.5985-.26.215-.1895.3535-.463.3535-.7715 0-.3095-.139-.584-.355-.773-.15-.158-.3615-.258-.597-.258h.01c.2425 0 .458-.108.6075-.276.204-.1885.3345-.4565.3345-.7565 0-.302-.1325-.571-.3395-.7595-.149-.165-.3625-.2705-.6025-.2705h-.0565c.129 0 .2505-.0295.3605-.08.374-.1545.638-.5225.638-.953 0-.4345-.27-.8045-.6505-.9565-.107-.0465-.224-.073-.348-.073h.021c.188 0 .3605-.063.501-.1665.1175-.0755.213-.178.2915-.2925l.7395.739c.363.363.952.36 1.3115-.0065l1.218-1.2425.801.801c-.356.4655-.57 1.0455-.57 1.677 0 .152.013.3005.0365.446.748.7025 1.9875 1.715 3.3955 3.065.315-.1645.572-.4245.7285-.745h1.3595v-5.4z" fill="#a6e3fa"/><g fill="#fff"><path d="m22.4668 13.53245c0 .2815-.1995.5095-.4455.5095h-.5735v-1.019h.5735c.246 0 .4455.228.4455.5095"/><path d="m22.4668 19.74535c0 .2815-.1995.5095-.4455.5095h-.5735v-1.019h.5735c.246 0 .4455.2285.4455.5095"/><path d="m22.4668 17.7361c0 .2815-.1995.51-.4455.51h-.5735v-1.0195h.5735c.246 0 .4455.2285.4455.5095"/><path d="m22.4668 15.6343c0 .2815-.1995.5095-.4455.5095h-.5735v-1.019h.5735c.246 0 .4455.2285.4455.5095"/><path d="m25.1974 13.01075-.436.436c-.3015.3015-.698.3935-.999.092l.9815-.9815z"/></g><path d="m33.2831 20.49705c0 .302.2445.5465.5465.5465.3015 0 .5465-.2445.5465-.5465s-.245-.5465-.5465-.5465c-.302 0-.5465.2445-.5465.5465" fill="#0074b8"/><path d="m35.78505 20.49705c0 .302.2445.5465.5465.5465s.5465-.2445.5465-.5465-.2445-.5465-.5465-.5465-.5465.2445-.5465.5465" fill="#0074b8"/></g><circle cx="683" cy="45" r="25" stroke="#fff" stroke-width="2"/><g transform="translate(19 56)"><g fill="#fff"><path d="m5.6376245 8.67941667c-1.8218269 0-3.30396804-1.44916667-3.30396804-3.23066667s1.48214114-3.23083333 3.30396804-3.23083333c1.82165646 0 3.3037976 1.44933333 3.3037976 3.23083333s-1.48214114 3.23066667-3.3037976 3.23066667m0-8.61516667c-3.03637816 0-5.50655659 2.4155-5.50655659 5.3845 0 2.96916667 2.47017843 5.3846667 5.50655659 5.3846667 3.03620772 0 5.5065566-2.41550003 5.5065566-5.3846667 0-2.969-2.47034888-5.3845-5.5065566-5.3845" mask="url(#g)" transform="translate(6.476698 3.166667)"/><path d="m5.62448362 8.67941667c-1.82165646 0-3.30396804-1.44916667-3.30396804-3.23066667s1.48231158-3.23083333 3.30396804-3.23083333 3.30396804 1.44933333 3.30396804 3.23083333-1.48231158 3.23066667-3.30396804 3.23066667m0-8.61516667c-3.03637816 0-5.50655659 2.4155-5.50655659 5.3845 0 2.96916667 2.47017843 5.3846667 5.50655659 5.3846667s5.50655658-2.41550003 5.50655658-5.3846667c0-2.969-2.47017842-5.3845-5.50655658-5.3845" mask="url(#h)" transform="translate(37.326232 3.166667)"/><path d="m56.1663489 5.53423333c-1.8216565 0-3.3039681 1.44916667-3.3039681 3.23083334v5.08533333h-2.2025885v-5.08533333c0-2.96916667 2.4701784-5.38466667 5.5065566-5.38466667h.1542476v2.15383333"/><path d="m62.9284133 5.53423333c-1.8216564 0-3.303968 1.44916667-3.303968 3.23083334v5.08533333h-2.2025886v-5.08533333c0-2.96916667 2.4701785-5.38466667 5.5065566-5.38466667h.1542477v2.15383333"/><path d="m5.60534328 8.67941667c-1.82165646 0-3.30396805-1.44916667-3.30396805-3.23066667s1.48231159-3.23083333 3.30396805-3.23083333c1.82165645 0 3.30396804 1.44933333 3.30396804 3.23083333s-1.48231159 3.23066667-3.30396804 3.23066667m0-8.61516667c-3.03620773 0-5.5065566 2.4155-5.5065566 5.3845 0 2.96916667 2.47034887 5.3846667 5.5065566 5.3846667 3.03620772 0 5.50655662-2.41550003 5.50655662-5.3846667 0-2.969-2.4703489-5.3845-5.50655662-5.3845" mask="url(#i)" transform="translate(64.08522 3.166667)"/><path d="m30.8364442 3.23085c-1.3147696 0-2.4960852.56666667-3.303968 1.46283333-.8078829-.89616666-1.989028-1.46283333-3.3039681-1.46283333-2.4289321 0-4.4051771 1.93233333-4.4051771 4.30766667v6.31200003h2.202759v-6.31200003c0-1.18766667.9880373-2.15383334 2.2024181-2.15383334 1.2145513 0 2.202759.96616667 2.202759 2.15383334v6.31200003h2.2025886v-6.31200003c0-1.18766667.9882077-2.15383334 2.2025885-2.15383334s2.2025886.96616667 2.2025886 2.15383334v6.31200003h2.2025885v-6.31200003c0-2.37533334-1.976245-4.30766667-4.4051771-4.30766667"/></g><path d="m110.356504 3.23085c-1.31477 0-2.496256.56666667-3.303968 1.46283333-.807713-.89616666-1.989199-1.46283333-3.303968-1.46283333-2.428932 0-4.4050069 1.93233333-4.4050069 4.30766667v6.31200003h2.2025889v-6.31200003c0-1.18766667.988037-2.15383334 2.202418-2.15383334 1.214551 0 2.202588.96616667 2.202588 2.15383334v6.31200003h2.202759v-6.31200003c0-1.18766667.988038-2.15383334 2.202589-2.15383334 1.214381 0 2.202588.96616667 2.202588 2.15383334v6.31200003h2.202589v-6.31200003c0-2.37533334-1.976075-4.30766667-4.405177-4.30766667" fill="#56bff4"/><path d="m13.2358306.04708333v6.31183334c0 1.18766666-.9882077 2.15383333-2.202759 2.15383333-1.21438079 0-2.20258851-.96616667-2.20258851-2.15383333v-6.31183334h-2.20258855v6.31183334c0 1.18766666-.98803728 2.15383333-2.20241811 2.15383333-1.21455126 0-2.20275899-.96616667-2.20275899-2.15383333v-6.31183334h-2.20258855v6.31183334c0 2.37533333 1.97624501 4.30783333 4.40534754 4.30783333 1.3145992 0 2.49591478-.567 3.3037976-1.46316667.80788283.89616667 1.98902797 1.46316667 3.30379757 1.46316667 2.4291026 0 4.4053476-1.9325 4.4053476-4.30783333v-6.31183334z" fill="#fff" mask="url(#j)" transform="translate(77.379494 3.333333)"/><path d="m5.50647137 5.38465v-2.00416667h-3.3037976v-3.3805h-2.20275899v9.54266667c0 2.3753333 1.97624501 4.3078333 4.40534754 4.3078333v-2.154c-1.21455127 0-2.20258855-.9661666-2.20258855-2.1538333v-4.158z" fill="#fff" mask="url(#k)"/><path d="m97.0376011 12.6559667c0 .7423333-.6152863 1.344-1.3744235 1.344-.7591371 0-1.3744234-.6016667-1.3744234-1.344 0-.7421667.6152863-1.3438334 1.3744234-1.3438334.7591372 0 1.3744235.6016667 1.3744235 1.3438334" fill="#56bff4"/><path d="m2.3608245 4.3604c.37973902-1.36 1.57008788-2.32883333 3.18858056-2.32883333 1.60570972 0 2.82128362.9825 3.18568309 2.32883333zm8.6220186 1.08833333c.0477231-3.14933333-2.39723032-5.3845-5.43343804-5.3845-3.03637816 0-5.50655659 2.4155-5.50655659 5.3845 0 2.96916667 2.34115579 5.38466667 5.50655659 5.38466667 2.57329427 0 4.44318509-1.488 5.19908384-3.56316667h-2.44018104c-.44723303 1.07083334-1.50276432 1.63583334-2.7589028 1.63583334-1.58167776 0-3.06893209-1.12933334-3.27976565-2.714h8.67212779s.0322131-.17366667.0410759-.74333334z" fill="#56bff4" mask="url(#l)" transform="translate(116.921438 3.166667)"/></g><g fill="#fff"><path d="m19 20v1.836h3.636v11.304h1.944v-11.304h3.636v-1.836z"/><g transform="translate(19 20)"><path d="m10.7817.7021h1.908v5.273c.312-.395.705-.713 1.179-.954.474-.239 1.005-.359 1.593-.359 1.14 0 2.034.345 2.682 1.035s.972 1.652.972 2.889v5.256h-1.962v-5.077c0-.755-.18-1.349-.54-1.782-.36-.431-.906-.647-1.638-.647-.324 0-.624.059-.9.179-.276.121-.516.289-.72.504-.204.216-.363.484-.477.801-.114.319-.171.676-.171 1.071v4.951h-1.926z"/><path d="m25.3076 6.3721c-.66 0-1.23.183-1.71.549s-.816.837-1.008 1.413h5.382c-.168-.636-.483-1.122-.945-1.458s-1.035-.504-1.719-.504m-.036 7.649c-.708 0-1.35-.123-1.926-.369-.576-.245-1.065-.578-1.467-.999-.402-.419-.711-.911-.927-1.475s-.324-1.164-.324-1.8c0-.66.12-1.278.36-1.855.24-.575.567-1.073.981-1.493s.906-.753 1.476-.999 1.185-.369 1.845-.369 1.275.114 1.845.342c.57.227 1.062.549 1.476.963s.738.903.972 1.467.351 1.182.351 1.854v.666h-7.47c.108.695.408 1.269.9 1.719s1.134.675 1.926.675c.624 0 1.143-.138 1.557-.414s.705-.648.873-1.117h2.07c-.348.997-.897 1.78-1.647 2.35s-1.707.854-2.871.854"/><path d="m40.6074 6.3721c-.66 0-1.23.183-1.71.549s-.816.837-1.008 1.413h5.382c-.168-.636-.483-1.122-.945-1.458s-1.035-.504-1.719-.504m-.036 7.649c-.708 0-1.35-.123-1.926-.369-.576-.245-1.065-.578-1.467-.999-.402-.419-.711-.911-.927-1.475s-.324-1.164-.324-1.8c0-.66.12-1.278.36-1.855.24-.575.567-1.073.981-1.493s.906-.753 1.476-.999 1.185-.369 1.845-.369 1.275.114 1.845.342c.57.227 1.062.549 1.476.963s.738.903.972 1.467.351 1.182.351 1.854v.666h-7.47c.108.695.408 1.269.9 1.719s1.134.675 1.926.675c.624 0 1.143-.138 1.557-.414s.705-.648.873-1.117h2.07c-.348.997-.897 1.78-1.647 2.35s-1.707.854-2.871.854"/><path d="m51.2813 12.2578c.408 0 .786-.078 1.134-.234s.648-.366.9-.63.45-.573.594-.927.216-.735.216-1.143c0-.396-.072-.771-.216-1.125s-.342-.663-.594-.927-.552-.474-.9-.63c-.348-.155-.726-.234-1.134-.234-.396 0-.768.075-1.116.225s-.651.357-.909.621-.459.573-.603.927-.216.735-.216 1.143.072.792.216 1.152.345.673.603.936c.258.264.561.471.909.621s.72.225 1.116.225m-.27 1.764c-.576 0-1.131-.111-1.665-.333s-1.011-.534-1.431-.936-.756-.891-1.008-1.467-.378-1.224-.378-1.944.123-1.368.369-1.944.576-1.068.99-1.476.894-.72 1.44-.936 1.113-.324 1.701-.324c.6 0 1.164.12 1.692.36s.96.57 1.296.99v-1.17h1.926v9h-1.926v-1.242c-.348.444-.786.792-1.314 1.044s-1.092.378-1.692.378"/><path d="m60.749 14.0215c-1.044 0-1.86-.255-2.448-.765-.588-.509-.882-1.268-.882-2.277h1.962v.036c.012.468.15.805.414 1.008.264.204.594.307.99.307.42 0 .735-.103.945-.307.21-.203.315-.48.315-.828 0-.18-.057-.332-.171-.459-.114-.126-.267-.236-.459-.333-.192-.096-.414-.183-.666-.261s-.51-.165-.774-.261c-.288-.095-.57-.21-.846-.341-.276-.132-.525-.3-.747-.504s-.402-.451-.54-.739-.207-.641-.207-1.062c0-.348.066-.678.198-.989.132-.313.327-.585.585-.82.258-.234.576-.42.954-.557.378-.138.807-.207 1.287-.207.96 0 1.725.24 2.295.719.57.481.855 1.164.855 2.052h-1.89v-.017c0-.781-.408-1.17-1.224-1.17-.384 0-.669.095-.855.288-.186.191-.279.425-.279.701 0 .169.057.312.171.432.114.121.267.228.459.325.192.095.411.185.657.269s.501.174.765.271c.288.107.57.227.846.359.276.133.522.3.738.504s.39.45.522.738.198.636.198 1.044c0 .361-.066.711-.198 1.053-.132.343-.33.645-.594.909-.264.265-.594.478-.99.639-.396.162-.858.243-1.386.243"/><path d="m65.411 13.842h1.944v-9h-1.944zm-.324-11.682c0-.384.12-.696.36-.936s.552-.36.936-.36.696.12.936.36.36.552.36.936-.12.695-.36.936c-.24.24-.552.36-.936.36s-.696-.12-.936-.36c-.24-.241-.36-.552-.36-.936z" mask="url(#m)"/><path d="m73.5649 6.3721c-.66 0-1.23.183-1.71.549s-.816.837-1.008 1.413h5.382c-.168-.636-.483-1.122-.945-1.458s-1.035-.504-1.719-.504m-.036 7.649c-.708 0-1.35-.123-1.926-.369-.576-.245-1.065-.578-1.467-.999-.402-.419-.711-.911-.927-1.475s-.324-1.164-.324-1.8c0-.66.12-1.278.36-1.855.24-.575.567-1.073.981-1.493s.906-.753 1.476-.999 1.185-.369 1.845-.369 1.275.114 1.845.342c.57.227 1.062.549 1.476.963s.738.903.972 1.467.351 1.182.351 1.854v.666h-7.47c.108.695.408 1.269.9 1.719s1.134.675 1.926.675c.624 0 1.143-.138 1.557-.414s.705-.648.873-1.117h2.07c-.348.997-.897 1.78-1.647 2.35s-1.707.854-2.871.854" mask="url(#m)"/><path d="m82.7085 14.0215c-1.044 0-1.86-.255-2.448-.765-.588-.509-.882-1.268-.882-2.277h1.962v.036c.012.468.15.805.414 1.008.264.204.594.307.99.307.42 0 .735-.103.945-.307.21-.203.315-.48.315-.828 0-.18-.057-.332-.171-.459-.114-.126-.267-.236-.459-.333-.192-.096-.414-.183-.666-.261s-.51-.165-.774-.261c-.288-.095-.57-.21-.846-.341-.276-.132-.525-.3-.747-.504s-.402-.451-.54-.739-.207-.641-.207-1.062c0-.348.066-.678.198-.989.132-.313.327-.585.585-.82.258-.234.576-.42.954-.557.378-.138.807-.207 1.287-.207.96 0 1.725.24 2.295.719.57.481.855 1.164.855 2.052h-1.89v-.017c0-.781-.408-1.17-1.224-1.17-.384 0-.669.095-.855.288-.186.191-.279.425-.279.701 0 .169.057.312.171.432.114.121.267.228.459.325.192.095.411.185.657.269s.501.174.765.271c.288.107.57.227.846.359.276.133.522.3.738.504s.39.45.522.738.198.636.198 1.044c0 .361-.066.711-.198 1.053-.132.343-.33.645-.594.909-.264.265-.594.478-.99.639-.396.162-.858.243-1.386.243" mask="url(#m)"/><path d="m86.7944 4.8418h1.53v-2.124l1.944-1.062v3.186h1.908v1.728h-1.908v3.582c0 .408.021.735.063.981s.132.436.27.567c.138.132.33.219.576.261s.579.063.999.063v1.818h-.288c-.684 0-1.254-.06-1.71-.18s-.822-.321-1.098-.603c-.276-.281-.471-.657-.585-1.125s-.171-1.056-.171-1.764v-3.6h-1.53z" mask="url(#m)"/><path d="m98.2246 4.8242 1.98.018 2.016 6.389 2.412-6.389h1.872l2.304 6.444 2.16-6.444h1.944l-3.15 9h-1.854l-2.394-6.445-2.466 6.445h-1.89z" mask="url(#m)"/><path d="m118.2402 12.2578c.408 0 .786-.078 1.134-.234s.648-.366.9-.63.45-.573.594-.927.216-.735.216-1.143c0-.396-.072-.771-.216-1.125s-.342-.663-.594-.927-.552-.474-.9-.63c-.348-.155-.726-.234-1.134-.234-.396 0-.768.075-1.116.225s-.651.357-.909.621-.459.573-.603.927-.216.735-.216 1.143.072.792.216 1.152.345.673.603.936c.258.264.561.471.909.621s.72.225 1.116.225m-.27 1.764c-.576 0-1.131-.111-1.665-.333s-1.011-.534-1.431-.936-.756-.891-1.008-1.467-.378-1.224-.378-1.944.123-1.368.369-1.944.576-1.068.99-1.476.894-.72 1.44-.936 1.113-.324 1.701-.324c.6 0 1.164.12 1.692.36s.96.57 1.296.99v-1.17h1.926v9h-1.926v-1.242c-.348.444-.786.792-1.314 1.044s-1.092.378-1.692.378" mask="url(#m)"/><path d="m127.9238 13.374-3.726-8.532h2.07l2.628 6.246 2.484-6.246h2.034l-5.436 13.158h-1.98z" mask="url(#m)"/><path d="m139.1201 4.8418h1.53v-2.124l1.944-1.062v3.186h1.908v1.728h-1.908v3.582c0 .408.021.735.063.981s.132.436.27.567c.138.132.33.219.576.261s.579.063.999.063v1.818h-.288c-.684 0-1.254-.06-1.71-.18s-.822-.321-1.098-.603c-.276-.281-.471-.657-.585-1.125s-.171-1.056-.171-1.764v-3.6h-1.53z" mask="url(#m)"/><path d="m150.1719 12.2217c.384 0 .744-.074 1.08-.225.336-.15.63-.357.882-.621.252-.263.45-.57.594-.918.144-.347.216-.719.216-1.116 0-.396-.072-.767-.216-1.116-.144-.348-.342-.653-.594-.918-.252-.264-.546-.471-.882-.621s-.696-.225-1.08-.225c-.396 0-.762.075-1.098.225s-.627.357-.873.621c-.246.265-.438.57-.576.918-.138.349-.207.72-.207 1.116 0 .397.069.769.207 1.116.138.348.33.655.576.918.246.264.537.471.873.621.336.151.702.225 1.098.225m0 1.8c-.648 0-1.254-.12-1.818-.36s-1.059-.573-1.485-.999c-.426-.425-.759-.923-.999-1.494-.24-.57-.36-1.178-.36-1.827 0-.66.12-1.275.36-1.845s.573-1.065.999-1.485.921-.75 1.485-.99c.564-.239 1.17-.36 1.818-.36s1.254.121 1.818.36c.564.24 1.059.57 1.485.99s.759.915.999 1.485.36 1.185.36 1.845c0 .649-.12 1.257-.36 1.827-.24.571-.573 1.069-.999 1.494-.426.426-.921.759-1.485.999s-1.17.36-1.818.36" mask="url(#m)"/><path d="m165.7778 12.2578c.396 0 .768-.075 1.116-.225s.651-.357.909-.621c.258-.263.459-.576.603-.936s.216-.744.216-1.152-.072-.789-.216-1.143-.345-.663-.603-.927-.561-.471-.909-.621-.72-.225-1.116-.225c-.408 0-.786.079-1.134.234-.348.156-.648.366-.9.63s-.45.573-.594.927-.216.729-.216 1.125c0 .408.072.789.216 1.143s.342.663.594.927.552.474.9.63.726.234 1.134.234m.288 1.764c-.624 0-1.203-.111-1.737-.333s-.963-.543-1.287-.963v5.256h-1.908v-13.14h1.908v1.26c.336-.444.768-.795 1.296-1.053s1.098-.387 1.71-.387c.588 0 1.152.108 1.692.324s1.017.528 1.431.936.744.9.99 1.476.369 1.224.369 1.944-.126 1.368-.378 1.944-.585 1.065-.999 1.467-.891.714-1.431.936-1.092.333-1.656.333" mask="url(#m)"/><path d="m172.042 13.842h1.926v-13.14h-1.926z" mask="url(#m)"/><path d="m180.2671 12.2578c.408 0 .786-.078 1.134-.234s.648-.366.9-.63.45-.573.594-.927.216-.735.216-1.143c0-.396-.072-.771-.216-1.125s-.342-.663-.594-.927-.552-.474-.9-.63c-.348-.155-.726-.234-1.134-.234-.396 0-.768.075-1.116.225s-.651.357-.909.621-.459.573-.603.927-.216.735-.216 1.143.072.792.216 1.152.345.673.603.936c.258.264.561.471.909.621s.72.225 1.116.225m-.27 1.764c-.576 0-1.131-.111-1.665-.333s-1.011-.534-1.431-.936-.756-.891-1.008-1.467-.378-1.224-.378-1.944.123-1.368.369-1.944.576-1.068.99-1.476.894-.72 1.44-.936 1.113-.324 1.701-.324c.6 0 1.164.12 1.692.36s.96.57 1.296.99v-1.17h1.926v9h-1.926v-1.242c-.348.444-.786.792-1.314 1.044s-1.092.378-1.692.378" mask="url(#m)"/><path d="m186.873 4.8418h1.908v1.17c.312-.42.702-.75 1.17-.99s1.002-.36 1.602-.36c1.14 0 2.034.345 2.682 1.035s.972 1.653.972 2.889v5.256h-1.944v-5.094c0-.744-.183-1.332-.549-1.764s-.909-.648-1.629-.648c-.648 0-1.191.228-1.629.684s-.657 1.08-.657 1.872v4.95h-1.926z" mask="url(#m)"/><path d="m201.3809 4.8418h1.53v-.468c0-.696.06-1.281.18-1.755s.321-.852.603-1.134.66-.483 1.134-.603 1.065-.18 1.773-.18h.162v1.782c-.432 0-.774.024-1.026.072s-.444.141-.576.279-.216.33-.252.576-.054.574-.054.981v.45h1.908v1.728h-1.908v7.272h-1.944v-7.272h-1.53z" mask="url(#m)"/><path d="m212.019 12.2217c.384 0 .744-.074 1.08-.225.336-.15.63-.357.882-.621.252-.263.45-.57.594-.918.144-.347.216-.719.216-1.116 0-.396-.072-.767-.216-1.116-.144-.348-.342-.653-.594-.918-.252-.264-.546-.471-.882-.621s-.696-.225-1.08-.225c-.396 0-.762.075-1.098.225s-.627.357-.873.621c-.246.265-.438.57-.576.918-.138.349-.207.72-.207 1.116 0 .397.069.769.207 1.116.138.348.33.655.576.918.246.264.537.471.873.621.336.151.702.225 1.098.225m0 1.8c-.648 0-1.254-.12-1.818-.36s-1.059-.573-1.485-.999c-.426-.425-.759-.923-.999-1.494-.24-.57-.36-1.178-.36-1.827 0-.66.12-1.275.36-1.845s.573-1.065.999-1.485.921-.75 1.485-.99c.564-.239 1.17-.36 1.818-.36s1.254.121 1.818.36c.564.24 1.059.57 1.485.99s.759.915.999 1.485.36 1.185.36 1.845c0 .649-.12 1.257-.36 1.827-.24.571-.573 1.069-.999 1.494-.426.426-.921.759-1.485.999s-1.17.36-1.818.36" mask="url(#m)"/><path d="m218.229 4.8418h1.926v1.386c.24-.444.564-.785.972-1.026.408-.24.912-.36 1.512-.36h1.062v1.836h-1.35c-.792 0-1.353.216-1.683.648s-.495 1.116-.495 2.052v4.464h-1.944z" mask="url(#m)"/><path d="m229.6226 4.8418h1.53v-2.124l1.944-1.062v3.186h1.908v1.728h-1.908v3.582c0 .408.021.735.063.981s.132.436.27.567c.138.132.33.219.576.261s.579.063.999.063v1.818h-.288c-.684 0-1.254-.06-1.71-.18s-.822-.321-1.098-.603c-.276-.281-.471-.657-.585-1.125s-.171-1.056-.171-1.764v-3.6h-1.53z" mask="url(#m)"/><path d="m236.6787.7021h1.908v5.273c.312-.395.705-.713 1.179-.954.474-.239 1.005-.359 1.593-.359 1.14 0 2.034.345 2.682 1.035s.972 1.652.972 2.889v5.256h-1.962v-5.077c0-.755-.18-1.349-.54-1.782-.36-.431-.906-.647-1.638-.647-.324 0-.624.059-.9.179-.276.121-.516.289-.72.504-.204.216-.363.484-.477.801-.114.319-.171.676-.171 1.071v4.951h-1.926z" mask="url(#m)"/><path d="m251.2046 6.3721c-.66 0-1.23.183-1.71.549s-.816.837-1.008 1.413h5.382c-.168-.636-.483-1.122-.945-1.458s-1.035-.504-1.719-.504m-.036 7.649c-.708 0-1.35-.123-1.926-.369-.576-.245-1.065-.578-1.467-.999-.402-.419-.711-.911-.927-1.475s-.324-1.164-.324-1.8c0-.66.12-1.278.36-1.855.24-.575.567-1.073.981-1.493s.906-.753 1.476-.999 1.185-.369 1.845-.369 1.275.114 1.845.342c.57.227 1.062.549 1.476.963s.738.903.972 1.467.351 1.182.351 1.854v.666h-7.47c.108.695.408 1.269.9 1.719s1.134.675 1.926.675c.624 0 1.143-.138 1.557-.414s.705-.648.873-1.117h2.07c-.348.997-.897 1.78-1.647 2.35s-1.707.854-2.871.854" mask="url(#m)"/><path d="m261.7344 4.8418h1.53v-.468c0-.696.06-1.281.18-1.755s.321-.852.603-1.134.66-.483 1.134-.603 1.065-.18 1.773-.18h.162v1.782c-.432 0-.774.024-1.026.072s-.444.141-.576.279-.216.33-.252.576-.054.574-.054.981v.45h1.908v1.728h-1.908v7.272h-1.944v-7.272h-1.53z" mask="url(#m)"/><path d="m272.1021 14.0215c-1.152 0-2.037-.345-2.655-1.035s-.927-1.658-.927-2.906v-5.239h1.962v5.076c0 .756.177 1.347.531 1.773.354.427.873.64 1.557.64.612 0 1.119-.226 1.521-.675.402-.45.603-1.066.603-1.846v-4.968h1.926v9h-1.908v-1.188c-.276.421-.636.754-1.08.999-.444.246-.954.369-1.53.369" mask="url(#m)"/><path d="m278.0781 4.8418h1.53v-2.124l1.944-1.062v3.186h1.908v1.728h-1.908v3.582c0 .408.021.735.063.981s.132.436.27.567c.138.132.33.219.576.261s.579.063.999.063v1.818h-.288c-.684 0-1.254-.06-1.71-.18s-.822-.321-1.098-.603c-.276-.281-.471-.657-.585-1.125s-.171-1.056-.171-1.764v-3.6h-1.53z" mask="url(#m)"/><path d="m288.6797 14.0215c-1.152 0-2.037-.345-2.655-1.035s-.927-1.658-.927-2.906v-5.239h1.962v5.076c0 .756.177 1.347.531 1.773.354.427.873.64 1.557.64.612 0 1.119-.226 1.521-.675.402-.45.603-1.066.603-1.846v-4.968h1.926v9h-1.908v-1.188c-.276.421-.636.754-1.08.999-.444.246-.954.369-1.53.369" mask="url(#m)"/><path d="m295.1421 4.8418h1.926v1.386c.24-.444.564-.785.972-1.026.408-.24.912-.36 1.512-.36h1.062v1.836h-1.35c-.792 0-1.353.216-1.683.648s-.495 1.116-.495 2.052v4.464h-1.944z" mask="url(#m)"/><path d="m305.9419 6.3721c-.66 0-1.23.183-1.71.549s-.816.837-1.008 1.413h5.382c-.168-.636-.483-1.122-.945-1.458s-1.035-.504-1.719-.504m-.036 7.649c-.708 0-1.35-.123-1.926-.369-.576-.245-1.065-.578-1.467-.999-.402-.419-.711-.911-.927-1.475s-.324-1.164-.324-1.8c0-.66.12-1.278.36-1.855.24-.575.567-1.073.981-1.493s.906-.753 1.476-.999 1.185-.369 1.845-.369 1.275.114 1.845.342c.57.227 1.062.549 1.476.963s.738.903.972 1.467.351 1.182.351 1.854v.666h-7.47c.108.695.408 1.269.9 1.719s1.134.675 1.926.675c.624 0 1.143-.138 1.557-.414s.705-.648.873-1.117h2.07c-.348.997-.897 1.78-1.647 2.35s-1.707.854-2.871.854" mask="url(#m)"/><path d="m311.792 12.7617c0-.384.12-.695.36-.936.24-.24.552-.36.936-.36s.696.12.936.36c.24.241.36.552.36.936s-.12.696-.36.937c-.24.239-.552.359-.936.359s-.696-.12-.936-.359c-.24-.241-.36-.553-.36-.937" mask="url(#m)"/></g></g></g></svg>