<svg height="100" viewBox="0 0 320 100" width="320" xmlns="http://www.w3.org/2000/svg" xmlns:xlink="http://www.w3.org/1999/xlink"><mask id="a" fill="#fff"><path d="m.13106791.06425h11.01311319v10.7690833h-11.01311319z" fill="none"/></mask><mask id="b" fill="#fff"><path d="m.11792703.06425h11.01311317v10.7690833h-11.01311317z" fill="none"/></mask><mask id="c" fill="#fff"><path d="m.09878668.06425h11.01311322v10.7690833h-11.01311322z" fill="none"/></mask><mask id="d" fill="#fff"><path d="m.02012889.04708333h15.41829031v10.61958337h-15.41829031z" fill="none"/></mask><mask id="e" fill="#fff"><path d="m0 0h5.50647137v13.8504833h-5.50647137z" fill="none"/></mask><mask id="f" fill="#fff"><path d="m.04284847.06423333h10.94060823v10.76909997h-10.94060823z" fill="none"/></mask><mask id="g" fill="#fff"><path d="m.00009 0h29.99991v29.99985h-29.99991z" fill="none"/></mask><mask id="h" fill="#fff"><path d="m.0651.7115h9.937v14.2885h-9.937z" fill="none"/></mask><mask id="i" fill="#fff"><path d="m0 19h284.597v-18.468h-284.597z" fill="none"/></mask><g fill="none" fill-rule="evenodd" transform="translate(17 19)"><g transform="translate(0 44)"><g fill="#fff"><path d="m5.6376245 8.67941667c-1.8218269 0-3.30396804-1.44916667-3.30396804-3.23066667s1.48214114-3.23083333 3.30396804-3.23083333c1.82165646 0 3.3037976 1.44933333 3.3037976 3.23083333s-1.48214114 3.23066667-3.3037976 3.23066667m0-8.61516667c-3.03637816 0-5.50655659 2.4155-5.50655659 5.3845 0 2.96916667 2.47017843 5.3846667 5.50655659 5.3846667 3.03620772 0 5.5065566-2.41550003 5.5065566-5.3846667 0-2.969-2.47034888-5.3845-5.5065566-5.3845" mask="url(#a)" transform="translate(6.476698 3.166667)"/><path d="m5.62448362 8.67941667c-1.82165646 0-3.30396804-1.44916667-3.30396804-3.23066667s1.48231158-3.23083333 3.30396804-3.23083333 3.30396804 1.44933333 3.30396804 3.23083333-1.48231158 3.23066667-3.30396804 3.23066667m0-8.61516667c-3.03637816 0-5.50655659 2.4155-5.50655659 5.3845 0 2.96916667 2.47017843 5.3846667 5.50655659 5.3846667s5.50655658-2.41550003 5.50655658-5.3846667c0-2.969-2.47017842-5.3845-5.50655658-5.3845" mask="url(#b)" transform="translate(37.326232 3.166667)"/><path d="m56.1663489 5.53423333c-1.8216565 0-3.3039681 1.44916667-3.3039681 3.23083334v5.08533333h-2.2025885v-5.08533333c0-2.96916667 2.4701784-5.38466667 5.5065566-5.38466667h.1542476v2.15383333"/><path d="m62.9284133 5.53423333c-1.8216564 0-3.303968 1.44916667-3.303968 3.23083334v5.08533333h-2.2025886v-5.08533333c0-2.96916667 2.4701785-5.38466667 5.5065566-5.38466667h.1542477v2.15383333"/><path d="m5.60534328 8.67941667c-1.82165646 0-3.30396805-1.44916667-3.30396805-3.23066667s1.48231159-3.23083333 3.30396805-3.23083333c1.82165645 0 3.30396804 1.44933333 3.30396804 3.23083333s-1.48231159 3.23066667-3.30396804 3.23066667m0-8.61516667c-3.03620773 0-5.5065566 2.4155-5.5065566 5.3845 0 2.96916667 2.47034887 5.3846667 5.5065566 5.3846667 3.03620772 0 5.50655662-2.41550003 5.50655662-5.3846667 0-2.969-2.4703489-5.3845-5.50655662-5.3845" mask="url(#c)" transform="translate(64.08522 3.166667)"/><path d="m30.8364442 3.23085c-1.3147696 0-2.4960852.56666667-3.303968 1.46283333-.8078829-.89616666-1.989028-1.46283333-3.3039681-1.46283333-2.4289321 0-4.4051771 1.93233333-4.4051771 4.30766667v6.31200003h2.202759v-6.31200003c0-1.18766667.9880373-2.15383334 2.2024181-2.15383334 1.2145513 0 2.202759.96616667 2.202759 2.15383334v6.31200003h2.2025886v-6.31200003c0-1.18766667.9882077-2.15383334 2.2025885-2.15383334s2.2025886.96616667 2.2025886 2.15383334v6.31200003h2.2025885v-6.31200003c0-2.37533334-1.976245-4.30766667-4.4051771-4.30766667"/></g><path d="m110.356504 3.23085c-1.31477 0-2.496256.56666667-3.303968 1.46283333-.807713-.89616666-1.989199-1.46283333-3.303968-1.46283333-2.428932 0-4.4050069 1.93233333-4.4050069 4.30766667v6.31200003h2.2025889v-6.31200003c0-1.18766667.988037-2.15383334 2.202418-2.15383334 1.214551 0 2.202588.96616667 2.202588 2.15383334v6.31200003h2.202759v-6.31200003c0-1.18766667.988038-2.15383334 2.202589-2.15383334 1.214381 0 2.202588.96616667 2.202588 2.15383334v6.31200003h2.202589v-6.31200003c0-2.37533334-1.976075-4.30766667-4.405177-4.30766667" fill="#56bff4"/><path d="m13.2358306.04708333v6.31183334c0 1.18766666-.9882077 2.15383333-2.202759 2.15383333-1.21438079 0-2.20258851-.96616667-2.20258851-2.15383333v-6.31183334h-2.20258855v6.31183334c0 1.18766666-.98803728 2.15383333-2.20241811 2.15383333-1.21455126 0-2.20275899-.96616667-2.20275899-2.15383333v-6.31183334h-2.20258855v6.31183334c0 2.37533333 1.97624501 4.30783333 4.40534754 4.30783333 1.3145992 0 2.49591478-.567 3.3037976-1.46316667.80788283.89616667 1.98902797 1.46316667 3.30379757 1.46316667 2.4291026 0 4.4053476-1.9325 4.4053476-4.30783333v-6.31183334z" fill="#fff" mask="url(#d)" transform="translate(77.379494 3.333333)"/><path d="m5.50647137 5.38465v-2.00416667h-3.3037976v-3.3805h-2.20275899v9.54266667c0 2.3753333 1.97624501 4.3078333 4.40534754 4.3078333v-2.154c-1.21455127 0-2.20258855-.9661666-2.20258855-2.1538333v-4.158z" fill="#fff" mask="url(#e)"/><path d="m97.0376011 12.6559667c0 .7423333-.6152863 1.344-1.3744235 1.344-.7591371 0-1.3744234-.6016667-1.3744234-1.344 0-.7421667.6152863-1.3438334 1.3744234-1.3438334.7591372 0 1.3744235.6016667 1.3744235 1.3438334" fill="#56bff4"/><path d="m2.3608245 4.3604c.37973902-1.36 1.57008788-2.32883333 3.18858056-2.32883333 1.60570972 0 2.82128362.9825 3.18568309 2.32883333zm8.6220186 1.08833333c.0477231-3.14933333-2.39723032-5.3845-5.43343804-5.3845-3.03637816 0-5.50655659 2.4155-5.50655659 5.3845 0 2.96916667 2.34115579 5.38466667 5.50655659 5.38466667 2.57329427 0 4.44318509-1.488 5.19908384-3.56316667h-2.44018104c-.44723303 1.07083334-1.50276432 1.63583334-2.7589028 1.63583334-1.58167776 0-3.06893209-1.12933334-3.27976565-2.714h8.67212779s.0322131-.17366667.0410759-.74333334z" fill="#56bff4" mask="url(#f)" transform="translate(116.921438 3.166667)"/></g><g transform="translate(252 36)"><path d="m29.93049 13.57485-6.2541-1.1106-.4728-2.6205-.3837-2.127v2.127 3.2439h-3.4677c-.0027-.003-.0054-.0057-.0081-.0087.5427.6105 1.0875 1.296 1.5927 2.0673.0057.0087.0099.0177.015.0267.6747 1.0812 1.0647 2.3586 1.0647 3.7269 0 3.8925-3.1554 7.0482-7.0479 7.0482s-7.0479-3.1557-7.0479-7.0482c0-1.3785.396-2.6643 1.08-3.7506.006-.0102.012-.0207.018-.0309.6291-1.0515 1.3704-2.0109 2.2188-2.8854-.0828-.1053-.1344-.2364-.1344-.381 0-.3405.2751-.6165.6153-.6186h-.4302c-.27 0-.489-.219-.489-.489v-.2592c0-.2703.219-.4893.489-.4893h-.2358c-.2886 0-.5229-.234-.5229-.5229v-.1917c0-.2886.2343-.5229.5229-.5229h.3237c-.282 0-.5106-.2283-.5106-.5103v-.2166c0-.2217.1422-.4086.3399-.4791-.1794-.2133-.3537-.4311-.5421-.636-.2472-.2685-.2535-.558-.0774-.849.2868-.4737.7206-.7566 1.2738-.9249.2913.5736.564 1.1106.8364 1.6473.0153-.0051.0306-.0102.0456-.015-.1575-.5364-.4053-1.3488-.5544-1.8873-.1251-.4512-.0678-.7269.228-.8094.5565-.1551 1.125-.2982 1.6977-.3588.8043-.0849 1.6077.0024 2.3793.2682.2133.0735.4113.1914.6315.2961l-.7974 1.914c.015.0099.0303.0201.0453.03.2529-.3306.5061-.6615.8175-1.0686.2508.2829.5154.5154.6945.8013.1947.3105.1611.6687-.0819.9576-.2172.2577-.4395.5112-.6591.7668l.3987.399h1.7937v-.6117h8.6307c-2.6016-4.4634-7.4376-7.4721-12.9657-7.4721-8.2713 0-15 6.729-15 15s6.7287 15 15 15c8.271 0 15-6.729 15-15 0-.4809-.0252-.9558-.0696-1.425" fill="#4cbef6" mask="url(#g)"/><path d="m18.08232 11.77032c.402.3852.8265.819 1.2528 1.2984v-1.7451h-.8157c-.0939.192-.2481.3483-.4371.4467" fill="#4cbef6"/><path d="m11.20524 7.55244c.0537-.0192.1107-.0315.171-.0315h.3321c.0045 0 .009-.0015.0135-.0015h1.6929c.0048 0 .0093.0015.0138.0015h.0189c.1089 0 .2091.0348.2922.0927.1758.1092.294.3024.294.525 0 .1002-.0261.1938-.069.2772l1.5264-1.5261c.2349-.2352.6159-.2352.8508 0l.0111.0111c.0102.0087.021.0153.0306.0249l.759.759c.2199-.2556.4422-.5091.6591-.7671.2433-.2886.2766-.6468.0819-.9573-.1791-.2862-.4437-.5184-.6945-.8016-.3114.4071-.5643.738-.8175 1.0689-.015-.0099-.03-.0201-.045-.0303l.7971-1.9137c-.2202-.105-.4182-.2229-.6312-.2964-.7716-.2658-1.575-.3528-2.3793-.2679-.573.0603-1.1412.2034-1.698.3588-.2955.0825-.3528.3579-.228.8094.1494.5385.3972 1.3509.5547 1.887-.0153.0051-.0303.0102-.0456.0153-.2727-.537-.5454-1.0737-.8367-1.6473-.5529.168-.987.4512-1.2735.9249-.1761.291-.1698.5802.0771.8487.1887.2052.363.423.5421.6363" fill="#0074b8"/><path d="m15.35055 20.82816v.7794h-.6999v-.7794c-.8667-.1035-1.3599-.819-1.3839-1.5429h.8589c.0399.5727.4455.8829.867.8829.4692 0 .819-.3819.819-.8274 0-.6756-.6519-.8826-1.2723-1.0815-.4452-.135-1.1373-.4611-1.1373-1.4073 0-.8592.5886-1.3602 1.2486-1.4952v-.7317h.6999v.7317c.7557.135 1.1691.7077 1.185 1.4076h-.7872c-.0477-.4854-.4137-.7557-.7557-.7557-.3897 0-.7395.3183-.7395.7635 0 .5808.477.7398 1.1688.9702.7317.2625 1.2486.7875 1.2486 1.5111 0 .6921-.477 1.3839-1.32 1.5747m5.601-5.6553c-.0048-.0087-.009-.018-.0147-.0264-.9051-1.3821-1.9386-2.4978-2.8545-3.3762v.0003c-.6381-.6117-1.218-1.1076-1.6569-1.4955-.0057-.0048-.0123-.0105-.0177-.0153v-.0003c-.135-.1194-.2577-.2295-.363-.3282-.0141-.087-.0219-.1761-.0219-.2673 0-.3789.1284-.7269.342-1.0062l-.4806-.4806-.7308.7455c-.2154.2199-.5691.2217-.7869.0039l-.4434-.4434c-.0474.0687-.1047.1302-.1749.1755-.0846.0621-.1881.0999-.3009.0999h-.0123c.0741 0 .1446.0159.2085.0438.2283.0909.3903.3132.3903.5739 0 .258-.1584.4788-.3828.5718-.066.03-.1386.048-.216.048h.0336c.144 0 .2721.0633.3618.1623.1239.1131.2034.2745.2034.4557 0 .18-.078.3405-.2007.4539-.0897.1008-.219.1656-.3645.1656h-.006c.1413 0 .2682.0597.3585.1548.1293.1134.2127.2781.2127.4638 0 .1851-.0831.3492-.2118.4629-.0903.0954-.2175.156-.3594.156h-.0477-1.6491-.0438c-.1974 0-.3714-.0942-.4845-.2382-.8484.8745-1.5897 1.8339-2.2188 2.8854-.006.0102-.012.0207-.018.0309-.6843 1.0863-1.08 2.3724-1.08 3.7509 0 3.8922 3.1554 7.0479 7.0479 7.0479s7.0479-3.1557 7.0479-7.0479c0-1.3686-.39-2.646-1.065-3.7272" fill="#0074b8"/><path d="m29.08674 9.84375h-5.883l.4728 2.6205 6.2541 1.1106c-.123-1.2984-.4101-2.5497-.8439-3.7311" fill="#e3f6fd"/><path d="m27.96591 7.47201h-8.631v2.3718h3.4851v-2.127l.3837 2.127h5.883c-.3039-.828-.6822-1.6194-1.1208-2.3718" fill="#fff"/><path d="m21.79893 12.62607c-.1812 0-.3279-.1467-.3279-.3279s.1467-.3279.3279-.3279.3279.1467.3279.3279-.1467.3279-.3279.3279zm-1.5012 0c-.1812 0-.3279-.1467-.3279-.3279s.1467-.3279.3279-.3279.3279.1467.3279.3279-.1467.3279-.3279.3279zm-.9627-2.7822v3.2247c.0057.0066.0114.0129.0171.0192h3.4677v-3.2439z" fill="#e3f6fd"/><path d="m15.42201 17.74248c-.6918-.2307-1.1688-.3897-1.1688-.9702 0-.4455.3498-.7635.7395-.7635.3417 0 .7077.2703.7554.7554h.7875c-.0159-.6999-.4296-1.2723-1.185-1.4076v-.7317h-.6999v.7317c-.66.1353-1.2486.6363-1.2486 1.4952 0 .9465.6918 1.2723 1.1373 1.4076.6201.1989 1.2723.4056 1.2723 1.0818 0 .4452-.3498.8271-.819.8271-.4215 0-.8274-.3102-.867-.8829h-.8589c.024.7239.5169 1.4394 1.3839 1.5429v.7794h.6999v-.7794c.843-.1908 1.32-.8829 1.32-1.5747 0-.7236-.5169-1.2486-1.2486-1.5111" fill="#fff"/><path d="m13.21281 8.4252h-.3441v-.6114h.3441c.1476 0 .2673.1368.2673.3057 0 .1686-.1197.3057-.2673.3057zm.2673.9555c0 .1689-.1197.3057-.2673.3057h-.3441v-.6114h.3441c.1476 0 .2673.1368.2673.3057zm0 1.2609c0 .1689-.1197.3057-.2673.3057h-.3441v-.6114h.3441c.1476 0 .2673.1371.2673.3057zm0 1.2057c0 .1689-.1197.3057-.2673.3057h-.3441v-.6114h.3441c.1476 0 .2673.1368.2673.3057zm4.0614-3.7638-1.158-1.158c-.0096-.0093-.0204-.0159-.0303-.0246l-.0114-.0114c-.2349-.2349-.6159-.2349-.8508 0l-.6447.6447.2721.2721-.2616.2616c-.1809.1809-.4188.2364-.5994.0555l-.2925.2925c.0426-.0837.069-.177.069-.2775 0-.2223-.1185-.4155-.2943-.5247-.0831-.0579-.1833-.0927-.2922-.0927h-.0189c-.0045-.0003-.009-.0015-.0138-.0015h-1.6926c-.0048 0-.0093.0012-.0138.0015h-.3321c-.282 0-.5106.2286-.5106.5106v.2163c0 .282.2286.5106.5106.5106h-.3237c-.2889 0-.5229.234-.5229.5229v.1917c0 .2889.234.5229.5229.5229h.2358c-.2703 0-.4893.219-.4893.489v.2592c0 .2703.219.4893.4893.4893h.4302c-.3402.0018-.6153.2778-.6153.6186 0 .3417.2769.6189.6189.6189h.0438 1.6488.048c.1419 0 .2688-.0606.3591-.156.129-.1137.2121-.2778.2121-.4629 0-.1857-.0834-.3504-.213-.4638-.09-.0948-.2169-.1548-.3582-.1548h.006c.1455 0 .2748-.0648.3645-.1656.1224-.1131.2007-.2739.2007-.4539 0-.1812-.0795-.3426-.2037-.4557-.0894-.099-.2175-.1623-.3615-.1623h-.0339c.0774 0 .1503-.0177.2163-.048.2244-.0927.3828-.3135.3828-.5718 0-.2607-.162-.4827-.3903-.5739-.0642-.0279-.1344-.0438-.2088-.0438h.0126c.1128 0 .2163-.0378.3006-.0999.0705-.0453.1278-.1068.1749-.1755l.4437.4434c.2178.2178.5712.216.7869-.0039l.7308-.7455.4806.4806c-.2136.2793-.342.6273-.342 1.0062 0 .0912.0078.1803.0219.2676.4488.4215 1.1925 1.029 2.0373 1.839.189-.0987.3432-.2547.4371-.447h.8157v-3.24z" fill="#a6e3fa"/><g fill="#fff"><path d="m13.48008 8.11947c0 .1689-.1197.3057-.2673.3057h-.3441v-.6114h.3441c.1476 0 .2673.1368.2673.3057"/><path d="m13.48008 11.84721c0 .1689-.1197.3057-.2673.3057h-.3441v-.6114h.3441c.1476 0 .2673.1371.2673.3057"/><path d="m13.48008 10.64166c0 .1689-.1197.306-.2673.306h-.3441v-.6117h.3441c.1476 0 .2673.1371.2673.3057"/><path d="m13.48008 9.38058c0 .1689-.1197.3057-.2673.3057h-.3441v-.6114h.3441c.1476 0 .2673.1371.2673.3057"/><path d="m15.11844 7.80645-.2616.2616c-.1809.1809-.4188.2361-.5994.0552l.5889-.5889z"/></g><path d="m19.96986 12.29823c0 .1812.1467.3279.3279.3279.1809 0 .3279-.1467.3279-.3279s-.147-.3279-.3279-.3279c-.1812 0-.3279.1467-.3279.3279" fill="#0074b8"/><path d="m21.47103 12.29823c0 .1812.1467.3279.3279.3279s.3279-.1467.3279-.3279-.1467-.3279-.3279-.3279-.3279.1467-.3279.3279" fill="#0074b8"/></g><circle cx="267" cy="51" r="15" stroke="#fff" stroke-width="2"/><g fill="#fff"><path d="m0 0v1.939h3.838v11.931h2.053v-11.931h3.837v-1.939z"/><path d="m11.3804.5322h2.014v5.567c.329-.418.744-.754 1.245-1.006.5-.254 1.06-.381 1.681-.381 1.204 0 2.147.364 2.831 1.092.684.729 1.026 1.746 1.026 3.05v5.548h-2.071v-5.358c0-.798-.19-1.425-.57-1.881s-.956-.684-1.729-.684c-.342 0-.658.064-.95.19-.291.127-.544.304-.76.532s-.383.51-.503.846c-.121.336-.181.713-.181 1.131v5.224h-2.033z"/><path d="m26.7134 6.5176c-.697 0-1.298.193-1.805.579-.507.387-.862.884-1.064 1.491h5.681c-.177-.671-.51-1.183-.998-1.538-.487-.354-1.092-.532-1.814-.532m-.038 8.075c-.748 0-1.425-.131-2.033-.389-.608-.26-1.124-.612-1.549-1.055-.424-.444-.75-.963-.978-1.558s-.342-1.228-.342-1.9c0-.696.127-1.349.38-1.957.253-.609.599-1.134 1.036-1.577.437-.444.956-.795 1.558-1.055.601-.259 1.25-.39 1.947-.39s1.346.121 1.948.362c.601.241 1.121.58 1.557 1.016.437.437.78.953 1.027 1.549.247.595.37 1.247.37 1.957v.703h-7.885c.114.735.431 1.339.95 1.815.519.474 1.197.712 2.033.712.659 0 1.206-.146 1.644-.437.437-.292.744-.684.921-1.179h2.185c-.367 1.052-.947 1.878-1.738 2.48-.792.602-1.803.903-3.031.903"/><path d="m43.1484 12.7305c.418 0 .811-.079 1.178-.237.367-.159.687-.377.959-.657.273-.278.485-.607.637-.987s.228-.785.228-1.216c0-.43-.076-.833-.228-1.207-.152-.373-.364-.699-.637-.978-.272-.279-.592-.497-.959-.655-.367-.159-.76-.238-1.178-.238-.431 0-.827.082-1.187.247-.362.164-.675.386-.941.665s-.475.605-.627.979c-.152.373-.228.769-.228 1.187 0 .431.076.833.228 1.206.152.374.361.701.627.979s.579.501.941.665c.36.165.756.247 1.187.247m.304 1.862c-.646 0-1.251-.131-1.815-.389-.563-.26-1.023-.624-1.377-1.093v1.292h-1.995v-13.87h2.014v5.643c.354-.443.807-.799 1.358-1.064.552-.266 1.15-.4 1.796-.4.62 0 1.216.115 1.786.343s1.074.558 1.511.988.785.95 1.044 1.558c.26.608.39 1.292.39 2.052s-.133 1.444-.399 2.052-.617 1.124-1.054 1.548c-.438.425-.938.754-1.501.989-.564.233-1.15.351-1.758.351"/><path d="m54.5293 12.7305c.43 0 .83-.082 1.197-.247.367-.164.684-.387.95-.665s.475-.605.627-.979c.152-.373.228-.775.228-1.206 0-.418-.076-.814-.228-1.187-.152-.374-.361-.7-.627-.979s-.583-.501-.95-.665c-.367-.165-.767-.247-1.197-.247-.418 0-.811.079-1.178.238-.367.158-.687.376-.96.655-.272.279-.484.605-.636.978-.152.374-.228.777-.228 1.207 0 .431.076.836.228 1.216s.364.709.636.987c.273.28.593.498.96.657.367.158.76.237 1.178.237m-.285 1.862c-.608 0-1.194-.118-1.757-.351-.564-.235-1.068-.564-1.511-.989-.444-.424-.798-.94-1.064-1.548s-.399-1.292-.399-2.052.13-1.444.39-2.052c.259-.608.607-1.128 1.044-1.558s.944-.76 1.52-.988c.577-.228 1.175-.343 1.796-.343.633 0 1.228.127 1.786.381.557.253 1.013.602 1.368 1.045v-1.235h2.033v9.5h-2.033v-1.311c-.367.469-.83.836-1.387 1.102-.558.266-1.153.399-1.786.399"/><path d="m5.0811 8.7305c.43 0 .83-.082 1.197-.247.367-.164.684-.387.95-.665s.475-.605.627-.979c.152-.373.228-.775.228-1.206 0-.418-.076-.814-.228-1.187-.152-.374-.361-.7-.627-.979s-.583-.501-.95-.665c-.367-.165-.767-.247-1.197-.247-.418 0-.811.079-1.178.238-.367.158-.687.376-.96.655-.272.279-.484.605-.636.978-.152.374-.228.777-.228 1.207 0 .431.076.836.228 1.216s.364.709.636.987c.273.28.593.498.96.657.367.158.76.237 1.178.237m-.285 1.862c-.608 0-1.194-.118-1.757-.351-.564-.235-1.068-.564-1.511-.989-.444-.424-.798-.94-1.064-1.548s-.399-1.292-.399-2.052.13-1.444.39-2.052c.259-.608.607-1.128 1.044-1.558s.944-.76 1.52-.988c.577-.228 1.175-.343 1.796-.343.633 0 1.225.134 1.776.4.552.265 1.011.627 1.378 1.083v-1.292h2.033v9.329c0 .722-.117 1.377-.352 1.967-.234.589-.56 1.089-.978 1.501-.418.411-.909.731-1.473.959-.563.228-1.175.342-1.833.342-.672 0-1.276-.089-1.815-.266-.538-.178-1.007-.428-1.406-.751-.398-.322-.731-.706-.997-1.149-.266-.444-.463-.925-.589-1.444h2.204c.19.531.481.956.874 1.273.392.316.975.475 1.748.475.38 0 .731-.073 1.054-.219.323-.145.599-.345.827-.598.228-.254.405-.555.532-.903.126-.348.19-.725.19-1.13v-1.235c-.367.482-.833.858-1.397 1.13-.563.273-1.162.409-1.795.409" mask="url(#h)" transform="translate(61 4)"/><path d="m72.826 10.489h7.03v-1.767h-7.03z" mask="url(#i)"/><path d="m86.2588 12.6924c.405 0 .785-.079 1.14-.237.355-.159.665-.377.931-.656s.475-.601.627-.969c.152-.367.228-.76.228-1.178s-.076-.811-.228-1.178-.361-.69-.627-.969-.576-.497-.931-.656c-.355-.158-.735-.237-1.14-.237-.418 0-.805.079-1.159.237-.355.159-.662.377-.922.656-.259.279-.462.602-.607.969-.146.367-.219.76-.219 1.178s.073.811.219 1.178c.145.368.348.69.607.969.26.279.567.497.922.656.354.158.741.237 1.159.237m0 1.9c-.684 0-1.324-.127-1.919-.38-.596-.253-1.118-.605-1.567-1.054-.45-.45-.802-.976-1.055-1.577-.253-.602-.38-1.245-.38-1.929 0-.696.127-1.346.38-1.947.253-.602.605-1.124 1.055-1.568.449-.443.971-.792 1.567-1.045.595-.254 1.235-.38 1.919-.38s1.324.126 1.919.38c.595.253 1.118.602 1.567 1.045.45.444.802.966 1.055 1.568.253.601.38 1.251.38 1.947 0 .684-.127 1.327-.38 1.929-.253.601-.605 1.127-1.055 1.577-.449.449-.972.801-1.567 1.054s-1.235.38-1.919.38" mask="url(#i)"/><path d="m92.0342 4.9023h1.615v-.494c0-.735.063-1.352.19-1.853.127-.5.339-.899.637-1.197.297-.297.696-.51 1.197-.636.5-.127 1.124-.19 1.871-.19h.171v1.881c-.456 0-.817.025-1.083.076s-.469.149-.608.295c-.139.145-.228.348-.266.607-.038.26-.057.606-.057 1.036v.475h2.014v1.824h-2.014v7.676h-2.052v-7.676h-1.615z" mask="url(#i)"/><path d="m99.141 10.489h7.03v-1.767h-7.03z" mask="url(#i)"/><path d="m107.9565 4.9023h2.014v1.14c.304-.418.693-.744 1.168-.979.475-.233 1.017-.351 1.625-.351.76 0 1.402.152 1.928.456s.928.722 1.207 1.254c.329-.532.769-.95 1.32-1.254s1.181-.456 1.891-.456c1.292 0 2.27.361 2.935 1.083s.998 1.691.998 2.907v5.7h-2.071v-5.567c0-.722-.187-1.295-.561-1.719-.373-.425-.921-.637-1.643-.637-.646 0-1.185.216-1.615.646-.431.43-.646 1.071-.646 1.919v5.358h-2.052v-5.662c0-.696-.187-1.247-.561-1.653s-.902-.608-1.586-.608c-.672 0-1.226.222-1.663.665-.437.444-.655 1.102-.655 1.976v5.282h-2.033z" mask="url(#i)"/><path d="m129.5781 12.6924c.405 0 .785-.079 1.14-.237.355-.159.665-.377.931-.656s.475-.601.627-.969c.152-.367.228-.76.228-1.178s-.076-.811-.228-1.178-.361-.69-.627-.969-.576-.497-.931-.656c-.355-.158-.735-.237-1.14-.237-.418 0-.805.079-1.159.237-.355.159-.662.377-.922.656-.259.279-.462.602-.607.969-.146.367-.219.76-.219 1.178s.073.811.219 1.178c.145.368.348.69.607.969.26.279.567.497.922.656.354.158.741.237 1.159.237m0 1.9c-.684 0-1.324-.127-1.919-.38-.596-.253-1.118-.605-1.567-1.054-.45-.45-.802-.976-1.055-1.577-.253-.602-.38-1.245-.38-1.929 0-.696.127-1.346.38-1.947.253-.602.605-1.124 1.055-1.568.449-.443.971-.792 1.567-1.045.595-.254 1.235-.38 1.919-.38s1.324.126 1.919.38c.595.253 1.118.602 1.567 1.045.45.444.802.966 1.055 1.568.253.601.38 1.251.38 1.947 0 .684-.127 1.327-.38 1.929-.253.601-.605 1.127-1.055 1.577-.449.449-.972.801-1.567 1.054s-1.235.38-1.919.38" mask="url(#i)"/><path d="m136.1333 4.9023h2.014v1.235c.329-.443.741-.792 1.235-1.045s1.057-.38 1.691-.38c1.203 0 2.147.364 2.831 1.092.684.729 1.026 1.745 1.026 3.05v5.548h-2.052v-5.377c0-.785-.194-1.406-.58-1.862s-.959-.684-1.719-.684c-.684 0-1.258.24-1.72.722-.462.481-.693 1.14-.693 1.976v5.225h-2.033z" mask="url(#i)"/><path d="m151.4658 6.5176c-.697 0-1.298.193-1.805.579-.507.387-.862.884-1.064 1.491h5.681c-.177-.671-.51-1.183-.998-1.538-.487-.354-1.092-.532-1.814-.532m-.038 8.075c-.748 0-1.425-.131-2.033-.389-.608-.26-1.124-.612-1.549-1.055-.424-.444-.75-.963-.978-1.558s-.342-1.228-.342-1.9c0-.696.127-1.349.38-1.957.253-.609.599-1.134 1.036-1.577.437-.444.956-.795 1.558-1.055.601-.259 1.25-.39 1.947-.39s1.346.121 1.948.362c.601.241 1.121.58 1.557 1.016.437.437.78.953 1.027 1.549.247.595.37 1.247.37 1.957v.703h-7.885c.114.735.431 1.339.95 1.815.519.474 1.197.712 2.033.712.659 0 1.206-.146 1.644-.437.437-.292.744-.684.921-1.179h2.185c-.367 1.052-.947 1.878-1.738 2.48-.792.602-1.803.903-3.031.903" mask="url(#i)"/><path d="m160.7378 13.9082-3.933-9.006h2.185l2.774 6.593 2.622-6.593h2.147l-5.738 13.889h-2.09z" mask="url(#i)"/><path d="m177.6479 12.7305c.43 0 .83-.082 1.197-.247.367-.164.684-.387.95-.665s.475-.605.627-.979c.152-.373.228-.775.228-1.206 0-.418-.076-.814-.228-1.187-.152-.374-.361-.7-.627-.979s-.583-.501-.95-.665c-.367-.165-.767-.247-1.197-.247-.418 0-.811.079-1.178.238-.367.158-.687.376-.96.655-.272.279-.484.605-.636.978-.152.374-.228.777-.228 1.207 0 .431.076.836.228 1.216s.364.709.636.987c.273.28.593.498.96.657.367.158.76.237 1.178.237m-.285 1.862c-.608 0-1.194-.118-1.757-.351-.564-.235-1.068-.564-1.511-.989-.444-.424-.798-.94-1.064-1.548s-.399-1.292-.399-2.052.13-1.444.39-2.052c.259-.608.607-1.128 1.044-1.558s.944-.76 1.52-.988c.577-.228 1.175-.343 1.796-.343.633 0 1.228.127 1.786.381.557.253 1.013.602 1.368 1.045v-5.605h2.014v13.87h-2.014v-1.311c-.367.469-.83.836-1.387 1.102-.558.266-1.153.399-1.786.399" mask="url(#i)"/><path d="m189.1045 6.5176c-.697 0-1.298.193-1.805.579-.507.387-.862.884-1.064 1.491h5.681c-.177-.671-.51-1.183-.998-1.538-.487-.354-1.092-.532-1.814-.532m-.038 8.075c-.748 0-1.425-.131-2.033-.389-.608-.26-1.124-.612-1.549-1.055-.424-.444-.75-.963-.978-1.558s-.342-1.228-.342-1.9c0-.696.127-1.349.38-1.957.253-.609.599-1.134 1.036-1.577.437-.444.956-.795 1.558-1.055.601-.259 1.25-.39 1.947-.39s1.346.121 1.948.362c.601.241 1.121.58 1.557 1.016.437.437.78.953 1.027 1.549.247.595.37 1.247.37 1.957v.703h-7.885c.114.735.431 1.339.95 1.815.519.474 1.197.712 2.033.712.659 0 1.206-.146 1.644-.437.437-.292.744-.684.921-1.179h2.185c-.367 1.052-.947 1.878-1.738 2.48-.792.602-1.803.903-3.031.903" mask="url(#i)"/><path d="m195.64 14.402h2.033v-13.87h-2.033z" mask="url(#i)"/><path d="m199.726 14.402h2.052v-9.5h-2.052zm-.343-12.331c0-.405.127-.734.38-.988.254-.253.583-.38.988-.38.406 0 .735.127.988.38.254.254.38.583.38.988 0 .406-.126.735-.38.989-.253.252-.582.379-.988.379-.405 0-.734-.127-.988-.379-.253-.254-.38-.583-.38-.989z" mask="url(#i)"/><path d="m203.1831 4.9023h2.128l2.546 6.878 2.508-6.878h2.09l-3.591 9.5h-2.033z" mask="url(#i)"/><path d="m217.8892 6.5176c-.697 0-1.298.193-1.805.579-.507.387-.862.884-1.064 1.491h5.681c-.177-.671-.51-1.183-.998-1.538-.487-.354-1.092-.532-1.814-.532m-.038 8.075c-.748 0-1.425-.131-2.033-.389-.608-.26-1.124-.612-1.549-1.055-.424-.444-.75-.963-.978-1.558s-.342-1.228-.342-1.9c0-.696.127-1.349.38-1.957.253-.609.599-1.134 1.036-1.577.437-.444.956-.795 1.558-1.055.601-.259 1.25-.39 1.947-.39s1.346.121 1.948.362c.601.241 1.121.58 1.557 1.016.437.437.78.953 1.027 1.549.247.595.37 1.247.37 1.957v.703h-7.885c.114.735.431 1.339.95 1.815.519.474 1.197.712 2.033.712.659 0 1.206-.146 1.644-.437.437-.292.744-.684.921-1.179h2.185c-.367 1.052-.947 1.878-1.738 2.48-.792.602-1.803.903-3.031.903" mask="url(#i)"/><path d="m224.4062 4.9023h2.033v1.463c.253-.469.595-.829 1.026-1.083.43-.253.962-.38 1.596-.38h1.121v1.938h-1.425c-.836 0-1.429.228-1.777.684s-.522 1.178-.522 2.166v4.712h-2.052z" mask="url(#i)"/><path d="m235.3311 13.9082-3.933-9.006h2.185l2.774 6.593 2.622-6.593h2.147l-5.738 13.889h-2.09z" mask="url(#i)"/><path d="m252.2417 12.7305c.43 0 .829-.082 1.196-.247.367-.164.685-.387.95-.665.266-.278.475-.605.627-.979.153-.373.229-.775.229-1.206 0-.418-.076-.814-.229-1.187-.152-.374-.361-.7-.627-.979-.265-.279-.583-.501-.95-.665-.367-.165-.766-.247-1.196-.247-.418 0-.812.079-1.179.238-.367.158-.686.376-.96.655-.271.279-.484.605-.635.978-.153.374-.228.777-.228 1.207 0 .431.075.836.228 1.216.151.38.364.709.635.987.274.28.593.498.96.657.367.158.761.237 1.179.237m-.285 1.862c-.609 0-1.194-.118-1.758-.351-.564-.235-1.067-.564-1.511-.989-.443-.424-.798-.94-1.063-1.548-.267-.608-.4-1.292-.4-2.052s.13-1.444.39-2.052.607-1.128 1.045-1.558c.437-.43.943-.76 1.519-.988.577-.228 1.176-.343 1.796-.343.634 0 1.229.127 1.787.381.556.253 1.013.602 1.367 1.045v-1.235h2.033v9.5h-2.033v-1.311c-.367.469-.829.836-1.387 1.102-.557.266-1.152.399-1.785.399" mask="url(#i)"/><path d="m264.1157 12.7305c.418 0 .811-.079 1.178-.237.367-.159.686-.377.96-.657.271-.278.484-.607.636-.987s.228-.785.228-1.216c0-.43-.076-.833-.228-1.207-.152-.373-.365-.699-.636-.978-.274-.279-.593-.497-.96-.655-.367-.159-.76-.238-1.178-.238-.431 0-.83.082-1.197.247-.367.164-.684.386-.95.665s-.475.605-.627.979c-.153.373-.228.769-.228 1.187 0 .431.075.833.228 1.206.152.374.361.701.627.979s.583.501.95.665c.367.165.766.247 1.197.247m.304 1.862c-.658 0-1.27-.118-1.834-.351-.563-.235-1.016-.574-1.358-1.017v5.548h-2.013v-13.87h2.013v1.33c.354-.469.811-.839 1.367-1.111.558-.273 1.16-.41 1.805-.41.621 0 1.217.115 1.787.343.571.228 1.074.558 1.51.988.438.43.785.95 1.045 1.558s.391 1.292.391 2.052-.134 1.444-.401 2.052c-.265.608-.617 1.124-1.053 1.548-.437.425-.941.754-1.511.989-.571.233-1.153.351-1.748.351" mask="url(#i)"/><path d="m275.6108 12.7305c.418 0 .811-.079 1.178-.237.367-.159.687-.377.959-.657.273-.278.485-.607.636-.987.153-.38.229-.785.229-1.216 0-.43-.076-.833-.229-1.207-.151-.373-.363-.699-.636-.978-.272-.279-.592-.497-.959-.655-.367-.159-.76-.238-1.178-.238-.431 0-.83.082-1.197.247-.367.164-.684.386-.949.665-.267.279-.476.605-.627.979-.153.373-.229.769-.229 1.187 0 .431.076.833.229 1.206.151.374.36.701.627.979.265.278.582.501.949.665.367.165.766.247 1.197.247m.304 1.862c-.659 0-1.271-.118-1.833-.351-.565-.235-1.017-.574-1.36-1.017v5.548h-2.013v-13.87h2.013v1.33c.356-.469.811-.839 1.369-1.111.557-.273 1.159-.41 1.805-.41.62 0 1.216.115 1.785.343.571.228 1.075.558 1.512.988s.785.95 1.045 1.558c.259.608.389 1.292.389 2.052s-.133 1.444-.399 2.052c-.265.608-.617 1.124-1.054 1.548-.438.425-.941.754-1.511.989-.57.233-1.154.351-1.748.351" mask="url(#i)"/><path d="m281.8608 13.2627c0-.405.127-.734.381-.988.253-.253.582-.38.988-.38.404 0 .735.127.987.38.253.254.38.583.38.988s-.127.734-.38.987c-.252.254-.583.38-.987.38-.406 0-.735-.126-.988-.38-.254-.253-.381-.582-.381-.987" mask="url(#i)"/></g></g></svg>