<?xml version="1.0" encoding="UTF-8"?>
<svg width="320px" height="100px" viewBox="0 0 320 100" version="1.1" xmlns="http://www.w3.org/2000/svg" xmlns:xlink="http://www.w3.org/1999/xlink">
    <!-- Generator: Sketch 50.2 (55047) - http://www.bohemiancoding.com/sketch -->
    <title>320x100</title>
    <desc>Created with Sketch.</desc>
    <defs>
        <polygon id="path-1" points="0.131067909 0.06425 11.1441811 0.06425 11.1441811 10.8333333 0.131067909 10.8333333"></polygon>
        <polygon id="path-3" points="0.117927031 0.06425 11.1310402 0.06425 11.1310402 10.8333333 0.117927031 10.8333333"></polygon>
        <polygon id="path-5" points="0.0987866844 0.06425 11.1118999 0.06425 11.1118999 10.8333333 0.0987866844 10.8333333"></polygon>
        <polygon id="path-7" points="0.0201288948 0.0470833333 15.4384192 0.0470833333 15.4384192 10.6666667 0.0201288948 10.6666667"></polygon>
        <polygon id="path-9" points="0 0 5.50647137 0 5.50647137 13.8504833 0 13.8504833"></polygon>
        <polygon id="path-11" points="0.0428484687 0.0642333333 10.9834567 0.0642333333 10.9834567 10.8333333 0.0428484687 10.8333333"></polygon>
        <polygon id="path-13" points="9e-05 0 30 0 30 29.99985 9e-05 29.99985"></polygon>
        <polygon id="path-15" points="0.0651 0.7115 10.0021 0.7115 10.0021 15 0.0651 15"></polygon>
        <polygon id="path-17" points="0 19 284.597 19 284.597 0.532 0 0.532"></polygon>
    </defs>
    <g id="320x100" stroke="none" stroke-width="1" fill="none" fill-rule="evenodd">
        <g id="Group" transform="translate(17.000000, 19.000000)">
            <g id="tomorrow.me" transform="translate(0.000000, 44.000000)">
                <g id="Page-1">
                    <g id="Group-3" transform="translate(6.476698, 3.166667)">
                        <mask id="mask-2" fill="white">
                            <use xlink:href="#path-1"></use>
                        </mask>
                        <g id="Clip-2"></g>
                        <path d="M5.6376245,8.67941667 C3.8157976,8.67941667 2.33365646,7.23025 2.33365646,5.44875 C2.33365646,3.66725 3.8157976,2.21791667 5.6376245,2.21791667 C7.45928096,2.21791667 8.9414221,3.66725 8.9414221,5.44875 C8.9414221,7.23025 7.45928096,8.67941667 5.6376245,8.67941667 M5.6376245,0.06425 C2.60124634,0.06425 0.131067909,2.47975 0.131067909,5.44875 C0.131067909,8.41791667 2.60124634,10.8334167 5.6376245,10.8334167 C8.67383222,10.8334167 11.1441811,8.41791667 11.1441811,5.44875 C11.1441811,2.47975 8.67383222,0.06425 5.6376245,0.06425" id="Fill-1" fill="#FFFFFF" mask="url(#mask-2)"></path>
                    </g>
                    <g id="Group-6" transform="translate(37.326232, 3.166667)">
                        <mask id="mask-4" fill="white">
                            <use xlink:href="#path-3"></use>
                        </mask>
                        <g id="Clip-5"></g>
                        <path d="M5.62448362,8.67941667 C3.80282716,8.67941667 2.32051558,7.23025 2.32051558,5.44875 C2.32051558,3.66725 3.80282716,2.21791667 5.62448362,2.21791667 C7.44614008,2.21791667 8.92845166,3.66725 8.92845166,5.44875 C8.92845166,7.23025 7.44614008,8.67941667 5.62448362,8.67941667 M5.62448362,0.06425 C2.58810546,0.06425 0.117927031,2.47975 0.117927031,5.44875 C0.117927031,8.41791667 2.58810546,10.8334167 5.62448362,10.8334167 C8.66086178,10.8334167 11.1310402,8.41791667 11.1310402,5.44875 C11.1310402,2.47975 8.66086178,0.06425 5.62448362,0.06425" id="Fill-4" fill="#FFFFFF" mask="url(#mask-4)"></path>
                    </g>
                    <path d="M56.1663489,5.53423333 C54.3446924,5.53423333 52.8623808,6.9834 52.8623808,8.76506667 L52.8623808,13.8504 L50.6597923,13.8504 L50.6597923,8.76506667 C50.6597923,5.7959 53.1299707,3.3804 56.1663489,3.3804 L56.3205965,3.3804 L56.3205965,5.53423333" id="Fill-7" fill="#FFFFFF"></path>
                    <path d="M62.9284133,5.53423333 C61.1067569,5.53423333 59.6244453,6.9834 59.6244453,8.76506667 L59.6244453,13.8504 L57.4218567,13.8504 L57.4218567,8.76506667 C57.4218567,5.7959 59.8920352,3.3804 62.9284133,3.3804 L63.082661,3.3804 L63.082661,5.53423333" id="Fill-9" fill="#FFFFFF"></path>
                    <g id="Group-13" transform="translate(64.085220, 3.166667)">
                        <mask id="mask-6" fill="white">
                            <use xlink:href="#path-5"></use>
                        </mask>
                        <g id="Clip-12"></g>
                        <path d="M5.60534328,8.67941667 C3.78368682,8.67941667 2.30137523,7.23025 2.30137523,5.44875 C2.30137523,3.66725 3.78368682,2.21791667 5.60534328,2.21791667 C7.42699973,2.21791667 8.90931132,3.66725 8.90931132,5.44875 C8.90931132,7.23025 7.42699973,8.67941667 5.60534328,8.67941667 M5.60534328,0.06425 C2.56913555,0.06425 0.0987866844,2.47975 0.0987866844,5.44875 C0.0987866844,8.41791667 2.56913555,10.8334167 5.60534328,10.8334167 C8.641551,10.8334167 11.1118999,8.41791667 11.1118999,5.44875 C11.1118999,2.47975 8.641551,0.06425 5.60534328,0.06425" id="Fill-11" fill="#FFFFFF" mask="url(#mask-6)"></path>
                    </g>
                    <path d="M30.8364442,3.23085 C29.5216746,3.23085 28.340359,3.79751667 27.5324762,4.69368333 C26.7245933,3.79751667 25.5434482,3.23085 24.2285081,3.23085 C21.799576,3.23085 19.823331,5.16318333 19.823331,7.53851667 L19.823331,13.8505167 L22.02609,13.8505167 L22.02609,7.53851667 C22.02609,6.35085 23.0141273,5.38468333 24.2285081,5.38468333 C25.4430594,5.38468333 26.4312671,6.35085 26.4312671,7.53851667 L26.4312671,13.8505167 L28.6338557,13.8505167 L28.6338557,7.53851667 C28.6338557,6.35085 29.6220634,5.38468333 30.8364442,5.38468333 C32.050825,5.38468333 33.0390328,6.35085 33.0390328,7.53851667 L33.0390328,13.8505167 L35.2416213,13.8505167 L35.2416213,7.53851667 C35.2416213,5.16318333 33.2653763,3.23085 30.8364442,3.23085" id="Fill-14" fill="#FFFFFF"></path>
                    <path d="M110.356504,3.23085 C109.041734,3.23085 107.860248,3.79751667 107.052536,4.69368333 C106.244823,3.79751667 105.063337,3.23085 103.748568,3.23085 C101.319636,3.23085 99.3435611,5.16318333 99.3435611,7.53851667 L99.3435611,13.8505167 L101.54615,13.8505167 L101.54615,7.53851667 C101.54615,6.35085 102.534187,5.38468333 103.748568,5.38468333 C104.963119,5.38468333 105.951156,6.35085 105.951156,7.53851667 L105.951156,13.8505167 L108.153915,13.8505167 L108.153915,7.53851667 C108.153915,6.35085 109.141953,5.38468333 110.356504,5.38468333 C111.570885,5.38468333 112.559092,6.35085 112.559092,7.53851667 L112.559092,13.8505167 L114.761681,13.8505167 L114.761681,7.53851667 C114.761681,5.16318333 112.785606,3.23085 110.356504,3.23085" id="Fill-16" fill="#56BFF4"></path>
                    <g id="Group-20" transform="translate(77.379494, 3.333333)">
                        <mask id="mask-8" fill="white">
                            <use xlink:href="#path-7"></use>
                        </mask>
                        <g id="Clip-19"></g>
                        <path d="M13.2358306,0.0470833333 L13.2358306,6.35891667 C13.2358306,7.54658333 12.2476229,8.51275 11.0330716,8.51275 C9.81869081,8.51275 8.83048309,7.54658333 8.83048309,6.35891667 L8.83048309,0.0470833333 L6.62789454,0.0470833333 L6.62789454,6.35891667 C6.62789454,7.54658333 5.63985726,8.51275 4.42547643,8.51275 C3.21092517,8.51275 2.22271744,7.54658333 2.22271744,6.35891667 L2.22271744,0.0470833333 L0.0201288948,0.0470833333 L0.0201288948,6.35891667 C0.0201288948,8.73425 1.9963739,10.66675 4.42547643,10.66675 C5.74007563,10.66675 6.92139121,10.09975 7.72927403,9.20358333 C8.53715686,10.09975 9.718302,10.66675 11.0330716,10.66675 C13.4621742,10.66675 15.4384192,8.73425 15.4384192,6.35891667 L15.4384192,0.0470833333 L13.2358306,0.0470833333 Z" id="Fill-18" fill="#FFFFFF" mask="url(#mask-8)"></path>
                    </g>
                    <g id="Group-23">
                        <mask id="mask-10" fill="white">
                            <use xlink:href="#path-9"></use>
                        </mask>
                        <g id="Clip-22"></g>
                        <path d="M5.50647137,5.38465 L5.50647137,3.38048333 L2.20267377,3.38048333 L2.20267377,-1.66666667e-05 L-8.52197071e-05,-1.66666667e-05 L-8.52197071e-05,9.54265 C-8.52197071e-05,11.9179833 1.97615979,13.8504833 4.40526232,13.8504833 L4.40526232,11.6964833 C3.19071105,11.6964833 2.20267377,10.7303167 2.20267377,9.54265 L2.20267377,5.38465 L5.50647137,5.38465 Z" id="Fill-21" fill="#FFFFFF" mask="url(#mask-10)"></path>
                    </g>
                    <path d="M97.0376011,12.6559667 C97.0376011,13.3983 96.4223148,13.9999667 95.6631776,13.9999667 C94.9040405,13.9999667 94.2887542,13.3983 94.2887542,12.6559667 C94.2887542,11.9138 94.9040405,11.3121333 95.6631776,11.3121333 C96.4223148,11.3121333 97.0376011,11.9138 97.0376011,12.6559667" id="Fill-24" fill="#56BFF4"></path>
                    <g id="Group-28" transform="translate(116.921438, 3.166667)">
                        <mask id="mask-12" fill="white">
                            <use xlink:href="#path-11"></use>
                        </mask>
                        <g id="Clip-27"></g>
                        <path d="M2.3608245,4.3604 C2.74056352,3.0004 3.93091238,2.03156667 5.54940506,2.03156667 C7.15511478,2.03156667 8.37068868,3.01406667 8.73508815,4.3604 L2.3608245,4.3604 Z M10.9828431,5.44873333 C11.0305662,2.2994 8.58561278,0.0642333333 5.54940506,0.0642333333 C2.5130269,0.0642333333 0.0428484687,2.47973333 0.0428484687,5.44873333 C0.0428484687,8.4179 2.38400426,10.8334 5.54940506,10.8334 C8.12269933,10.8334 9.99259015,9.3454 10.7484889,7.27023333 L8.30830786,7.27023333 C7.86107483,8.34106667 6.80554354,8.90606667 5.54940506,8.90606667 C3.9677273,8.90606667 2.48047297,7.77673333 2.26963941,6.19206667 L10.9417672,6.19206667 C10.9417672,6.19206667 10.9739803,6.0184 10.9828431,5.44873333 Z" id="Fill-26" fill="#56BFF4" mask="url(#mask-12)"></path>
                    </g>
                </g>
            </g>
            <g id="LifeIconDark" transform="translate(252.000000, 36.000000)">
                <g id="Page-1">
                    <g id="Group-3">
                        <mask id="mask-14" fill="white">
                            <use xlink:href="#path-13"></use>
                        </mask>
                        <g id="Clip-2"></g>
                        <path d="M29.93049,13.57485 L23.67639,12.46425 L23.20359,9.84375 L22.81989,7.71675 L22.81989,9.84375 L22.81989,13.08765 L19.35219,13.08765 C19.34949,13.08465 19.34679,13.08195 19.34409,13.07895 C19.88679,13.68945 20.43159,14.37495 20.93679,15.14625 C20.94249,15.15495 20.94669,15.16395 20.95179,15.17295 C21.62649,16.25415 22.01649,17.53155 22.01649,18.89985 C22.01649,22.79235 18.86109,25.94805 14.96859,25.94805 C11.07609,25.94805 7.92069,22.79235 7.92069,18.89985 C7.92069,17.52135 8.31669,16.23555 9.00069,15.14925 C9.00669,15.13905 9.01269,15.12855 9.01869,15.11835 C9.64779,14.06685 10.38909,13.10745 11.23749,12.23295 C11.15469,12.12765 11.10309,11.99655 11.10309,11.85195 C11.10309,11.51145 11.37819,11.23545 11.71839,11.23335 L11.28819,11.23335 C11.01819,11.23335 10.79919,11.01435 10.79919,10.74435 L10.79919,10.48515 C10.79919,10.21485 11.01819,9.99585 11.28819,9.99585 L11.05239,9.99585 C10.76379,9.99585 10.52949,9.76185 10.52949,9.47295 L10.52949,9.28125 C10.52949,8.99265 10.76379,8.75835 11.05239,8.75835 L11.37609,8.75835 C11.09409,8.75835 10.86549,8.53005 10.86549,8.24805 L10.86549,8.03145 C10.86549,7.80975 11.00769,7.62285 11.20539,7.55235 C11.02599,7.33905 10.85169,7.12125 10.66329,6.91635 C10.41609,6.64785 10.40979,6.35835 10.58589,6.06735 C10.87269,5.59365 11.30649,5.31075 11.85969,5.14245 C12.15099,5.71605 12.42369,6.25305 12.69609,6.78975 C12.71139,6.78465 12.72669,6.77955 12.74169,6.77475 C12.58419,6.23835 12.33639,5.42595 12.18729,4.88745 C12.06219,4.43625 12.11949,4.16055 12.41529,4.07805 C12.97179,3.92295 13.54029,3.77985 14.11299,3.71925 C14.91729,3.63435 15.72069,3.72165 16.49229,3.98745 C16.70559,4.06095 16.90359,4.17885 17.12379,4.28355 L16.32639,6.19755 C16.34139,6.20745 16.35669,6.21765 16.37169,6.22755 C16.62459,5.89695 16.87779,5.56605 17.18919,5.15895 C17.43999,5.44185 17.70459,5.67435 17.88369,5.96025 C18.07839,6.27075 18.04479,6.62895 17.80179,6.91785 C17.58459,7.17555 17.36229,7.42905 17.14269,7.68465 L17.54139,8.08365 L19.33509,8.08365 L19.33509,7.47195 L27.96579,7.47195 C25.36419,3.00855 20.52819,-0.00015 15.00009,-0.00015 C6.72879,-0.00015 9e-05,6.72885 9e-05,14.99985 C9e-05,23.27085 6.72879,29.99985 15.00009,29.99985 C23.27109,29.99985 30.00009,23.27085 30.00009,14.99985 C30.00009,14.51895 29.97489,14.04405 29.93049,13.57485" id="Fill-1" fill="#4CBEF6" mask="url(#mask-14)"></path>
                    </g>
                    <path d="M18.08232,11.77032 C18.48432,12.15552 18.90882,12.58932 19.33512,13.06872 L19.33512,11.32362 L18.51942,11.32362 C18.42552,11.51562 18.27132,11.67192 18.08232,11.77032" id="Fill-4" fill="#4CBEF6"></path>
                    <path d="M11.20524,7.55244 C11.25894,7.53324 11.31594,7.52094 11.37624,7.52094 L11.70834,7.52094 C11.71284,7.52094 11.71734,7.51944 11.72184,7.51944 L13.41474,7.51944 C13.41954,7.51944 13.42404,7.52094 13.42854,7.52094 L13.44744,7.52094 C13.55634,7.52094 13.65654,7.55574 13.73964,7.61364 C13.91544,7.72284 14.03364,7.91604 14.03364,8.13864 C14.03364,8.23884 14.00754,8.33244 13.96464,8.41584 L15.49104,6.88974 C15.72594,6.65454 16.10694,6.65454 16.34184,6.88974 L16.35294,6.90084 C16.36314,6.90954 16.37394,6.91614 16.38354,6.92574 L17.14254,7.68474 C17.36244,7.42914 17.58474,7.17564 17.80164,6.91764 C18.04494,6.62904 18.07824,6.27084 17.88354,5.96034 C17.70444,5.67414 17.43984,5.44194 17.18904,5.15874 C16.87764,5.56584 16.62474,5.89674 16.37154,6.22764 C16.35654,6.21774 16.34154,6.20754 16.32654,6.19734 L17.12364,4.28364 C16.90344,4.17864 16.70544,4.06074 16.49244,3.98724 C15.72084,3.72144 14.91744,3.63444 14.11314,3.71934 C13.54014,3.77964 12.97194,3.92274 12.41514,4.07814 C12.11964,4.16064 12.06234,4.43604 12.18714,4.88754 C12.33654,5.42604 12.58434,6.23844 12.74184,6.77454 C12.72654,6.77964 12.71154,6.78474 12.69624,6.78984 C12.42354,6.25284 12.15084,5.71614 11.85954,5.14254 C11.30664,5.31054 10.87254,5.59374 10.58604,6.06744 C10.40994,6.35844 10.41624,6.64764 10.66314,6.91614 C10.85184,7.12134 11.02614,7.33914 11.20524,7.55244" id="Fill-6" fill="#0074B8"></path>
                    <path d="M15.35055,20.82816 L15.35055,21.60756 L14.65065,21.60756 L14.65065,20.82816 C13.78395,20.72466 13.29075,20.00916 13.26675,19.28526 L14.12565,19.28526 C14.16555,19.85796 14.57115,20.16816 14.99265,20.16816 C15.46185,20.16816 15.81165,19.78626 15.81165,19.34076 C15.81165,18.66516 15.15975,18.45816 14.53935,18.25926 C14.09415,18.12426 13.40205,17.79816 13.40205,16.85196 C13.40205,15.99276 13.99065,15.49176 14.65065,15.35676 L14.65065,14.62506 L15.35055,14.62506 L15.35055,15.35676 C16.10625,15.49176 16.51965,16.06446 16.53555,16.76436 L15.74835,16.76436 C15.70065,16.27896 15.33465,16.00866 14.99265,16.00866 C14.60295,16.00866 14.25315,16.32696 14.25315,16.77216 C14.25315,17.35296 14.73015,17.51196 15.42195,17.74236 C16.15365,18.00486 16.67055,18.52986 16.67055,19.25346 C16.67055,19.94556 16.19355,20.63736 15.35055,20.82816 M20.95155,15.17286 C20.94675,15.16416 20.94255,15.15486 20.93685,15.14646 C20.03175,13.76436 18.99825,12.64866 18.08235,11.77026 L18.08235,11.77056 C17.44425,11.15886 16.86435,10.66296 16.42545,10.27506 C16.41975,10.27026 16.41315,10.26456 16.40775,10.25976 L16.40775,10.25946 C16.27275,10.14006 16.15005,10.02996 16.04475,9.93126 C16.03065,9.84426 16.02285,9.75516 16.02285,9.66396 C16.02285,9.28506 16.15125,8.93706 16.36485,8.65776 L15.88425,8.17716 L15.15345,8.92266 C14.93805,9.14256 14.58435,9.14436 14.36655,8.92656 L13.92315,8.48316 C13.87575,8.55186 13.81845,8.61336 13.74825,8.65866 C13.66365,8.72076 13.56015,8.75856 13.44735,8.75856 L13.43505,8.75856 C13.50915,8.75856 13.57965,8.77446 13.64355,8.80236 C13.87185,8.89326 14.03385,9.11556 14.03385,9.37626 C14.03385,9.63426 13.87545,9.85506 13.65105,9.94806 C13.58505,9.97806 13.51245,9.99606 13.43505,9.99606 L13.46865,9.99606 C13.61265,9.99606 13.74075,10.05936 13.83045,10.15836 C13.95435,10.27146 14.03385,10.43286 14.03385,10.61406 C14.03385,10.79406 13.95585,10.95456 13.83315,11.06796 C13.74345,11.16876 13.61415,11.23356 13.46865,11.23356 L13.46265,11.23356 C13.60395,11.23356 13.73085,11.29326 13.82115,11.38836 C13.95045,11.50176 14.03385,11.66646 14.03385,11.85216 C14.03385,12.03726 13.95075,12.20136 13.82205,12.31506 C13.73175,12.41046 13.60455,12.47106 13.46265,12.47106 L13.41495,12.47106 L11.76585,12.47106 L11.72205,12.47106 C11.52465,12.47106 11.35065,12.37686 11.23755,12.23286 C10.38915,13.10736 9.64785,14.06676 9.01875,15.11826 C9.01275,15.12846 9.00675,15.13896 9.00075,15.14916 C8.31645,16.23546 7.92075,17.52156 7.92075,18.90006 C7.92075,22.79226 11.07615,25.94796 14.96865,25.94796 C18.86115,25.94796 22.01655,22.79226 22.01655,18.90006 C22.01655,17.53146 21.62655,16.25406 20.95155,15.17286" id="Fill-8" fill="#0074B8"></path>
                    <path d="M29.08674,9.84375 L23.20374,9.84375 L23.67654,12.46425 L29.93064,13.57485 C29.80764,12.27645 29.52054,11.02515 29.08674,9.84375" id="Fill-10" fill="#E3F6FD"></path>
                    <path d="M27.96591,7.47201 L19.33491,7.47201 L19.33491,9.84381 L22.82001,9.84381 L22.82001,7.71681 L23.20371,9.84381 L29.08671,9.84381 C28.78281,9.01581 28.40451,8.22441 27.96591,7.47201" id="Fill-12" fill="#FFFFFF"></path>
                    <path d="M21.79893,12.62607 C21.61773,12.62607 21.47103,12.47937 21.47103,12.29817 C21.47103,12.11697 21.61773,11.97027 21.79893,11.97027 C21.98013,11.97027 22.12683,12.11697 22.12683,12.29817 C22.12683,12.47937 21.98013,12.62607 21.79893,12.62607 Z M20.29773,12.62607 C20.11653,12.62607 19.96983,12.47937 19.96983,12.29817 C19.96983,12.11697 20.11653,11.97027 20.29773,11.97027 C20.47893,11.97027 20.62563,12.11697 20.62563,12.29817 C20.62563,12.47937 20.47893,12.62607 20.29773,12.62607 Z M19.33503,9.84387 L19.33503,13.06857 C19.34073,13.07517 19.34643,13.08147 19.35213,13.08777 L22.81983,13.08777 L22.81983,9.84387 L19.33503,9.84387 Z" id="Fill-14" fill="#E3F6FD"></path>
                    <path d="M15.42201,17.74248 C14.73021,17.51178 14.25321,17.35278 14.25321,16.77228 C14.25321,16.32678 14.60301,16.00878 14.99271,16.00878 C15.33441,16.00878 15.70041,16.27908 15.74811,16.76418 L16.53561,16.76418 C16.51971,16.06428 16.10601,15.49188 15.35061,15.35658 L15.35061,14.62488 L14.65071,14.62488 L14.65071,15.35658 C13.99071,15.49188 13.40211,15.99288 13.40211,16.85178 C13.40211,17.79828 14.09391,18.12408 14.53941,18.25938 C15.15951,18.45828 15.81171,18.66498 15.81171,19.34118 C15.81171,19.78638 15.46191,20.16828 14.99271,20.16828 C14.57121,20.16828 14.16531,19.85808 14.12571,19.28538 L13.26681,19.28538 C13.29081,20.00928 13.78371,20.72478 14.65071,20.82828 L14.65071,21.60768 L15.35061,21.60768 L15.35061,20.82828 C16.19361,20.63748 16.67061,19.94538 16.67061,19.25358 C16.67061,18.52998 16.15371,18.00498 15.42201,17.74248" id="Fill-16" fill="#FFFFFF"></path>
                    <path d="M13.21281,8.4252 L12.86871,8.4252 L12.86871,7.8138 L13.21281,7.8138 C13.36041,7.8138 13.48011,7.9506 13.48011,8.1195 C13.48011,8.2881 13.36041,8.4252 13.21281,8.4252 Z M13.48011,9.3807 C13.48011,9.5496 13.36041,9.6864 13.21281,9.6864 L12.86871,9.6864 L12.86871,9.075 L13.21281,9.075 C13.36041,9.075 13.48011,9.2118 13.48011,9.3807 Z M13.48011,10.6416 C13.48011,10.8105 13.36041,10.9473 13.21281,10.9473 L12.86871,10.9473 L12.86871,10.3359 L13.21281,10.3359 C13.36041,10.3359 13.48011,10.473 13.48011,10.6416 Z M13.48011,11.8473 C13.48011,12.0162 13.36041,12.153 13.21281,12.153 L12.86871,12.153 L12.86871,11.5416 L13.21281,11.5416 C13.36041,11.5416 13.48011,11.6784 13.48011,11.8473 Z M17.54151,8.0835 L16.38351,6.9255 C16.37391,6.9162 16.36311,6.9096 16.35321,6.9009 L16.34181,6.8895 C16.10691,6.6546 15.72591,6.6546 15.49101,6.8895 L14.84631,7.5342 L15.11841,7.8063 L14.85681,8.0679 C14.67591,8.2488 14.43801,8.3043 14.25741,8.1234 L13.96491,8.4159 C14.00751,8.3322 14.03391,8.2389 14.03391,8.1384 C14.03391,7.9161 13.91541,7.7229 13.73961,7.6137 C13.65651,7.5558 13.55631,7.521 13.44741,7.521 L13.42851,7.521 C13.42401,7.5207 13.41951,7.5195 13.41471,7.5195 L11.72211,7.5195 C11.71731,7.5195 11.71281,7.5207 11.70831,7.521 L11.37621,7.521 C11.09421,7.521 10.86561,7.7496 10.86561,8.0316 L10.86561,8.2479 C10.86561,8.5299 11.09421,8.7585 11.37621,8.7585 L11.05251,8.7585 C10.76361,8.7585 10.52961,8.9925 10.52961,9.2814 L10.52961,9.4731 C10.52961,9.762 10.76361,9.996 11.05251,9.996 L11.28831,9.996 C11.01801,9.996 10.79901,10.215 10.79901,10.485 L10.79901,10.7442 C10.79901,11.0145 11.01801,11.2335 11.28831,11.2335 L11.71851,11.2335 C11.37831,11.2353 11.10321,11.5113 11.10321,11.8521 C11.10321,12.1938 11.38011,12.471 11.72211,12.471 L11.76591,12.471 L13.41471,12.471 L13.46271,12.471 C13.60461,12.471 13.73151,12.4104 13.82181,12.315 C13.95081,12.2013 14.03391,12.0372 14.03391,11.8521 C14.03391,11.6664 13.95051,11.5017 13.82091,11.3883 C13.73091,11.2935 13.60401,11.2335 13.46271,11.2335 L13.46871,11.2335 C13.61421,11.2335 13.74351,11.1687 13.83321,11.0679 C13.95561,10.9548 14.03391,10.794 14.03391,10.614 C14.03391,10.4328 13.95441,10.2714 13.83021,10.1583 C13.74081,10.0593 13.61271,9.996 13.46871,9.996 L13.43481,9.996 C13.51221,9.996 13.58511,9.9783 13.65111,9.948 C13.87551,9.8553 14.03391,9.6345 14.03391,9.3762 C14.03391,9.1155 13.87191,8.8935 13.64361,8.8023 C13.57941,8.7744 13.50921,8.7585 13.43481,8.7585 L13.44741,8.7585 C13.56021,8.7585 13.66371,8.7207 13.74801,8.6586 C13.81851,8.6133 13.87581,8.5518 13.92291,8.4831 L14.36661,8.9265 C14.58441,9.1443 14.93781,9.1425 15.15351,8.9226 L15.88431,8.1771 L16.36491,8.6577 C16.15131,8.937 16.02291,9.285 16.02291,9.6639 C16.02291,9.7551 16.03071,9.8442 16.04481,9.9315 C16.49361,10.353 17.23731,10.9605 18.08211,11.7705 C18.27111,11.6718 18.42531,11.5158 18.51921,11.3235 L19.33491,11.3235 L19.33491,8.0835 L17.54151,8.0835 Z" id="Fill-18" fill="#A6E3FA"></path>
                    <path d="M13.48008,8.11947 C13.48008,8.28837 13.36038,8.42517 13.21278,8.42517 L12.86868,8.42517 L12.86868,7.81377 L13.21278,7.81377 C13.36038,7.81377 13.48008,7.95057 13.48008,8.11947" id="Fill-20" fill="#FFFFFF"></path>
                    <path d="M13.48008,11.84721 C13.48008,12.01611 13.36038,12.15291 13.21278,12.15291 L12.86868,12.15291 L12.86868,11.54151 L13.21278,11.54151 C13.36038,11.54151 13.48008,11.67861 13.48008,11.84721" id="Fill-22" fill="#FFFFFF"></path>
                    <path d="M13.48008,10.64166 C13.48008,10.81056 13.36038,10.94766 13.21278,10.94766 L12.86868,10.94766 L12.86868,10.33596 L13.21278,10.33596 C13.36038,10.33596 13.48008,10.47306 13.48008,10.64166" id="Fill-24" fill="#FFFFFF"></path>
                    <path d="M13.48008,9.38058 C13.48008,9.54948 13.36038,9.68628 13.21278,9.68628 L12.86868,9.68628 L12.86868,9.07488 L13.21278,9.07488 C13.36038,9.07488 13.48008,9.21198 13.48008,9.38058" id="Fill-26" fill="#FFFFFF"></path>
                    <path d="M15.11844,7.80645 L14.85684,8.06805 C14.67594,8.24895 14.43804,8.30415 14.25744,8.12325 L14.84634,7.53435 L15.11844,7.80645 Z" id="Fill-28" fill="#FFFFFF"></path>
                    <path d="M19.96986,12.29823 C19.96986,12.47943 20.11656,12.62613 20.29776,12.62613 C20.47866,12.62613 20.62566,12.47943 20.62566,12.29823 C20.62566,12.11703 20.47866,11.97033 20.29776,11.97033 C20.11656,11.97033 19.96986,12.11703 19.96986,12.29823" id="Fill-30" fill="#0074B8"></path>
                    <path d="M21.47103,12.29823 C21.47103,12.47943 21.61773,12.62613 21.79893,12.62613 C21.98013,12.62613 22.12683,12.47943 22.12683,12.29823 C22.12683,12.11703 21.98013,11.97033 21.79893,11.97033 C21.61773,11.97033 21.47103,12.11703 21.47103,12.29823" id="Fill-32" fill="#0074B8"></path>
                </g>
            </g>
            <circle id="Oval" stroke="#FFFFFF" stroke-width="2" cx="267" cy="51" r="15"></circle>
            <polygon id="Fill-1" fill="#FFFFFF" points="0 0 0 1.939 3.838 1.939 3.838 13.87 5.891 13.87 5.891 1.939 9.728 1.939 9.728 0"></polygon>
            <g id="Group-35">
                <path d="M11.3804,0.5322 L13.3944,0.5322 L13.3944,6.0992 C13.7234,5.6812 14.1384,5.3452 14.6394,5.0932 C15.1394,4.8392 15.6994,4.7122 16.3204,4.7122 C17.5244,4.7122 18.4674,5.0762 19.1514,5.8042 C19.8354,6.5332 20.1774,7.5502 20.1774,8.8542 L20.1774,14.4022 L18.1064,14.4022 L18.1064,9.0442 C18.1064,8.2462 17.9164,7.6192 17.5364,7.1632 C17.1564,6.7072 16.5804,6.4792 15.8074,6.4792 C15.4654,6.4792 15.1494,6.5432 14.8574,6.6692 C14.5664,6.7962 14.3134,6.9732 14.0974,7.2012 C13.8814,7.4292 13.7144,7.7112 13.5944,8.0472 C13.4734,8.3832 13.4134,8.7602 13.4134,9.1782 L13.4134,14.4022 L11.3804,14.4022 L11.3804,0.5322 Z" id="Fill-2" fill="#FFFFFF"></path>
                <path d="M26.7134,6.5176 C26.0164,6.5176 25.4154,6.7106 24.9084,7.0966 C24.4014,7.4836 24.0464,7.9806 23.8444,8.5876 L29.5254,8.5876 C29.3484,7.9166 29.0154,7.4046 28.5274,7.0496 C28.0404,6.6956 27.4354,6.5176 26.7134,6.5176 M26.6754,14.5926 C25.9274,14.5926 25.2504,14.4616 24.6424,14.2036 C24.0344,13.9436 23.5184,13.5916 23.0934,13.1486 C22.6694,12.7046 22.3434,12.1856 22.1154,11.5906 C21.8874,10.9956 21.7734,10.3626 21.7734,9.6906 C21.7734,8.9946 21.9004,8.3416 22.1534,7.7336 C22.4064,7.1246 22.7524,6.5996 23.1894,6.1566 C23.6264,5.7126 24.1454,5.3616 24.7474,5.1016 C25.3484,4.8426 25.9974,4.7116 26.6944,4.7116 C27.3914,4.7116 28.0404,4.8326 28.6424,5.0736 C29.2434,5.3146 29.7634,5.6536 30.1994,6.0896 C30.6364,6.5266 30.9794,7.0426 31.2264,7.6386 C31.4734,8.2336 31.5964,8.8856 31.5964,9.5956 L31.5964,10.2986 L23.7114,10.2986 C23.8254,11.0336 24.1424,11.6376 24.6614,12.1136 C25.1804,12.5876 25.8584,12.8256 26.6944,12.8256 C27.3534,12.8256 27.9004,12.6796 28.3384,12.3886 C28.7754,12.0966 29.0824,11.7046 29.2594,11.2096 L31.4444,11.2096 C31.0774,12.2616 30.4974,13.0876 29.7064,13.6896 C28.9144,14.2916 27.9034,14.5926 26.6754,14.5926" id="Fill-4" fill="#FFFFFF"></path>
                <path d="M43.1484,12.7305 C43.5664,12.7305 43.9594,12.6515 44.3264,12.4935 C44.6934,12.3345 45.0134,12.1165 45.2854,11.8365 C45.5584,11.5585 45.7704,11.2295 45.9224,10.8495 C46.0744,10.4695 46.1504,10.0645 46.1504,9.6335 C46.1504,9.2035 46.0744,8.8005 45.9224,8.4265 C45.7704,8.0535 45.5584,7.7275 45.2854,7.4485 C45.0134,7.1695 44.6934,6.9515 44.3264,6.7935 C43.9594,6.6345 43.5664,6.5555 43.1484,6.5555 C42.7174,6.5555 42.3214,6.6375 41.9614,6.8025 C41.5994,6.9665 41.2864,7.1885 41.0204,7.4675 C40.7544,7.7465 40.5454,8.0725 40.3934,8.4465 C40.2414,8.8195 40.1654,9.2155 40.1654,9.6335 C40.1654,10.0645 40.2414,10.4665 40.3934,10.8395 C40.5454,11.2135 40.7544,11.5405 41.0204,11.8185 C41.2864,12.0965 41.5994,12.3195 41.9614,12.4835 C42.3214,12.6485 42.7174,12.7305 43.1484,12.7305 M43.4524,14.5925 C42.8064,14.5925 42.2014,14.4615 41.6374,14.2035 C41.0744,13.9435 40.6144,13.5795 40.2604,13.1105 L40.2604,14.4025 L38.2654,14.4025 L38.2654,0.5325 L40.2794,0.5325 L40.2794,6.1755 C40.6334,5.7325 41.0864,5.3765 41.6374,5.1115 C42.1894,4.8455 42.7874,4.7115 43.4334,4.7115 C44.0534,4.7115 44.6494,4.8265 45.2194,5.0545 C45.7894,5.2825 46.2934,5.6125 46.7304,6.0425 C47.1674,6.4725 47.5154,6.9925 47.7744,7.6005 C48.0344,8.2085 48.1644,8.8925 48.1644,9.6525 C48.1644,10.4125 48.0314,11.0965 47.7654,11.7045 C47.4994,12.3125 47.1484,12.8285 46.7114,13.2525 C46.2734,13.6775 45.7734,14.0065 45.2104,14.2415 C44.6464,14.4745 44.0604,14.5925 43.4524,14.5925" id="Fill-6" fill="#FFFFFF"></path>
                <path d="M54.5293,12.7305 C54.9593,12.7305 55.3593,12.6485 55.7263,12.4835 C56.0933,12.3195 56.4103,12.0965 56.6763,11.8185 C56.9423,11.5405 57.1513,11.2135 57.3033,10.8395 C57.4553,10.4665 57.5313,10.0645 57.5313,9.6335 C57.5313,9.2155 57.4553,8.8195 57.3033,8.4465 C57.1513,8.0725 56.9423,7.7465 56.6763,7.4675 C56.4103,7.1885 56.0933,6.9665 55.7263,6.8025 C55.3593,6.6375 54.9593,6.5555 54.5293,6.5555 C54.1113,6.5555 53.7183,6.6345 53.3513,6.7935 C52.9843,6.9515 52.6643,7.1695 52.3913,7.4485 C52.1193,7.7275 51.9073,8.0535 51.7553,8.4265 C51.6033,8.8005 51.5273,9.2035 51.5273,9.6335 C51.5273,10.0645 51.6033,10.4695 51.7553,10.8495 C51.9073,11.2295 52.1193,11.5585 52.3913,11.8365 C52.6643,12.1165 52.9843,12.3345 53.3513,12.4935 C53.7183,12.6515 54.1113,12.7305 54.5293,12.7305 M54.2443,14.5925 C53.6363,14.5925 53.0503,14.4745 52.4873,14.2415 C51.9233,14.0065 51.4193,13.6775 50.9763,13.2525 C50.5323,12.8285 50.1783,12.3125 49.9123,11.7045 C49.6463,11.0965 49.5133,10.4125 49.5133,9.6525 C49.5133,8.8925 49.6433,8.2085 49.9033,7.6005 C50.1623,6.9925 50.5103,6.4725 50.9473,6.0425 C51.3843,5.6125 51.8913,5.2825 52.4673,5.0545 C53.0443,4.8265 53.6423,4.7115 54.2633,4.7115 C54.8963,4.7115 55.4913,4.8385 56.0493,5.0925 C56.6063,5.3455 57.0623,5.6945 57.4173,6.1375 L57.4173,4.9025 L59.4503,4.9025 L59.4503,14.4025 L57.4173,14.4025 L57.4173,13.0915 C57.0503,13.5605 56.5873,13.9275 56.0303,14.1935 C55.4723,14.4595 54.8773,14.5925 54.2443,14.5925" id="Fill-8" fill="#FFFFFF"></path>
                <g id="Group-12" transform="translate(61.000000, 4.000000)">
                    <mask id="mask-16" fill="white">
                        <use xlink:href="#path-15"></use>
                    </mask>
                    <g id="Clip-11"></g>
                    <path d="M5.0811,8.7305 C5.5111,8.7305 5.9111,8.6485 6.2781,8.4835 C6.6451,8.3195 6.9621,8.0965 7.2281,7.8185 C7.4941,7.5405 7.7031,7.2135 7.8551,6.8395 C8.0071,6.4665 8.0831,6.0645 8.0831,5.6335 C8.0831,5.2155 8.0071,4.8195 7.8551,4.4465 C7.7031,4.0725 7.4941,3.7465 7.2281,3.4675 C6.9621,3.1885 6.6451,2.9665 6.2781,2.8025 C5.9111,2.6375 5.5111,2.5555 5.0811,2.5555 C4.6631,2.5555 4.2701,2.6345 3.9031,2.7935 C3.5361,2.9515 3.2161,3.1695 2.9431,3.4485 C2.6711,3.7275 2.4591,4.0535 2.3071,4.4265 C2.1551,4.8005 2.0791,5.2035 2.0791,5.6335 C2.0791,6.0645 2.1551,6.4695 2.3071,6.8495 C2.4591,7.2295 2.6711,7.5585 2.9431,7.8365 C3.2161,8.1165 3.5361,8.3345 3.9031,8.4935 C4.2701,8.6515 4.6631,8.7305 5.0811,8.7305 M4.7961,10.5925 C4.1881,10.5925 3.6021,10.4745 3.0391,10.2415 C2.4751,10.0065 1.9711,9.6775 1.5281,9.2525 C1.0841,8.8285 0.7301,8.3125 0.4641,7.7045 C0.1981,7.0965 0.0651,6.4125 0.0651,5.6525 C0.0651,4.8925 0.1951,4.2085 0.4551,3.6005 C0.7141,2.9925 1.0621,2.4725 1.4991,2.0425 C1.9361,1.6125 2.4431,1.2825 3.0191,1.0545 C3.5961,0.8265 4.1941,0.7115 4.8151,0.7115 C5.4481,0.7115 6.0401,0.8455 6.5911,1.1115 C7.1431,1.3765 7.6021,1.7385 7.9691,2.1945 L7.9691,0.9025 L10.0021,0.9025 L10.0021,10.2315 C10.0021,10.9535 9.8851,11.6085 9.6501,12.1985 C9.4161,12.7875 9.0901,13.2875 8.6721,13.6995 C8.2541,14.1105 7.7631,14.4305 7.1991,14.6585 C6.6361,14.8865 6.0241,15.0005 5.3661,15.0005 C4.6941,15.0005 4.0901,14.9115 3.5511,14.7345 C3.0131,14.5565 2.5441,14.3065 2.1451,13.9835 C1.7471,13.6615 1.4141,13.2775 1.1481,12.8345 C0.8821,12.3905 0.6851,11.9095 0.5591,11.3905 L2.7631,11.3905 C2.9531,11.9215 3.2441,12.3465 3.6371,12.6635 C4.0291,12.9795 4.6121,13.1385 5.3851,13.1385 C5.7651,13.1385 6.1161,13.0655 6.4391,12.9195 C6.7621,12.7745 7.0381,12.5745 7.2661,12.3215 C7.4941,12.0675 7.6711,11.7665 7.7981,11.4185 C7.9241,11.0705 7.9881,10.6935 7.9881,10.2885 L7.9881,9.0535 C7.6211,9.5355 7.1551,9.9115 6.5911,10.1835 C6.0281,10.4565 5.4291,10.5925 4.7961,10.5925" id="Fill-10" fill="#FFFFFF" mask="url(#mask-16)"></path>
                </g>
                <mask id="mask-18" fill="white">
                    <use xlink:href="#path-17"></use>
                </mask>
                <g id="Clip-14"></g>
                <polygon id="Fill-13" fill="#FFFFFF" mask="url(#mask-18)" points="72.826 10.489 79.856 10.489 79.856 8.722 72.826 8.722"></polygon>
                <path d="M86.2588,12.6924 C86.6638,12.6924 87.0438,12.6134 87.3988,12.4554 C87.7538,12.2964 88.0638,12.0784 88.3298,11.7994 C88.5958,11.5204 88.8048,11.1984 88.9568,10.8304 C89.1088,10.4634 89.1848,10.0704 89.1848,9.6524 C89.1848,9.2344 89.1088,8.8414 88.9568,8.4744 C88.8048,8.1074 88.5958,7.7844 88.3298,7.5054 C88.0638,7.2264 87.7538,7.0084 87.3988,6.8494 C87.0438,6.6914 86.6638,6.6124 86.2588,6.6124 C85.8408,6.6124 85.4538,6.6914 85.0998,6.8494 C84.7448,7.0084 84.4378,7.2264 84.1778,7.5054 C83.9188,7.7844 83.7158,8.1074 83.5708,8.4744 C83.4248,8.8414 83.3518,9.2344 83.3518,9.6524 C83.3518,10.0704 83.4248,10.4634 83.5708,10.8304 C83.7158,11.1984 83.9188,11.5204 84.1778,11.7994 C84.4378,12.0784 84.7448,12.2964 85.0998,12.4554 C85.4538,12.6134 85.8408,12.6924 86.2588,12.6924 M86.2588,14.5924 C85.5748,14.5924 84.9348,14.4654 84.3398,14.2124 C83.7438,13.9594 83.2218,13.6074 82.7728,13.1584 C82.3228,12.7084 81.9708,12.1824 81.7178,11.5814 C81.4648,10.9794 81.3378,10.3364 81.3378,9.6524 C81.3378,8.9564 81.4648,8.3064 81.7178,7.7054 C81.9708,7.1034 82.3228,6.5814 82.7728,6.1374 C83.2218,5.6944 83.7438,5.3454 84.3398,5.0924 C84.9348,4.8384 85.5748,4.7124 86.2588,4.7124 C86.9428,4.7124 87.5828,4.8384 88.1778,5.0924 C88.7728,5.3454 89.2958,5.6944 89.7448,6.1374 C90.1948,6.5814 90.5468,7.1034 90.7998,7.7054 C91.0528,8.3064 91.1798,8.9564 91.1798,9.6524 C91.1798,10.3364 91.0528,10.9794 90.7998,11.5814 C90.5468,12.1824 90.1948,12.7084 89.7448,13.1584 C89.2958,13.6074 88.7728,13.9594 88.1778,14.2124 C87.5828,14.4654 86.9428,14.5924 86.2588,14.5924" id="Fill-15" fill="#FFFFFF" mask="url(#mask-18)"></path>
                <path d="M92.0342,4.9023 L93.6492,4.9023 L93.6492,4.4083 C93.6492,3.6733 93.7122,3.0563 93.8392,2.5553 C93.9662,2.0553 94.1782,1.6563 94.4762,1.3583 C94.7732,1.0613 95.1722,0.8483 95.6732,0.7223 C96.1732,0.5953 96.7972,0.5323 97.5442,0.5323 L97.7152,0.5323 L97.7152,2.4133 C97.2592,2.4133 96.8982,2.4383 96.6322,2.4893 C96.3662,2.5403 96.1632,2.6383 96.0242,2.7843 C95.8852,2.9293 95.7962,3.1323 95.7582,3.3913 C95.7202,3.6513 95.7012,3.9973 95.7012,4.4273 L95.7012,4.9023 L97.7152,4.9023 L97.7152,6.7263 L95.7012,6.7263 L95.7012,14.4023 L93.6492,14.4023 L93.6492,6.7263 L92.0342,6.7263 L92.0342,4.9023 Z" id="Fill-16" fill="#FFFFFF" mask="url(#mask-18)"></path>
                <polygon id="Fill-17" fill="#FFFFFF" mask="url(#mask-18)" points="99.141 10.489 106.171 10.489 106.171 8.722 99.141 8.722"></polygon>
                <path d="M107.9565,4.9023 L109.9705,4.9023 L109.9705,6.0423 C110.2745,5.6243 110.6635,5.2983 111.1385,5.0633 C111.6135,4.8303 112.1555,4.7123 112.7635,4.7123 C113.5235,4.7123 114.1655,4.8643 114.6915,5.1683 C115.2175,5.4723 115.6195,5.8903 115.8985,6.4223 C116.2275,5.8903 116.6675,5.4723 117.2185,5.1683 C117.7695,4.8643 118.3995,4.7123 119.1095,4.7123 C120.4015,4.7123 121.3795,5.0733 122.0445,5.7953 C122.7095,6.5173 123.0425,7.4863 123.0425,8.7023 L123.0425,14.4023 L120.9715,14.4023 L120.9715,8.8353 C120.9715,8.1133 120.7845,7.5403 120.4105,7.1163 C120.0375,6.6913 119.4895,6.4793 118.7675,6.4793 C118.1215,6.4793 117.5825,6.6953 117.1525,7.1253 C116.7215,7.5553 116.5065,8.1963 116.5065,9.0443 L116.5065,14.4023 L114.4545,14.4023 L114.4545,8.7403 C114.4545,8.0443 114.2675,7.4933 113.8935,7.0873 C113.5195,6.6813 112.9915,6.4793 112.3075,6.4793 C111.6355,6.4793 111.0815,6.7013 110.6445,7.1443 C110.2075,7.5883 109.9895,8.2463 109.9895,9.1203 L109.9895,14.4023 L107.9565,14.4023 L107.9565,4.9023 Z" id="Fill-18" fill="#FFFFFF" mask="url(#mask-18)"></path>
                <path d="M129.5781,12.6924 C129.9831,12.6924 130.3631,12.6134 130.7181,12.4554 C131.0731,12.2964 131.3831,12.0784 131.6491,11.7994 C131.9151,11.5204 132.1241,11.1984 132.2761,10.8304 C132.4281,10.4634 132.5041,10.0704 132.5041,9.6524 C132.5041,9.2344 132.4281,8.8414 132.2761,8.4744 C132.1241,8.1074 131.9151,7.7844 131.6491,7.5054 C131.3831,7.2264 131.0731,7.0084 130.7181,6.8494 C130.3631,6.6914 129.9831,6.6124 129.5781,6.6124 C129.1601,6.6124 128.7731,6.6914 128.4191,6.8494 C128.0641,7.0084 127.7571,7.2264 127.4971,7.5054 C127.2381,7.7844 127.0351,8.1074 126.8901,8.4744 C126.7441,8.8414 126.6711,9.2344 126.6711,9.6524 C126.6711,10.0704 126.7441,10.4634 126.8901,10.8304 C127.0351,11.1984 127.2381,11.5204 127.4971,11.7994 C127.7571,12.0784 128.0641,12.2964 128.4191,12.4554 C128.7731,12.6134 129.1601,12.6924 129.5781,12.6924 M129.5781,14.5924 C128.8941,14.5924 128.2541,14.4654 127.6591,14.2124 C127.0631,13.9594 126.5411,13.6074 126.0921,13.1584 C125.6421,12.7084 125.2901,12.1824 125.0371,11.5814 C124.7841,10.9794 124.6571,10.3364 124.6571,9.6524 C124.6571,8.9564 124.7841,8.3064 125.0371,7.7054 C125.2901,7.1034 125.6421,6.5814 126.0921,6.1374 C126.5411,5.6944 127.0631,5.3454 127.6591,5.0924 C128.2541,4.8384 128.8941,4.7124 129.5781,4.7124 C130.2621,4.7124 130.9021,4.8384 131.4971,5.0924 C132.0921,5.3454 132.6151,5.6944 133.0641,6.1374 C133.5141,6.5814 133.8661,7.1034 134.1191,7.7054 C134.3721,8.3064 134.4991,8.9564 134.4991,9.6524 C134.4991,10.3364 134.3721,10.9794 134.1191,11.5814 C133.8661,12.1824 133.5141,12.7084 133.0641,13.1584 C132.6151,13.6074 132.0921,13.9594 131.4971,14.2124 C130.9021,14.4654 130.2621,14.5924 129.5781,14.5924" id="Fill-19" fill="#FFFFFF" mask="url(#mask-18)"></path>
                <path d="M136.1333,4.9023 L138.1473,4.9023 L138.1473,6.1373 C138.4763,5.6943 138.8883,5.3453 139.3823,5.0923 C139.8763,4.8393 140.4393,4.7123 141.0733,4.7123 C142.2763,4.7123 143.2203,5.0763 143.9043,5.8043 C144.5883,6.5333 144.9303,7.5493 144.9303,8.8543 L144.9303,14.4023 L142.8783,14.4023 L142.8783,9.0253 C142.8783,8.2403 142.6843,7.6193 142.2983,7.1633 C141.9123,6.7073 141.3393,6.4793 140.5793,6.4793 C139.8953,6.4793 139.3213,6.7193 138.8593,7.2013 C138.3973,7.6823 138.1663,8.3413 138.1663,9.1773 L138.1663,14.4023 L136.1333,14.4023 L136.1333,4.9023 Z" id="Fill-20" fill="#FFFFFF" mask="url(#mask-18)"></path>
                <path d="M151.4658,6.5176 C150.7688,6.5176 150.1678,6.7106 149.6608,7.0966 C149.1538,7.4836 148.7988,7.9806 148.5968,8.5876 L154.2778,8.5876 C154.1008,7.9166 153.7678,7.4046 153.2798,7.0496 C152.7928,6.6956 152.1878,6.5176 151.4658,6.5176 M151.4278,14.5926 C150.6798,14.5926 150.0028,14.4616 149.3948,14.2036 C148.7868,13.9436 148.2708,13.5916 147.8458,13.1486 C147.4218,12.7046 147.0958,12.1856 146.8678,11.5906 C146.6398,10.9956 146.5258,10.3626 146.5258,9.6906 C146.5258,8.9946 146.6528,8.3416 146.9058,7.7336 C147.1588,7.1246 147.5048,6.5996 147.9418,6.1566 C148.3788,5.7126 148.8978,5.3616 149.4998,5.1016 C150.1008,4.8426 150.7498,4.7116 151.4468,4.7116 C152.1438,4.7116 152.7928,4.8326 153.3948,5.0736 C153.9958,5.3146 154.5158,5.6536 154.9518,6.0896 C155.3888,6.5266 155.7318,7.0426 155.9788,7.6386 C156.2258,8.2336 156.3488,8.8856 156.3488,9.5956 L156.3488,10.2986 L148.4638,10.2986 C148.5778,11.0336 148.8948,11.6376 149.4138,12.1136 C149.9328,12.5876 150.6108,12.8256 151.4468,12.8256 C152.1058,12.8256 152.6528,12.6796 153.0908,12.3886 C153.5278,12.0966 153.8348,11.7046 154.0118,11.2096 L156.1968,11.2096 C155.8298,12.2616 155.2498,13.0876 154.4588,13.6896 C153.6668,14.2916 152.6558,14.5926 151.4278,14.5926" id="Fill-21" fill="#FFFFFF" mask="url(#mask-18)"></path>
                <polygon id="Fill-22" fill="#FFFFFF" mask="url(#mask-18)" points="160.7378 13.9082 156.8048 4.9022 158.9898 4.9022 161.7638 11.4952 164.3858 4.9022 166.5328 4.9022 160.7948 18.7912 158.7048 18.7912"></polygon>
                <path d="M177.6479,12.7305 C178.0779,12.7305 178.4779,12.6485 178.8449,12.4835 C179.2119,12.3195 179.5289,12.0965 179.7949,11.8185 C180.0609,11.5405 180.2699,11.2135 180.4219,10.8395 C180.5739,10.4665 180.6499,10.0645 180.6499,9.6335 C180.6499,9.2155 180.5739,8.8195 180.4219,8.4465 C180.2699,8.0725 180.0609,7.7465 179.7949,7.4675 C179.5289,7.1885 179.2119,6.9665 178.8449,6.8025 C178.4779,6.6375 178.0779,6.5555 177.6479,6.5555 C177.2299,6.5555 176.8369,6.6345 176.4699,6.7935 C176.1029,6.9515 175.7829,7.1695 175.5099,7.4485 C175.2379,7.7275 175.0259,8.0535 174.8739,8.4265 C174.7219,8.8005 174.6459,9.2035 174.6459,9.6335 C174.6459,10.0645 174.7219,10.4695 174.8739,10.8495 C175.0259,11.2295 175.2379,11.5585 175.5099,11.8365 C175.7829,12.1165 176.1029,12.3345 176.4699,12.4935 C176.8369,12.6515 177.2299,12.7305 177.6479,12.7305 M177.3629,14.5925 C176.7549,14.5925 176.1689,14.4745 175.6059,14.2415 C175.0419,14.0065 174.5379,13.6775 174.0949,13.2525 C173.6509,12.8285 173.2969,12.3125 173.0309,11.7045 C172.7649,11.0965 172.6319,10.4125 172.6319,9.6525 C172.6319,8.8925 172.7619,8.2085 173.0219,7.6005 C173.2809,6.9925 173.6289,6.4725 174.0659,6.0425 C174.5029,5.6125 175.0099,5.2825 175.5859,5.0545 C176.1629,4.8265 176.7609,4.7115 177.3819,4.7115 C178.0149,4.7115 178.6099,4.8385 179.1679,5.0925 C179.7249,5.3455 180.1809,5.6945 180.5359,6.1375 L180.5359,0.5325 L182.5499,0.5325 L182.5499,14.4025 L180.5359,14.4025 L180.5359,13.0915 C180.1689,13.5605 179.7059,13.9275 179.1489,14.1935 C178.5909,14.4595 177.9959,14.5925 177.3629,14.5925" id="Fill-23" fill="#FFFFFF" mask="url(#mask-18)"></path>
                <path d="M189.1045,6.5176 C188.4075,6.5176 187.8065,6.7106 187.2995,7.0966 C186.7925,7.4836 186.4375,7.9806 186.2355,8.5876 L191.9165,8.5876 C191.7395,7.9166 191.4065,7.4046 190.9185,7.0496 C190.4315,6.6956 189.8265,6.5176 189.1045,6.5176 M189.0665,14.5926 C188.3185,14.5926 187.6415,14.4616 187.0335,14.2036 C186.4255,13.9436 185.9095,13.5916 185.4845,13.1486 C185.0605,12.7046 184.7345,12.1856 184.5065,11.5906 C184.2785,10.9956 184.1645,10.3626 184.1645,9.6906 C184.1645,8.9946 184.2915,8.3416 184.5445,7.7336 C184.7975,7.1246 185.1435,6.5996 185.5805,6.1566 C186.0175,5.7126 186.5365,5.3616 187.1385,5.1016 C187.7395,4.8426 188.3885,4.7116 189.0855,4.7116 C189.7825,4.7116 190.4315,4.8326 191.0335,5.0736 C191.6345,5.3146 192.1545,5.6536 192.5905,6.0896 C193.0275,6.5266 193.3705,7.0426 193.6175,7.6386 C193.8645,8.2336 193.9875,8.8856 193.9875,9.5956 L193.9875,10.2986 L186.1025,10.2986 C186.2165,11.0336 186.5335,11.6376 187.0525,12.1136 C187.5715,12.5876 188.2495,12.8256 189.0855,12.8256 C189.7445,12.8256 190.2915,12.6796 190.7295,12.3886 C191.1665,12.0966 191.4735,11.7046 191.6505,11.2096 L193.8355,11.2096 C193.4685,12.2616 192.8885,13.0876 192.0975,13.6896 C191.3055,14.2916 190.2945,14.5926 189.0665,14.5926" id="Fill-24" fill="#FFFFFF" mask="url(#mask-18)"></path>
                <polygon id="Fill-25" fill="#FFFFFF" mask="url(#mask-18)" points="195.64 14.402 197.673 14.402 197.673 0.532 195.64 0.532"></polygon>
                <path d="M199.726,14.402 L201.778,14.402 L201.778,4.902 L199.726,4.902 L199.726,14.402 Z M199.383,2.071 C199.383,1.666 199.51,1.337 199.763,1.083 C200.017,0.83 200.346,0.703 200.751,0.703 C201.157,0.703 201.486,0.83 201.739,1.083 C201.993,1.337 202.119,1.666 202.119,2.071 C202.119,2.477 201.993,2.806 201.739,3.06 C201.486,3.312 201.157,3.439 200.751,3.439 C200.346,3.439 200.017,3.312 199.763,3.06 C199.51,2.806 199.383,2.477 199.383,2.071 Z" id="Fill-26" fill="#FFFFFF" mask="url(#mask-18)"></path>
                <polygon id="Fill-27" fill="#FFFFFF" mask="url(#mask-18)" points="203.1831 4.9023 205.3111 4.9023 207.8571 11.7803 210.3651 4.9023 212.4551 4.9023 208.8641 14.4023 206.8311 14.4023"></polygon>
                <path d="M217.8892,6.5176 C217.1922,6.5176 216.5912,6.7106 216.0842,7.0966 C215.5772,7.4836 215.2222,7.9806 215.0202,8.5876 L220.7012,8.5876 C220.5242,7.9166 220.1912,7.4046 219.7032,7.0496 C219.2162,6.6956 218.6112,6.5176 217.8892,6.5176 M217.8512,14.5926 C217.1032,14.5926 216.4262,14.4616 215.8182,14.2036 C215.2102,13.9436 214.6942,13.5916 214.2692,13.1486 C213.8452,12.7046 213.5192,12.1856 213.2912,11.5906 C213.0632,10.9956 212.9492,10.3626 212.9492,9.6906 C212.9492,8.9946 213.0762,8.3416 213.3292,7.7336 C213.5822,7.1246 213.9282,6.5996 214.3652,6.1566 C214.8022,5.7126 215.3212,5.3616 215.9232,5.1016 C216.5242,4.8426 217.1732,4.7116 217.8702,4.7116 C218.5672,4.7116 219.2162,4.8326 219.8182,5.0736 C220.4192,5.3146 220.9392,5.6536 221.3752,6.0896 C221.8122,6.5266 222.1552,7.0426 222.4022,7.6386 C222.6492,8.2336 222.7722,8.8856 222.7722,9.5956 L222.7722,10.2986 L214.8872,10.2986 C215.0012,11.0336 215.3182,11.6376 215.8372,12.1136 C216.3562,12.5876 217.0342,12.8256 217.8702,12.8256 C218.5292,12.8256 219.0762,12.6796 219.5142,12.3886 C219.9512,12.0966 220.2582,11.7046 220.4352,11.2096 L222.6202,11.2096 C222.2532,12.2616 221.6732,13.0876 220.8822,13.6896 C220.0902,14.2916 219.0792,14.5926 217.8512,14.5926" id="Fill-28" fill="#FFFFFF" mask="url(#mask-18)"></path>
                <path d="M224.4062,4.9023 L226.4392,4.9023 L226.4392,6.3653 C226.6922,5.8963 227.0342,5.5363 227.4652,5.2823 C227.8952,5.0293 228.4272,4.9023 229.0612,4.9023 L230.1822,4.9023 L230.1822,6.8403 L228.7572,6.8403 C227.9212,6.8403 227.3282,7.0683 226.9802,7.5243 C226.6322,7.9803 226.4582,8.7023 226.4582,9.6903 L226.4582,14.4023 L224.4062,14.4023 L224.4062,4.9023 Z" id="Fill-29" fill="#FFFFFF" mask="url(#mask-18)"></path>
                <polygon id="Fill-30" fill="#FFFFFF" mask="url(#mask-18)" points="235.3311 13.9082 231.3981 4.9022 233.5831 4.9022 236.3571 11.4952 238.9791 4.9022 241.1261 4.9022 235.3881 18.7912 233.2981 18.7912"></polygon>
                <path d="M252.2417,12.7305 C252.6717,12.7305 253.0707,12.6485 253.4377,12.4835 C253.8047,12.3195 254.1227,12.0965 254.3877,11.8185 C254.6537,11.5405 254.8627,11.2135 255.0147,10.8395 C255.1677,10.4665 255.2437,10.0645 255.2437,9.6335 C255.2437,9.2155 255.1677,8.8195 255.0147,8.4465 C254.8627,8.0725 254.6537,7.7465 254.3877,7.4675 C254.1227,7.1885 253.8047,6.9665 253.4377,6.8025 C253.0707,6.6375 252.6717,6.5555 252.2417,6.5555 C251.8237,6.5555 251.4297,6.6345 251.0627,6.7935 C250.6957,6.9515 250.3767,7.1695 250.1027,7.4485 C249.8317,7.7275 249.6187,8.0535 249.4677,8.4265 C249.3147,8.8005 249.2397,9.2035 249.2397,9.6335 C249.2397,10.0645 249.3147,10.4695 249.4677,10.8495 C249.6187,11.2295 249.8317,11.5585 250.1027,11.8365 C250.3767,12.1165 250.6957,12.3345 251.0627,12.4935 C251.4297,12.6515 251.8237,12.7305 252.2417,12.7305 M251.9567,14.5925 C251.3477,14.5925 250.7627,14.4745 250.1987,14.2415 C249.6347,14.0065 249.1317,13.6775 248.6877,13.2525 C248.2447,12.8285 247.8897,12.3125 247.6247,11.7045 C247.3577,11.0965 247.2247,10.4125 247.2247,9.6525 C247.2247,8.8925 247.3547,8.2085 247.6147,7.6005 C247.8747,6.9925 248.2217,6.4725 248.6597,6.0425 C249.0967,5.6125 249.6027,5.2825 250.1787,5.0545 C250.7557,4.8265 251.3547,4.7115 251.9747,4.7115 C252.6087,4.7115 253.2037,4.8385 253.7617,5.0925 C254.3177,5.3455 254.7747,5.6945 255.1287,6.1375 L255.1287,4.9025 L257.1617,4.9025 L257.1617,14.4025 L255.1287,14.4025 L255.1287,13.0915 C254.7617,13.5605 254.2997,13.9275 253.7417,14.1935 C253.1847,14.4595 252.5897,14.5925 251.9567,14.5925" id="Fill-31" fill="#FFFFFF" mask="url(#mask-18)"></path>
                <path d="M264.1157,12.7305 C264.5337,12.7305 264.9267,12.6515 265.2937,12.4935 C265.6607,12.3345 265.9797,12.1165 266.2537,11.8365 C266.5247,11.5585 266.7377,11.2295 266.8897,10.8495 C267.0417,10.4695 267.1177,10.0645 267.1177,9.6335 C267.1177,9.2035 267.0417,8.8005 266.8897,8.4265 C266.7377,8.0535 266.5247,7.7275 266.2537,7.4485 C265.9797,7.1695 265.6607,6.9515 265.2937,6.7935 C264.9267,6.6345 264.5337,6.5555 264.1157,6.5555 C263.6847,6.5555 263.2857,6.6375 262.9187,6.8025 C262.5517,6.9665 262.2347,7.1885 261.9687,7.4675 C261.7027,7.7465 261.4937,8.0725 261.3417,8.4465 C261.1887,8.8195 261.1137,9.2155 261.1137,9.6335 C261.1137,10.0645 261.1887,10.4665 261.3417,10.8395 C261.4937,11.2135 261.7027,11.5405 261.9687,11.8185 C262.2347,12.0965 262.5517,12.3195 262.9187,12.4835 C263.2857,12.6485 263.6847,12.7305 264.1157,12.7305 M264.4197,14.5925 C263.7617,14.5925 263.1497,14.4745 262.5857,14.2415 C262.0227,14.0065 261.5697,13.6675 261.2277,13.2245 L261.2277,18.7725 L259.2147,18.7725 L259.2147,4.9025 L261.2277,4.9025 L261.2277,6.2325 C261.5817,5.7635 262.0387,5.3935 262.5947,5.1215 C263.1527,4.8485 263.7547,4.7115 264.3997,4.7115 C265.0207,4.7115 265.6167,4.8265 266.1867,5.0545 C266.7577,5.2825 267.2607,5.6125 267.6967,6.0425 C268.1347,6.4725 268.4817,6.9925 268.7417,7.6005 C269.0017,8.2085 269.1327,8.8925 269.1327,9.6525 C269.1327,10.4125 268.9987,11.0965 268.7317,11.7045 C268.4667,12.3125 268.1147,12.8285 267.6787,13.2525 C267.2417,13.6775 266.7377,14.0065 266.1677,14.2415 C265.5967,14.4745 265.0147,14.5925 264.4197,14.5925" id="Fill-32" fill="#FFFFFF" mask="url(#mask-18)"></path>
                <path d="M275.6108,12.7305 C276.0288,12.7305 276.4218,12.6515 276.7888,12.4935 C277.1558,12.3345 277.4758,12.1165 277.7478,11.8365 C278.0208,11.5585 278.2328,11.2295 278.3838,10.8495 C278.5368,10.4695 278.6128,10.0645 278.6128,9.6335 C278.6128,9.2035 278.5368,8.8005 278.3838,8.4265 C278.2328,8.0535 278.0208,7.7275 277.7478,7.4485 C277.4758,7.1695 277.1558,6.9515 276.7888,6.7935 C276.4218,6.6345 276.0288,6.5555 275.6108,6.5555 C275.1798,6.5555 274.7808,6.6375 274.4138,6.8025 C274.0468,6.9665 273.7298,7.1885 273.4648,7.4675 C273.1978,7.7465 272.9888,8.0725 272.8378,8.4465 C272.6848,8.8195 272.6088,9.2155 272.6088,9.6335 C272.6088,10.0645 272.6848,10.4665 272.8378,10.8395 C272.9888,11.2135 273.1978,11.5405 273.4648,11.8185 C273.7298,12.0965 274.0468,12.3195 274.4138,12.4835 C274.7808,12.6485 275.1798,12.7305 275.6108,12.7305 M275.9148,14.5925 C275.2558,14.5925 274.6438,14.4745 274.0818,14.2415 C273.5168,14.0065 273.0648,13.6675 272.7218,13.2245 L272.7218,18.7725 L270.7088,18.7725 L270.7088,4.9025 L272.7218,4.9025 L272.7218,6.2325 C273.0778,5.7635 273.5328,5.3935 274.0908,5.1215 C274.6478,4.8485 275.2498,4.7115 275.8958,4.7115 C276.5158,4.7115 277.1118,4.8265 277.6808,5.0545 C278.2518,5.2825 278.7558,5.6125 279.1928,6.0425 C279.6298,6.4725 279.9778,6.9925 280.2378,7.6005 C280.4968,8.2085 280.6268,8.8925 280.6268,9.6525 C280.6268,10.4125 280.4938,11.0965 280.2278,11.7045 C279.9628,12.3125 279.6108,12.8285 279.1738,13.2525 C278.7358,13.6775 278.2328,14.0065 277.6628,14.2415 C277.0928,14.4745 276.5088,14.5925 275.9148,14.5925" id="Fill-33" fill="#FFFFFF" mask="url(#mask-18)"></path>
                <path d="M281.8608,13.2627 C281.8608,12.8577 281.9878,12.5287 282.2418,12.2747 C282.4948,12.0217 282.8238,11.8947 283.2298,11.8947 C283.6338,11.8947 283.9648,12.0217 284.2168,12.2747 C284.4698,12.5287 284.5968,12.8577 284.5968,13.2627 C284.5968,13.6677 284.4698,13.9967 284.2168,14.2497 C283.9648,14.5037 283.6338,14.6297 283.2298,14.6297 C282.8238,14.6297 282.4948,14.5037 282.2418,14.2497 C281.9878,13.9967 281.8608,13.6677 281.8608,13.2627" id="Fill-34" fill="#FFFFFF" mask="url(#mask-18)"></path>
            </g>
        </g>
    </g>
</svg>