<svg xmlns="http://www.w3.org/2000/svg" version="1.1" width="1024" height="680">
<rect x="0" y="0" width="1024" height="680" fill="#758360" />
<g transform="scale(4.000000) translate(0.5 0.5)">
<g transform="translate(148.132220 97.695568) rotate(216.349455) scale(73.611080 26.898869)"><ellipse fill="#ffffff" fill-opacity="0.501961" cx="0" cy="0" rx="1" ry="1" /></g>
<ellipse fill="#053304" fill-opacity="0.501961" cx="16" cy="106" rx="38" ry="115" />
<polygon fill="#001686" fill-opacity="0.501961" points="194,185 -16,167 130,112" />
<ellipse fill="#294200" fill-opacity="0.501961" cx="255" cy="52" rx="39" ry="117" />
<g transform="translate(180.101706 13.880938) rotate(364.300395) scale(85.214715 11.104172)"><ellipse fill="#fff161" fill-opacity="0.501961" cx="0" cy="0" rx="1" ry="1" /></g>
<ellipse fill="#ffd7bf" fill-opacity="0.501961" cx="169" cy="91" rx="39" ry="39" />
<ellipse fill="#ffffff" fill-opacity="0.501961" cx="118" cy="76" rx="39" ry="17" />
<polygon fill="#acaedf" fill-opacity="0.501961" points="-13,151 59,151 123,89" />
<ellipse fill="#96a635" fill-opacity="0.501961" cx="82" cy="32" rx="86" ry="29" />
<g transform="translate(205.515660 158.954755) rotate(197.713598) scale(43.939182 13.978541)"><ellipse fill="#ffaa9b" fill-opacity="0.501961" cx="0" cy="0" rx="1" ry="1" /></g>
</g>
</svg>