<svg height="680" width="1024" xmlns="http://www.w3.org/2000/svg"><path d="m0 0h1024v680h-1024z" fill="#c3c2bf"/><g fill-opacity=".501961" stroke-width="4"><ellipse cx="1022" cy="386" rx="144" ry="104"/><ellipse cx="18" cy="558" fill="#996e59" rx="536" ry="88"/><ellipse cx="698" cy="30" fill="#edeff5" rx="148" ry="996"/><ellipse cx="506" cy="454" fill="#5a545d" rx="40" ry="168"/><ellipse cx="1022" cy="394" fill="#003900" rx="112" ry="96"/><ellipse cx="410" cy="154" fill="#e4e6eb" rx="84" ry="412"/><ellipse cx="878" cy="526" fill="#9ea09d" rx="80" ry="116"/><ellipse cx="406" cy="598" fill="#27252b" rx="116" ry="20"/><ellipse cx="546" cy="334" fill="#65575a" rx="32" ry="52"/><ellipse cx="246" cy="582" fill="#f1d3c4" rx="72" ry="48"/><ellipse cx="594" cy="606" fill="#e4e7ee" rx="72" ry="172"/><ellipse cx="302" cy="274" fill="#d7d7d9" rx="196" ry="196"/><ellipse cx="522" cy="146" fill="#eaebee" rx="44" ry="144"/><ellipse cx="374" cy="670" fill="#ebf2ff" rx="220" ry="28"/><ellipse cx="262" cy="622" fill="#fff" rx="112" ry="8"/><ellipse cx="1006" cy="566" fill="#edf0fa" rx="72" ry="80"/><ellipse cx="926" cy="150" fill="#d0d2d5" rx="156" ry="156"/><ellipse cx="838" cy="570" fill="#9d9b98" rx="108" ry="40"/><ellipse cx="306" cy="510" fill="#1f0000" rx="44" ry="8"/><ellipse cx="918" cy="414" fill="#154203" rx="84" ry="8"/></g></svg>