<svg xmlns="http://www.w3.org/2000/svg" version="1.1" width="716" height="1024">
<rect x="0" y="0" width="716" height="1024" fill="#968f85" />
<g transform="scale(4.000000) translate(0.5 0.5)">
<ellipse fill="#011227" fill-opacity="0.501961" cx="83" cy="241" rx="59" ry="83" />
<ellipse fill="#ffffe9" fill-opacity="0.501961" cx="23" cy="125" rx="54" ry="47" />
<ellipse fill="#ffffff" fill-opacity="0.501961" cx="56" cy="9" rx="172" ry="16" />
<ellipse fill="#ffffed" fill-opacity="0.501961" cx="170" cy="163" rx="22" ry="52" />
<ellipse fill="#303100" fill-opacity="0.501961" cx="163" cy="55" rx="40" ry="20" />
<ellipse fill="#151700" fill-opacity="0.501961" cx="41" cy="37" rx="51" ry="10" />
<ellipse fill="#001d41" fill-opacity="0.501961" cx="135" cy="144" rx="10" ry="35" />
<ellipse fill="#fff5d5" fill-opacity="0.501961" cx="0" cy="180" rx="27" ry="42" />
<ellipse fill="#745647" fill-opacity="0.501961" cx="56" cy="135" rx="48" ry="11" />
<ellipse fill="#fcebdc" fill-opacity="0.501961" cx="65" cy="96" rx="15" ry="39" />
<ellipse fill="#001937" fill-opacity="0.501961" cx="54" cy="201" rx="23" ry="30" />
<ellipse fill="#0a3f64" fill-opacity="0.501961" cx="143" cy="233" rx="44" ry="15" />
<ellipse fill="#ffffff" fill-opacity="0.501961" cx="123" cy="3" rx="177" ry="16" />
<ellipse fill="#1b1224" fill-opacity="0.501961" cx="145" cy="173" rx="13" ry="13" />
<ellipse fill="#fffff1" fill-opacity="0.501961" cx="7" cy="108" rx="66" ry="16" />
<ellipse fill="#ffffff" fill-opacity="0.501961" cx="178" cy="160" rx="25" ry="30" />
<ellipse fill="#a96a47" fill-opacity="0.501961" cx="98" cy="132" rx="27" ry="55" />
<ellipse fill="#948568" fill-opacity="0.501961" cx="57" cy="253" rx="81" ry="16" />
<ellipse fill="#6e6247" fill-opacity="0.501961" cx="108" cy="37" rx="86" ry="15" />
<ellipse fill="#b39792" fill-opacity="0.501961" cx="122" cy="183" rx="13" ry="26" />
<ellipse fill="#515636" fill-opacity="0.501961" cx="146" cy="129" rx="27" ry="6" />
<ellipse fill="#002840" fill-opacity="0.501961" cx="112" cy="102" rx="12" ry="9" />
<ellipse fill="#e4a78b" fill-opacity="0.501961" cx="99" cy="64" rx="30" ry="17" />
<ellipse fill="#fffffd" fill-opacity="0.501961" cx="146" cy="194" rx="13" ry="7" />
<ellipse fill="#00367d" fill-opacity="0.501961" cx="124" cy="222" rx="19" ry="24" />
<ellipse fill="#c1927e" fill-opacity="0.501961" cx="13" cy="223" rx="25" ry="23" />
<ellipse fill="#172121" fill-opacity="0.501961" cx="67" cy="217" rx="29" ry="21" />
<ellipse fill="#e5d6c9" fill-opacity="0.501961" cx="15" cy="163" rx="25" ry="30" />
<ellipse fill="#515554" fill-opacity="0.501961" cx="30" cy="166" rx="18" ry="4" />
<ellipse fill="#ffebd0" fill-opacity="0.501961" cx="128" cy="89" rx="5" ry="23" />
<ellipse fill="#5d604d" fill-opacity="0.501961" cx="31" cy="79" rx="11" ry="14" />
<ellipse fill="#a27d53" fill-opacity="0.501961" cx="161" cy="216" rx="8" ry="40" />
<ellipse fill="#fffffb" fill-opacity="0.501961" cx="161" cy="146" rx="18" ry="11" />
<ellipse fill="#f5fff8" fill-opacity="0.501961" cx="11" cy="22" rx="24" ry="7" />
<ellipse fill="#f4ffe8" fill-opacity="0.501961" cx="157" cy="116" rx="20" ry="6" />
<ellipse fill="#414220" fill-opacity="0.501961" cx="171" cy="105" rx="27" ry="6" />
<ellipse fill="#353e37" fill-opacity="0.501961" cx="51" cy="137" rx="15" ry="7" />
<ellipse fill="#00224a" fill-opacity="0.501961" cx="128" cy="131" rx="6" ry="19" />
<ellipse fill="#ffc49e" fill-opacity="0.501961" cx="76" cy="176" rx="5" ry="8" />
<ellipse fill="#c9a18e" fill-opacity="0.501961" cx="108" cy="143" rx="16" ry="28" />
<ellipse fill="#452000" fill-opacity="0.501961" cx="106" cy="86" rx="7" ry="10" />
<ellipse fill="#623322" fill-opacity="0.501961" cx="81" cy="153" rx="12" ry="13" />
<ellipse fill="#56a0be" fill-opacity="0.501961" cx="57" cy="212" rx="6" ry="9" />
<ellipse fill="#6fcdeb" fill-opacity="0.501961" cx="48" cy="192" rx="6" ry="6" />
<ellipse fill="#d2e3dc" fill-opacity="0.501961" cx="18" cy="58" rx="14" ry="7" />
<ellipse fill="#f6ad92" fill-opacity="0.501961" cx="93" cy="100" rx="9" ry="14" />
<ellipse fill="#b0b19d" fill-opacity="0.501961" cx="140" cy="35" rx="34" ry="5" />
<ellipse fill="#1f190f" fill-opacity="0.501961" cx="93" cy="188" rx="8" ry="19" />
<ellipse fill="#ffbba5" fill-opacity="0.501961" cx="82" cy="192" rx="5" ry="7" />
<ellipse fill="#473c09" fill-opacity="0.501961" cx="117" cy="44" rx="20" ry="6" />
<ellipse fill="#312d1f" fill-opacity="0.501961" cx="23" cy="129" rx="10" ry="5" />
<ellipse fill="#9b94b2" fill-opacity="0.501961" cx="105" cy="204" rx="7" ry="12" />
<ellipse fill="#f5ffff" fill-opacity="0.501961" cx="175" cy="91" rx="9" ry="6" />
<ellipse fill="#4b5430" fill-opacity="0.501961" cx="168" cy="68" rx="19" ry="16" />
<ellipse fill="#e7ddec" fill-opacity="0.501961" cx="73" cy="78" rx="11" ry="13" />
<ellipse fill="#7e9c9a" fill-opacity="0.501961" cx="55" cy="67" rx="15" ry="19" />
<ellipse fill="#e27f3f" fill-opacity="0.501961" cx="154" cy="173" rx="5" ry="14" />
<ellipse fill="#646351" fill-opacity="0.501961" cx="173" cy="245" rx="26" ry="22" />
<ellipse fill="#fff5e0" fill-opacity="0.501961" cx="3" cy="108" rx="17" ry="27" />
<ellipse fill="#7fbfc2" fill-opacity="0.501961" cx="142" cy="125" rx="5" ry="24" />
<ellipse fill="#ffffe9" fill-opacity="0.501961" cx="175" cy="170" rx="13" ry="31" />
<ellipse fill="#a24930" fill-opacity="0.501961" cx="88" cy="65" rx="7" ry="12" />
<ellipse fill="#ffedd7" fill-opacity="0.501961" cx="46" cy="111" rx="31" ry="17" />
<ellipse fill="#0d365c" fill-opacity="0.501961" cx="139" cy="157" rx="7" ry="29" />
<ellipse fill="#30332c" fill-opacity="0.501961" cx="98" cy="138" rx="8" ry="6" />
<ellipse fill="#f6ecde" fill-opacity="0.501961" cx="29" cy="150" rx="23" ry="11" />
<ellipse fill="#14151d" fill-opacity="0.501961" cx="36" cy="191" rx="8" ry="9" />
<ellipse fill="#fffffe" fill-opacity="0.501961" cx="144" cy="4" rx="153" ry="5" />
<ellipse fill="#3a5065" fill-opacity="0.501961" cx="123" cy="192" rx="6" ry="20" />
<ellipse fill="#014856" fill-opacity="0.501961" cx="128" cy="119" rx="14" ry="5" />
<ellipse fill="#ef9f91" fill-opacity="0.501961" cx="86" cy="50" rx="12" ry="9" />
<ellipse fill="#83755f" fill-opacity="0.501961" cx="33" cy="255" rx="35" ry="25" />
<ellipse fill="#a07645" fill-opacity="0.501961" cx="108" cy="173" rx="18" ry="13" />
<ellipse fill="#e49054" fill-opacity="0.501961" cx="144" cy="159" rx="6" ry="5" />
<ellipse fill="#658a8f" fill-opacity="0.501961" cx="0" cy="48" rx="40" ry="6" />
<ellipse fill="#aa8370" fill-opacity="0.501961" cx="138" cy="203" rx="16" ry="5" />
<ellipse fill="#ffebc6" fill-opacity="0.501961" cx="15" cy="195" rx="9" ry="14" />
<ellipse fill="#c2c4bb" fill-opacity="0.501961" cx="24" cy="172" rx="26" ry="5" />
<ellipse fill="#654927" fill-opacity="0.501961" cx="4" cy="205" rx="6" ry="5" />
<ellipse fill="#c79182" fill-opacity="0.501961" cx="29" cy="213" rx="5" ry="19" />
<ellipse fill="#00116a" fill-opacity="0.501961" cx="115" cy="214" rx="8" ry="12" />
<ellipse fill="#f4d3ca" fill-opacity="0.501961" cx="118" cy="169" rx="3" ry="13" />
<ellipse fill="#d28769" fill-opacity="0.501961" cx="68" cy="150" rx="7" ry="16" />
<ellipse fill="#ffcdb5" fill-opacity="0.501961" cx="111" cy="193" rx="3" ry="7" />
<ellipse fill="#18adb2" fill-opacity="0.501961" cx="119" cy="236" rx="7" ry="6" />
<ellipse fill="#ffffdb" fill-opacity="0.501961" cx="94" cy="47" rx="2" ry="15" />
<ellipse fill="#31413f" fill-opacity="0.501961" cx="93" cy="23" rx="14" ry="2" />
<ellipse fill="#e0c5af" fill-opacity="0.501961" cx="67" cy="126" rx="16" ry="9" />
<ellipse fill="#383323" fill-opacity="0.501961" cx="82" cy="235" rx="11" ry="17" />
<ellipse fill="#1e1005" fill-opacity="0.501961" cx="125" cy="226" rx="7" ry="7" />
<ellipse fill="#070604" fill-opacity="0.501961" cx="64" cy="230" rx="18" ry="5" />
<ellipse fill="#4b472c" fill-opacity="0.501961" cx="56" cy="79" rx="6" ry="4" />
<ellipse fill="#839693" fill-opacity="0.501961" cx="50" cy="59" rx="27" ry="11" />
<ellipse fill="#ffffed" fill-opacity="0.501961" cx="151" cy="193" rx="8" ry="7" />
<ellipse fill="#00225b" fill-opacity="0.501961" cx="142" cy="175" rx="6" ry="14" />
<ellipse fill="#fceeec" fill-opacity="0.501961" cx="98" cy="63" rx="4" ry="8" />
<ellipse fill="#4c4628" fill-opacity="0.501961" cx="4" cy="71" rx="8" ry="5" />
<ellipse fill="#eefffc" fill-opacity="0.501961" cx="132" cy="74" rx="10" ry="3" />
<ellipse fill="#45514a" fill-opacity="0.501961" cx="147" cy="97" rx="6" ry="7" />
<ellipse fill="#d38857" fill-opacity="0.501961" cx="119" cy="83" rx="7" ry="13" />
</g>
</svg>