<svg height="729" width="1024" xmlns="http://www.w3.org/2000/svg"><path d="m0 0h1024v729h-1024z" fill="#856e5f"/><g fill-opacity=".501961" stroke-width="4.096"><ellipse cx="628.736" cy="43.008" fill="#deffff" rx="1019.904" ry="61.44"/><ellipse cx="960.512" cy="354.304" fill="#fde6cb" rx="106.496" ry="98.304"/><ellipse cx="571.392" cy="419.84" fill="#63352b" rx="237.568" ry="348.16"/><ellipse cx="47.104" cy="296.96" fill="#1d1700" rx="143.36" ry="94.208"/><ellipse cx="2.048" cy="575.488" rx="98.304" ry="106.496"/><ellipse cx="174.08" cy="460.8" fill="#f9bf90" rx="77.824" ry="139.264"/><ellipse cx="866.304" cy="2.048" fill="#c1e3f9" rx="352.256" ry="122.88"/><ellipse cx="931.84" cy="202.752" fill="#0f1200" rx="139.264" ry="53.248"/><ellipse cx="436.224" cy="88.064" fill="#070000" rx="65.536" ry="28.672"/><ellipse cx="313.344" cy="55.296" fill="#ebf7ff" rx="49.152" ry="122.88"/><ellipse cx="501.76" cy="727.04" fill="#000013" rx="151.552" ry="53.248"/><ellipse cx="935.936" cy="505.856" rx="65.536" ry="28.672"/><ellipse cx="169.984" cy="145.408" fill="#1f1c00" rx="106.496" ry="40.96"/><ellipse cx="808.96" cy="727.04" fill="#104649" rx="118.784" ry="106.496"/><ellipse cx="2.048" cy="83.968" fill="#e2eaf7" rx="159.744" ry="49.152"/><ellipse cx="395.264" cy="223.232" fill="#ffc6a9" rx="28.672" ry="81.92"/><ellipse cx="337.92" cy="473.088" fill="#2c2511" rx="53.248" ry="110.592"/><ellipse cx="645.12" cy="616.448" fill="#bd8876" rx="102.4" ry="86.016"/><ellipse cx="677.888" cy="501.76" fill="#002e57" rx="126.976" ry="40.96"/><ellipse cx="501.76" cy="264.192" fill="#301004" rx="106.496" ry="53.248"/><ellipse cx="100.352" cy="714.752" fill="#1e0500" rx="122.88" ry="20.48"/><ellipse cx="116.736" cy="436.224" fill="#d8cab1" rx="135.168" ry="45.056"/><ellipse cx="223.232" cy="350.208" fill="#fdbd83" rx="36.864" ry="122.88"/><ellipse cx="399.36" cy="628.736" fill="#ec997c" rx="73.728" ry="53.248"/><ellipse cx="583.68" cy="354.304" fill="#e6a182" rx="40.96" ry="65.536"/><ellipse cx="690.176" cy="202.752" fill="#e3936f" rx="45.056" ry="77.824"/><ellipse cx="243.712" cy="505.856" fill="#c47039" rx="57.344" ry="126.976"/><ellipse cx="813.056" cy="387.072" fill="#c87e5b" rx="86.016" ry="73.728"/><ellipse cx="763.904" cy="514.048" fill="#00010e" rx="36.864" ry="69.632"/><ellipse cx="141.312" cy="264.192" fill="#493e23" rx="61.44" ry="122.88"/><ellipse cx="550.912" cy="186.368" fill="#ea9c7e" rx="32.768" ry="61.44"/><ellipse cx="804.864" cy="727.04" fill="#e4b247" rx="69.632" ry="36.864"/><ellipse cx="436.224" cy="419.84" fill="#a89fac" rx="28.672" ry="81.92"/><ellipse cx="432.128" cy="161.792" fill="#f29f8e" rx="40.96" ry="61.44"/><ellipse cx="694.272" cy="518.144" fill="#673f28" rx="45.056" ry="98.304"/><ellipse cx="47.104" cy="194.56" fill="#fff4c1" rx="49.152" ry="16.384"/><ellipse cx="505.856" cy="350.208" fill="#1a120c" rx="28.672" ry="118.784"/><ellipse cx="575.488" cy="526.336" fill="#005495" rx="57.344" ry="36.864"/><ellipse cx="264.192" cy="673.792" fill="#253e50" rx="90.112" ry="32.768"/><ellipse cx="296.96" cy="337.92" fill="#a55e34" rx="53.248" ry="135.168"/><ellipse cx="251.904" cy="67.584" fill="#eff1fb" rx="139.264" ry="24.576"/><ellipse cx="120.832" cy="649.216" fill="#eec49f" rx="49.152" ry="28.672"/><ellipse cx="997.376" cy="694.272" fill="#3d2f22" rx="155.648" ry="36.864"/><ellipse cx="501.76" cy="727.04" fill="#070408" rx="28.672" ry="147.456"/><ellipse cx="665.6" cy="378.88" fill="#5d2e12" rx="57.344" ry="106.496"/><ellipse cx="34.816" cy="600.064" fill="#2b1602" rx="102.4" ry="40.96"/><ellipse cx="870.4" cy="251.904" fill="#353b14" rx="73.728" ry="36.864"/><ellipse cx="923.648" cy="419.84" fill="#ffe1b7" rx="61.44" ry="28.672"/><ellipse cx="616.448" cy="116.736" fill="#59412b" rx="122.88" ry="24.576"/><ellipse cx="985.088" cy="153.6" fill="#241f0c" rx="49.152" ry="40.96"/></g></svg>