<svg viewBox="0 -256 1792 1792" xmlns="http://www.w3.org/2000/svg"><path d="m1152 704q0 185-131.5 316.5-131.5 131.5-316.5 131.5-185 0-316.5-131.5-131.5-131.5-131.5-316.5 0-185 131.5-316.5 131.5-131.5 316.5-131.5 185 0 316.5 131.5 131.5 131.5 131.5 316.5zm512-832q0-52-38-90-38-38-90-38-54 0-90 38l-343 342q-179-124-399-124-143 0-273.5 55.5-130.5 55.5-225 150-94.5 94.5-150 225-55.5 130.5-55.5 273.5 0 143 55.5 273.5 55.5 130.5 150 225 94.5 94.5 225 150 130.5 55.5 273.5 55.5 143 0 273.5-55.5 130.5-55.5 225-150 94.5-94.5 150-225 55.5-130.5 55.5-273.5 0-220-124-399l343-343q37-37 37-90z" fill="#9e9e9e" transform="matrix(1 0 0 -1 60.745763 1201.8983)"/></svg>